<svg xmlns="http://www.w3.org/2000/svg" version="1.1" xmlns:xlink="http://www.w3.org/1999/xlink" xmlns:svgjs="http://svgjs.com/svgjs" width="530px" height="400px"><svg width="530px" height="400px" viewBox="0 0 530 400" version="1.1" xmlns="http://www.w3.org/2000/svg" xmlns:xlink="http://www.w3.org/1999/xlink">
    <title>Combined Shape</title>
    <g id="SvgjsG1002" stroke="none" stroke-width="1" fill="none" fill-rule="evenodd">
        <g id="SvgjsG1001" transform="translate(-695.000000, -340.000000)" fill="#DC302B">
            <path d="M695.8637,339.9999 C712.8547,346.0479 724.6617,348.3509 739.3487,348.3509 L741.6527,348.3509 C756.6267,348.3509 764.4027,349.5029 764.4027,360.1589 C764.4027,372.5419 748.8517,412.5699 748.8517,432.4409 C748.8517,436.1839 750.0037,437.9119 752.0197,437.9119 C753.1717,437.9119 755.1877,437.3359 755.7627,433.8809 C764.4027,377.4369 783.6967,341.1519 814.5107,341.1519 C845.3237,341.1519 864.0427,349.7909 864.0427,377.7249 C864.0427,411.1299 846.1877,488.5959 846.1877,588.8119 L846.1877,624.2329 C847.9157,718.6899 856.2667,731.3609 867.4977,738.8479 L866.9227,739.9999 C849.9317,733.9529 838.1247,731.6489 823.4377,731.6489 C816.734975,731.6489 810.42213,733.273174 804.159644,734.978662 L802.183295,735.518138 C795.92765,737.223626 789.686625,738.8479 783.1207,738.8479 C769.5857,738.8479 756.3387,731.6489 740.2127,731.6489 L739.0607,731.6489 C724.3737,731.6489 712.5667,733.9529 695.5757,739.9999 L694.9997,738.8479 C707.6707,730.4969 716.5987,715.8099 716.5987,587.6599 L716.5987,455.7669 C714.8707,361.3099 706.5187,348.6389 695.2877,341.1519 L695.8637,339.9999 Z M1084.3428,340.0003 C1090.3898,345.4713 1095.8618,347.7753 1101.6208,347.7753 C1116.3078,347.7753 1131.8588,341.1523 1152.3048,341.1523 C1192.6218,341.1523 1215.6598,352.3833 1215.6598,382.3323 C1215.6598,448.8553 1202.9888,527.7613 1202.9888,588.8123 L1202.9888,589.3883 C1202.9888,715.2343 1211.9168,730.4963 1224.5868,738.8483 L1224.0118,740.0003 C1207.0208,733.9523 1195.2138,731.6483 1180.2388,731.6483 L1177.0708,731.6483 C1163.5358,731.6483 1155.4728,729.9213 1155.4728,720.4173 C1155.4728,708.6103 1170.7358,671.4613 1170.7358,651.3033 C1170.7358,647.8473 1169.5838,646.1193 1167.2798,646.1193 C1166.1278,646.1193 1164.3998,646.6953 1163.8238,650.1513 C1156.0488,704.2913 1140.2098,738.8483 1111.1248,738.8483 C1086.3588,738.8483 1070.2318,727.3293 1070.2318,693.0593 C1070.2318,684.027482 1071.36217,676.126036 1072.5953,668.273256 L1073.15368,664.739139 C1074.45656,656.483495 1075.7028,648.102618 1075.7028,638.3443 C1075.7028,610.6983 1069.0798,597.1633 1069.0798,583.3403 C1069.0798,549.6473 1088.6618,539.2803 1118.6118,539.2803 C1154.3208,539.2803 1160.9448,572.9733 1164.1118,607.2423 C1164.3998,610.1223 1165.5518,612.4263 1167.8558,612.4263 C1170.4478,612.4263 1171.5998,609.8343 1171.0238,606.0903 C1164.9758,573.5493 1158.6408,538.9923 1158.6408,511.3463 C1158.6408,467.8623 1164.1118,415.1623 1164.1118,367.0703 C1164.1118,354.3993 1161.2328,348.9273 1154.3208,348.9273 C1145.6818,348.9273 1139.6338,358.1423 1131.5708,379.4533 C1119.7638,413.7223 1109.1088,465.8463 1101.3328,527.4733 L1097.5898,527.4733 C1097.751,525.05426 1097.8993,522.644436 1098.03574,520.233507 L1098.13586,518.424942 C1098.23379,516.615847 1098.32519,514.80468 1098.4105,512.987085 L1098.49379,511.167187 C1099.49641,488.691374 1099.59423,465.017172 1099.60377,431.976075 L1099.60467,426.534664 C1099.6047,426.074156 1099.60473,425.611856 1099.60475,425.147746 L1099.6048,420.9213 L1099.6048,420.9213 C1099.6048,383.4843 1090.9658,357.8543 1082.9028,341.1523 L1084.3428,340.0003 Z M965.4093,341.1521 C1010.3333,341.1521 1037.6913,352.6711 1037.6913,380.8931 C1037.6913,391.804116 1034.06546,402.017807 1030.38206,412.083298 L1029.66938,414.029755 C1026.11199,423.754259 1022.7163,433.373148 1022.7163,443.3841 C1022.7163,483.9881 1033.6593,501.2671 1033.6593,523.4411 C1033.6593,540.7201 1027.0363,551.9511 1001.6943,551.9511 C945.8263,551.9511 947.2663,500.4031 926.8203,500.4031 C915.3013,500.4031 896.5823,514.5141 896.5823,538.7041 C896.5823,572.6851 957.3463,569.8061 957.3463,636.3281 C957.3463,667.7181 935.7473,692.4841 935.7473,710.3381 C935.7473,725.6011 944.6753,730.4971 965.4093,730.4971 C986.7193,730.4971 995.9343,725.6011 995.9343,710.3381 C995.9343,692.7721 974.9123,668.0061 974.9123,636.6161 C974.9123,587.3721 1021.2763,586.7961 1040.5713,549.6471 L1044.6033,551.3751 C1029.0523,584.2041 1023.2923,610.1221 1023.2923,628.2651 C1023.2923,639.933218 1028.25061,649.79237 1033.38392,659.523034 L1034.13583,660.946311 C1039.40017,670.905564 1044.6033,680.816006 1044.6033,692.4841 C1044.6033,727.6171 1014.3653,738.8481 965.4093,738.8481 C917.8933,738.8481 887.6553,727.6171 887.6553,692.1961 C887.6553,682.2433 892.167223,673.750545 896.859623,665.316191 L897.4468,664.2621 L897.4468,664.2621 L898.219099,662.87504 C902.84433,654.549909 907.2383,646.149942 907.2383,636.3281 C907.2383,587.9481 886.2153,563.7581 886.2153,538.9921 C886.2153,514.8021 909.5413,493.2041 909.5413,443.9601 C909.5413,432.971616 905.407035,422.442819 901.401966,411.78135 L900.676144,409.841307 C897.184061,400.456092 893.9913,390.940694 893.9913,380.8931 C893.9913,352.6711 919.9093,341.1521 965.4093,341.1521 Z M809.3267,350.6549 C794.0637,350.6549 764.1147,383.4849 764.1147,456.9189 L764.1147,593.1319 C764.1147,710.9149 766.9947,732.8009 782.2567,732.8009 C790.6087,732.8009 798.3837,716.3859 798.3837,659.6539 L798.3837,591.9799 C798.3837,471.8939 821.9977,401.6269 821.9977,364.7659 C821.9977,355.5509 817.9657,350.6549 809.3267,350.6549 Z M1118.3238,548.2073 C1109.6848,548.2073 1103.9248,551.9513 1103.9248,567.7893 C1103.9248,591.4043 1126.3868,603.7873 1126.3868,637.1923 C1126.3868,669.7333 1110.5488,710.9143 1110.5488,719.8413 C1110.5488,724.7373 1112.5638,726.7533 1118.0358,726.7533 C1132.1468,726.7533 1155.4728,695.6513 1155.4728,629.1293 C1155.4728,560.8783 1141.3618,548.2073 1118.3238,548.2073 Z M965.4093,349.5031 C946.1143,349.5031 938.0513,354.3991 938.0513,368.7981 C938.0513,386.9401 958.2103,412.2821 958.2103,442.2321 C958.2103,456.6311 951.8743,472.7571 951.8743,489.7481 C951.8743,517.1061 967.4253,541.5841 1002.5583,541.5841 C1016.9573,541.5841 1023.0043,535.8241 1023.0043,524.0171 C1023.0043,500.4031 973.1843,484.8521 973.1843,443.0961 C973.1843,411.9941 993.9193,386.9401 993.9193,368.7981 C993.9193,354.3991 985.2793,349.5031 965.4093,349.5031 Z" id="SvgjsPath1000"></path>
        </g>
    </g>
</svg><style>@media (prefers-color-scheme: light) { :root { filter: none; } }
@media (prefers-color-scheme: dark) { :root { filter: contrast(0.8333333333333334) brightness(1.7); } }
</style></svg>