<svg width="125" height="165" viewBox="0 0 125 165" fill="none" xmlns="http://www.w3.org/2000/svg">
<path fill-rule="evenodd" clip-rule="evenodd" d="M115.707 94.8974C115.707 94.8974 117.849 85.7594 110.775 81.3874C110.775 81.3874 103.083 76.4424 94.9562 76.6184V84.2494C94.9562 84.2494 102.886 84.4204 106.721 87.7464C108.261 89.0824 108.104 91.6544 108.104 93.8084L115.707 94.8974Z" fill="white"/>
<path fill-rule="evenodd" clip-rule="evenodd" d="M94.5952 76.6184C94.5952 76.4221 94.7521 76.2618 94.9484 76.2575C98.6144 76.1781 102.445 77.0939 106.206 78.6676C107.466 79.1948 108.627 79.7595 109.663 80.3246C109.845 80.4237 110.016 80.5192 110.177 80.6107L110.626 80.8724L110.87 81.0204L111.287 81.2865C113.398 82.6862 114.803 84.5967 115.599 86.8846C116.426 89.2592 116.531 91.7701 116.217 94.0646C116.209 94.126 116.2 94.1849 116.192 94.2414L116.143 94.5506L116.098 94.7978L116.059 94.9798C116.016 95.162 115.841 95.2813 115.656 95.2548L108.053 94.1658C107.875 94.1403 107.743 93.988 107.743 93.8084L107.746 92.3575L107.736 91.8221C107.673 89.9225 107.336 88.7574 106.485 88.0192C105.335 87.0221 103.718 86.2473 101.753 85.6749C100.266 85.2419 98.669 84.949 97.0716 84.771C96.5122 84.7086 95.9929 84.6651 95.5273 84.6371L95.395 84.6295L94.9484 84.6103C94.7521 84.6061 94.5952 84.4458 94.5952 84.2494V76.6184ZM94.964 76.9793L95.3165 76.9756V83.9016L95.9386 83.9409C96.3163 83.9686 96.7225 84.0056 97.1516 84.0534C98.7873 84.2357 100.424 84.5358 101.954 84.9817C104.011 85.5807 105.718 86.3984 106.958 87.4737C108.055 88.4257 108.426 89.8439 108.465 92.1157L108.468 92.35L108.465 93.4956L115.419 94.4916L115.455 94.2858L115.502 93.9667C115.802 91.7754 115.701 89.3729 114.918 87.122C114.134 84.8703 112.729 83.0192 110.58 81.6911L110.346 81.5464L109.819 81.2376L109.318 80.9585C108.302 80.4048 107.163 79.8507 105.927 79.3337C102.251 77.7957 98.5154 76.9024 94.964 76.9793Z" fill="black"/>
<path fill-rule="evenodd" clip-rule="evenodd" d="M30.1037 77.2205C30.1037 77.2205 19.4947 78.6505 15.0717 70.7095L8.0047 70.5125C8.0047 70.5125 11.9067 85.0105 30.1897 86.4415L30.1037 77.2205Z" fill="white"/>
<path fill-rule="evenodd" clip-rule="evenodd" d="M8.01474 70.1516L15.0817 70.3486C15.2091 70.3521 15.3251 70.4225 15.3871 70.5338C16.8217 73.1095 19.0117 74.8437 21.7637 75.8717C24.3917 76.8533 27.1659 77.0906 29.5577 76.9106L29.6943 76.8997L30.0555 76.8627C30.2707 76.8337 30.4626 76.9999 30.4647 77.2171L30.5507 86.4381C30.5526 86.6499 30.3727 86.8179 30.1615 86.8013C22.4288 86.1961 16.6302 83.273 12.5017 78.7778C10.8651 76.9959 9.60755 75.0868 8.68008 73.1767C8.35491 72.5071 8.09405 71.8845 7.89144 71.3246L7.83395 71.1631L7.74139 70.889L7.65608 70.6063C7.59326 70.3728 7.77311 70.1448 8.01474 70.1516ZM14.8576 71.0636L8.50242 70.8866L8.57035 71.0789C8.7646 71.6157 9.01573 72.2151 9.32956 72.8614C10.2278 74.7112 11.447 76.5621 13.0334 78.2894C17.0408 82.6527 22.6709 85.4908 30.2178 86.0815L29.8244 86.0476L29.7464 77.6196L29.1691 77.659C26.9363 77.7782 24.4271 77.5445 21.9961 76.7207L21.5111 76.548C18.6705 75.487 16.3821 73.7009 14.8576 71.0636ZM14.8576 71.0636L14.8594 71.0636L14.7563 70.8851C14.7897 70.945 14.8234 71.0045 14.8576 71.0636Z" fill="black"/>
<path fill-rule="evenodd" clip-rule="evenodd" d="M1.2739 52.2869C1.4419 51.9899 1.6819 51.7659 1.9569 51.6109V51.6109C2.1819 49.5569 3.1759 48.4839 3.1759 48.4839C4.3239 47.1659 5.7559 47.1689 6.6649 47.8649C6.6649 47.8649 7.1109 46.4369 8.0649 45.5429C9.0179 44.6479 10.8669 44.6479 11.5819 46.1389C12.2969 47.6289 11.7009 48.3449 10.4489 50.6099C9.1969 52.8759 10.4289 53.4499 10.4289 53.4499C12.0409 52.1749 12.3589 51.4719 15.3459 51.3609C17.9019 51.2659 20.3459 53.7109 20.8229 55.4399C21.2999 57.1679 20.8829 58.6589 19.5109 58.8969C17.5069 59.2459 16.7089 57.5259 16.7089 57.5259C16.2919 55.8569 14.5029 55.6179 14.5029 55.6179C11.7609 55.5589 11.8209 58.8379 11.8209 58.8379C11.7009 61.4009 13.7879 62.4149 15.4569 62.2959C17.1269 62.1769 17.7229 60.5069 17.7229 60.5069C18.2559 59.6599 18.8889 59.2749 19.5779 59.2479C20.1969 59.2249 21.0109 59.3289 21.5379 59.9709C22.7809 61.4829 21.5149 63.9049 21.5149 63.9049C21.5149 63.9049 19.7429 67.2089 17.2749 67.6499C17.2749 67.6499 12.7049 69.6869 6.4829 67.8149C6.4829 67.8149 1.7519 63.9749 0.797904 60.0509C-0.193096 55.9759 0.769904 53.1799 1.2739 52.2869" fill="white"/>
<path fill-rule="evenodd" clip-rule="evenodd" d="M7.81776 45.2798C7.42078 45.6518 7.08187 46.1253 6.795 46.6619L6.68416 46.8775L6.58452 47.0873L6.48144 47.3226L6.4461 47.3044C5.38617 46.7777 4.07523 47.0262 3.05454 48.0823L2.90368 48.2468C2.72945 48.4346 2.47154 48.8013 2.21782 49.3359L2.09117 49.6203C1.88955 50.1042 1.73626 50.637 1.64514 51.2175L1.62044 51.3946L1.63237 51.3873C1.34782 51.5801 1.12299 51.8205 0.959683 52.1092C0.0267215 53.7622 -0.378967 56.7393 0.447121 60.1362C0.839309 61.7494 1.84764 63.4371 3.28158 65.1318C3.93138 65.8998 4.62667 66.6186 5.32205 67.2688L5.50138 67.4349L5.83858 67.7385L6.25539 68.0952L6.37889 68.1606C9.86402 69.2092 13.0984 69.172 15.8708 68.4782C16.3001 68.3708 16.6803 68.2554 17.0077 68.1397L17.3008 68.0302L17.4219 67.9796C18.4449 67.8076 19.4763 67.0969 20.4231 66.0428C20.8088 65.6134 21.1544 65.1546 21.4558 64.6958L21.6868 64.3299L21.7939 64.1466C21.8086 64.1205 21.8216 64.0968 21.833 64.0755C21.86 64.0239 21.8907 63.9608 21.9238 63.8874L22.0292 63.6367C22.0658 63.5434 22.1037 63.4407 22.1415 63.3295C22.371 62.6539 22.4886 61.9676 22.4314 61.314C22.3793 60.7191 22.1822 60.1862 21.8168 59.7417L21.6885 59.5981C21.3789 59.2802 20.999 59.0804 20.5663 58.9755L20.3854 58.9376L20.4196 58.9161C21.3351 58.2841 21.6066 56.9223 21.1709 55.3438C20.5743 53.1815 17.8139 50.9079 15.3325 51.0002C13.4261 51.071 12.4858 51.3621 11.5143 52.0967L11.2163 52.3352L10.4274 52.9846L10.4223 52.9774C10.3706 52.9077 10.3234 52.8157 10.2905 52.6986C10.1702 52.2709 10.2891 51.6456 10.7649 50.7845L11.5647 49.3341L11.8706 48.763L12.0616 48.3748L12.1331 48.2036L12.1665 48.1069L12.1908 48.0194L12.2076 47.9371L12.2197 47.8495L12.2443 47.4815C12.2778 47.0017 12.1699 46.5299 11.9074 45.9828C11.1326 44.3671 9.03733 44.1344 7.81776 45.2798ZM11.2564 46.2951C11.4681 46.7362 11.5481 47.0862 11.5241 47.4313L11.5126 47.6144C11.4996 47.8025 11.4752 47.9279 11.3098 48.2673L11.1305 48.6171L10.7816 49.2606L10.133 50.4353C9.57248 51.4497 9.41788 52.2627 9.59542 52.894C9.71968 53.3359 9.97559 53.6142 10.2424 53.7598L10.263 53.7705C10.389 53.8357 10.5416 53.8211 10.6528 53.733L11.8785 52.7281C11.907 52.7055 11.9311 52.6867 11.9497 52.6726C12.7937 52.0345 13.5919 51.7873 15.3593 51.7217C17.488 51.6425 19.9632 53.6812 20.4749 55.5359C20.9254 57.168 20.5098 58.3572 19.4492 58.5412C18.6248 58.6848 17.9868 58.4537 17.4911 57.9751C17.2519 57.744 17.1014 57.514 17.0364 57.374C16.8741 56.6978 16.4413 56.1443 15.8444 55.76C15.3628 55.4498 14.8852 55.3048 14.5507 55.2601C13.2473 55.2298 12.3859 55.8316 11.8976 56.8468C11.5911 57.4842 11.4721 58.1743 11.4604 58.7663L11.4599 58.8356C11.3431 61.323 13.2525 62.815 15.4826 62.656C16.294 62.5982 16.9474 62.2223 17.449 61.6405C17.7725 61.2653 17.9691 60.8911 18.0629 60.6282C18.4839 59.9755 19.0042 59.6317 19.592 59.6086C20.3157 59.5817 20.8926 59.7537 21.2589 60.2C21.5261 60.5251 21.6722 60.9199 21.7122 61.377C21.7594 61.9163 21.6578 62.5086 21.4579 63.0973L21.408 63.2388L21.3125 63.4828L21.2294 63.6688C21.217 63.6945 21.2055 63.7175 21.195 63.7377L21.0657 63.9619L20.9325 64.1759C20.9073 64.2153 20.8806 64.2565 20.8524 64.2994C20.5697 64.7297 20.2455 65.1601 19.8859 65.5604C19.0367 66.5059 18.1304 67.1303 17.2114 67.2945L16.7669 67.459C16.4606 67.5673 16.1022 67.6761 15.6955 67.7778L15.3469 67.8608C12.8888 68.4165 10.0624 68.4333 7.0226 67.5948L6.65444 67.4886L6.31596 67.1968L5.98923 66.9027C5.93233 66.8505 5.87429 66.7967 5.81517 66.7414C5.13911 66.1093 4.46297 65.4103 3.83276 64.6655C2.46475 63.0487 1.50951 61.4498 1.14868 59.9656C0.365752 56.7462 0.745835 53.957 1.58828 52.4643C1.69579 52.2743 1.84381 52.116 2.02528 51.9928L2.14701 51.9178C2.24142 51.8593 2.30366 51.7606 2.31575 51.6502C2.39867 50.8933 2.59514 50.2247 2.87007 49.6455C3.09031 49.1815 3.30637 48.8743 3.44073 48.7292C4.38432 47.6462 5.58854 47.4954 6.44543 48.1515C6.6217 48.2865 6.86953 48.2299 6.97589 48.0486L7.01176 47.9654L7.03432 47.899C7.12393 47.6428 7.25677 47.3296 7.43173 47.0023C7.68428 46.5299 7.97892 46.1182 8.31174 45.8063C9.15725 45.0123 10.5804 45.1333 11.1826 46.1564L11.2564 46.2951ZM14.6761 56.0245L14.4951 55.9788C13.533 55.9581 12.9204 56.3861 12.5483 57.1598C12.2949 57.6866 12.1921 58.2828 12.1823 58.7757L12.1815 58.8548C12.0865 60.8838 13.5999 62.0664 15.4312 61.9358C16.0345 61.8928 16.518 61.6147 16.9022 61.169C17.1593 60.8708 17.3165 60.5716 17.4174 60.3146C17.7047 59.858 18.0304 59.5094 18.3898 59.2708L18.4204 59.2516L18.3912 59.2475C17.9096 59.1491 17.4863 58.9296 17.123 58.6163L16.9896 58.4945C16.6783 58.1938 16.4809 57.8922 16.3587 57.6134C16.221 57.0624 15.9041 56.6571 15.4535 56.367C15.2331 56.225 14.9946 56.1202 14.7561 56.0477C14.7279 56.0392 14.701 56.0314 14.6761 56.0245Z" fill="black"/>
<path fill-rule="evenodd" clip-rule="evenodd" d="M17.5756 67.5793C17.5756 67.5793 17.8346 69.1543 16.3296 70.2923C14.8596 71.4033 10.6486 71.9123 8.13361 70.9233C7.24861 70.5753 6.5316 70.1553 6.4826 67.8143" fill="white"/>
<path d="M17.2194 67.6379L17.9318 67.5208L17.9436 67.6204C17.9999 68.2487 17.8651 68.9954 17.3803 69.7119C17.1644 70.031 16.8881 70.3226 16.5473 70.5803C14.8798 71.8406 10.5025 72.2428 8.00149 71.2593C6.73371 70.7608 6.20757 70.0302 6.12898 68.0638L6.12167 67.8219L6.84352 67.8068C6.88251 69.6699 7.22304 70.1774 8.26571 70.5874C10.5431 71.4829 14.6555 71.1051 16.1119 70.0044C16.3893 69.7946 16.6107 69.5609 16.7823 69.3073C17.1615 68.7469 17.2672 68.1614 17.2245 67.6848L17.2194 67.6379Z" fill="black"/>
<path fill-rule="evenodd" clip-rule="evenodd" d="M11.9069 45.9829C11.1323 44.3678 9.03853 44.1348 7.81764 45.2789C7.55348 45.5267 7.31367 45.8213 7.09613 46.1528C6.86598 46.5035 6.67226 46.8769 6.51286 47.2503C6.49365 47.2952 6.47573 47.3383 6.45908 47.3793L6.37442 47.5982L6.31991 47.7577L7.00908 47.9729L7.02832 47.9144L7.08825 47.7511L7.17687 47.5338C7.32057 47.1972 7.49507 46.8608 7.69975 46.5489C7.8878 46.2624 8.09215 46.0113 8.31149 45.8056C9.1946 44.978 10.7048 45.1461 11.256 46.2954C11.4681 46.7368 11.5483 47.0867 11.5244 47.4316L11.5066 47.6917L11.4892 47.8038L11.4561 47.9258L11.4213 48.0208L11.3446 48.1959L11.2738 48.3413L11.1321 48.6149L10.0193 50.6505C9.37152 51.9205 9.3921 52.8486 9.87769 53.4471C10.017 53.6188 10.1622 53.7235 10.2762 53.7766C10.4004 53.8344 10.5467 53.8169 10.6538 53.7313L11.577 52.962L11.7896 52.7926C12.7268 52.0741 13.591 51.7877 15.3589 51.722C17.488 51.6429 19.9641 53.6814 20.4744 55.5351C20.9249 57.1681 20.5096 58.3576 19.4497 58.5416C18.6249 58.6852 17.9869 58.4541 17.4915 57.9755C17.2523 57.7445 17.1019 57.5146 17.037 57.3745C16.8743 56.698 16.4418 56.1447 15.8453 55.7604C15.3636 55.45 14.8858 55.305 14.5511 55.2605C13.1372 55.2273 12.2478 55.9357 11.7889 57.0945C11.5364 57.7321 11.4551 58.3687 11.4596 58.8439L11.4545 59.0601C11.4563 61.4101 13.3185 62.8109 15.4834 62.6554C16.2942 62.5976 16.9473 62.2219 17.4487 61.6404C17.7721 61.2654 17.9686 60.8914 18.0625 60.6287C18.4843 59.975 19.0046 59.6312 19.5911 59.609C20.3136 59.581 20.893 59.7537 21.2596 60.1996C21.5268 60.5246 21.6728 60.9196 21.7126 61.3771C21.7596 61.9163 21.6579 62.5084 21.4578 63.097C21.4244 63.1955 21.391 63.2861 21.359 63.3676L21.2686 63.5837L21.1946 63.738L21.0654 63.9623L20.8522 64.2997C20.5698 64.7298 20.2457 65.16 19.8863 65.5602C19.0371 66.5058 18.1307 67.13 17.2112 67.2939L16.7665 67.4585C16.4601 67.5668 16.1018 67.6757 15.6951 67.7775L15.3465 67.8605C12.8884 68.4164 10.062 68.4332 7.02224 67.5943L6.65544 67.4886L6.46717 67.3286L6.15592 67.0538L5.81472 66.7406C5.13861 66.1083 4.46242 65.4091 3.83216 64.6641C2.46455 63.0475 1.50941 61.4489 1.14825 59.9649C0.365529 56.7471 0.745628 53.96 1.58803 52.4645C2.11296 51.5343 3.64997 51.4604 4.11422 52.2315C4.5951 53.0304 4.58864 53.5028 4.24754 54.2959L4.00759 54.8506L3.93991 55.0278C3.60642 55.9568 3.79592 56.9557 4.70528 58.0269L5.2557 57.5597L5.11499 57.3864C4.49539 56.5868 4.39033 55.91 4.61926 55.2723L4.71422 55.031L4.86746 54.6807L4.98573 54.3986C5.33554 53.5006 5.30814 52.8149 4.73278 51.8591C3.97606 50.6022 1.74952 50.7093 0.959103 52.1099C0.0265174 53.7655 -0.379178 56.7403 0.446721 60.1356C0.839265 61.7485 1.84745 63.436 3.28095 65.1304C3.93079 65.8986 4.62613 66.6176 5.32155 67.2679L5.67327 67.5908L5.99492 67.8748L6.25496 68.0946L6.37843 68.16L6.83158 68.2907C10.144 69.2046 13.2186 69.1418 15.8705 68.4778C16.2998 68.3704 16.6799 68.2549 17.0073 68.1391L17.1197 68.0986L17.3005 68.0296L17.4215 67.979C18.445 67.8074 19.4767 67.0968 20.4235 66.0426C20.8091 65.6132 21.1545 65.1546 21.4557 64.696L21.6189 64.4408L21.7449 64.2319L21.8327 64.0758L21.9235 63.8876C21.9898 63.7406 22.0658 63.5519 22.1414 63.3294C22.371 62.654 22.4888 61.9679 22.4319 61.3145C22.3801 60.7191 22.183 60.1859 21.8174 59.741L21.6889 59.5976C21.3789 59.2798 20.9979 59.0799 20.5648 58.975L20.3854 58.9376L20.4198 58.9164C21.3348 58.2843 21.6061 56.9223 21.1705 55.3433C20.5754 53.1818 17.8139 50.9083 15.3321 51.0005C13.3053 51.0759 12.2961 51.4483 11.1683 52.3632L10.4294 52.9806L10.3873 52.922C10.1329 52.5303 10.1712 51.8604 10.7655 50.7849L11.6865 49.1107L11.8705 48.7642L12.006 48.4949L12.101 48.2859L12.1456 48.1715L12.1779 48.0712L12.2085 47.9361L12.2247 47.8042L12.2505 47.3019C12.2485 46.8827 12.137 46.4617 11.9069 45.9829ZM12.1837 58.6786C12.1977 58.3093 12.2748 57.8284 12.4602 57.3603C12.8158 56.4624 13.4511 55.9564 14.4956 55.9792L14.6078 56.0065L14.7569 56.048C14.9954 56.1204 15.2339 56.2253 15.4543 56.3673C15.9045 56.6574 16.2213 57.0627 16.3593 57.6139C16.4813 57.8925 16.6786 58.1942 16.9898 58.4948L17.1232 58.6166C17.4864 58.9299 17.9097 59.1495 18.3914 59.2478L18.4184 59.2526L18.3902 59.2703C18.0309 59.5089 17.7049 59.8578 17.417 60.3149C17.3161 60.5718 17.159 60.8709 16.902 61.1689C16.5179 61.6143 16.0346 61.8922 15.4318 61.9352C13.6001 62.0668 12.0869 60.8844 12.1811 58.854L12.1837 58.6786Z" fill="black"/>
<path d="M2.90391 48.2467C4.15149 46.8148 5.90657 46.6728 7.05515 47.7199C7.94928 48.5341 7.86959 50.085 7.21278 51.2705L7.11967 51.4298C7.08509 51.4861 7.05282 51.5449 7.02281 51.6061C6.91672 51.8223 6.84309 52.0576 6.79723 52.2934L6.76711 52.4772L6.75529 52.6018C6.67 53.8848 7.04205 54.982 7.67018 55.8699L7.80862 56.0569L7.23756 56.4987C6.42633 55.4501 5.9306 54.1225 6.03448 52.5611C6.04967 52.2333 6.14085 51.7645 6.37464 51.288L6.43701 51.168L6.50473 51.0515C7.08547 50.1088 7.1866 48.8161 6.56888 48.2536C5.72529 47.4845 4.43458 47.589 3.44092 48.7291C3.30656 48.8742 3.09051 49.1814 2.87026 49.6454C2.63461 50.1419 2.4566 50.704 2.35833 51.3311L2.31594 51.6501L1.59824 51.5715C1.6902 50.732 1.90948 49.9858 2.21801 49.3358C2.44002 48.8681 2.66523 48.5288 2.83481 48.3255L2.90391 48.2467Z" fill="black"/>
<path d="M9.23543 56.454L9.34595 57.1675L9.18985 57.1975L8.97204 57.2513L8.70041 57.3313C8.2043 57.4887 7.70826 57.7105 7.24749 58.0063C6.36276 58.5742 5.71762 59.3419 5.39812 60.3461L5.33021 60.582L4.63116 60.4014C4.96974 59.091 5.76058 58.1028 6.85746 57.3987C7.3759 57.0659 7.92903 56.8186 8.48208 56.6431C8.59328 56.6078 8.69659 56.5778 8.79073 56.5524L9.04439 56.4903L9.23543 56.454Z" fill="black"/>
<path d="M10.5532 62.4207L10.7434 63.1172C10.5482 63.1704 10.2314 63.317 9.91478 63.5838C9.47188 63.957 9.17986 64.457 9.09947 65.1182L9.08176 65.3214L8.36081 65.2824C8.41326 64.3111 8.81599 63.5655 9.44959 63.0317C9.80651 62.731 10.1634 62.5488 10.4399 62.4554L10.5532 62.4207Z" fill="black"/>
<path fill-rule="evenodd" clip-rule="evenodd" d="M56.7511 128.56L52.3591 145.751C52.3591 145.751 48.0181 148.445 45.6181 144.345L49.5971 128.56H56.7511Z" fill="white"/>
<path fill-rule="evenodd" clip-rule="evenodd" d="M49.5971 128.199H56.7511C56.9867 128.199 57.1592 128.421 57.1008 128.649L52.7088 145.84C52.6858 145.931 52.6286 146.008 52.5494 146.058L52.4432 146.12L52.2808 146.207C52.0736 146.315 51.84 146.422 51.5843 146.522C50.4357 146.97 49.247 147.131 48.1195 146.828C46.996 146.526 46.038 145.777 45.3065 144.527C45.2587 144.446 45.2449 144.348 45.268 144.257L49.247 128.472C49.2875 128.311 49.4317 128.199 49.5971 128.199ZM52.0454 145.515L56.2854 128.921H49.8774L46.0044 144.285L46.0687 144.389C46.6349 145.266 47.3214 145.808 48.1083 146.071L48.3072 146.131C49.2623 146.388 50.3039 146.246 51.3216 145.849C51.6036 145.739 51.8346 145.629 52.001 145.54L52.0454 145.515Z" fill="black"/>
<path fill-rule="evenodd" clip-rule="evenodd" d="M43.8734 155.724C40.7734 145.432 30.8764 146.982 30.8764 146.982C24.1994 147.578 21.0984 154.375 21.0984 154.375C35.6464 166.537 51.3854 164.391 51.3854 164.391C52.4454 159.144 51.3854 152.705 51.3854 152.705C51.3854 152.705 46.0194 153.659 43.2774 150.201L41.6414 151.249" fill="white"/>
<path fill-rule="evenodd" clip-rule="evenodd" d="M41.6433 150.666C40.6148 149.439 39.3865 148.496 37.9919 147.814C35.688 146.687 33.2795 146.402 31.217 146.581L31.0177 146.6L30.8722 146.618L30.4629 146.663C27.7377 146.998 25.396 148.357 23.4484 150.409C22.6586 151.241 21.989 152.132 21.4361 153.023C21.2423 153.335 21.0767 153.626 20.939 153.887L20.8922 153.977L20.77 154.225C20.7025 154.373 20.7422 154.548 20.8668 154.652C21.8803 155.499 22.9163 156.292 23.9736 157.031C29.2355 160.71 34.8592 162.98 40.5716 164.104C44.4736 164.872 47.9217 165.024 50.6462 164.824L51.1847 164.778L51.4342 164.749C51.5864 164.728 51.7088 164.613 51.7392 164.463C51.9012 163.661 52.0199 162.806 52.0987 161.906C52.3069 159.526 52.2316 156.984 51.9801 154.532C51.9541 154.279 51.9272 154.037 51.8998 153.807L51.8167 153.157L51.7416 152.646C51.7089 152.448 51.5203 152.314 51.3222 152.35L51.1081 152.381L50.8847 152.406C49.5444 152.544 48.0519 152.468 46.6537 152.026C45.3904 151.627 44.3389 150.959 43.5603 149.977L43.5057 149.921C43.3872 149.825 43.2164 149.811 43.0827 149.897L41.7244 150.767L41.6433 150.666ZM31.2794 147.3C33.2226 147.132 35.5063 147.402 37.6748 148.463C40.3842 149.787 42.4232 152.161 43.5277 155.828L44.219 155.62L44.0951 155.225C43.6277 153.796 43.016 152.556 42.2765 151.495L42.1654 151.341L43.2044 150.676L43.3874 150.876C44.209 151.735 45.2421 152.337 46.4361 152.715L46.8143 152.826C48.206 153.203 49.6475 153.259 50.9583 153.125L51.0814 153.111L51.1829 153.893C51.2098 154.119 51.2363 154.357 51.2618 154.606C51.5091 157.016 51.5831 159.515 51.3794 161.843L51.3289 162.362C51.2736 162.876 51.2043 163.372 51.1204 163.849L51.0794 164.062L50.7431 164.093L50.1668 164.132C47.5722 164.282 44.3436 164.11 40.711 163.395C35.0931 162.29 29.5628 160.058 24.3873 156.439L23.7656 155.997C23.1464 155.547 22.5348 155.079 21.931 154.592L21.5484 154.278L21.6804 154.033C21.7881 153.838 21.9112 153.627 22.0496 153.404C22.5779 152.552 23.2185 151.7 23.9721 150.906C25.8922 148.883 28.1997 147.583 30.9085 147.342C30.929 147.339 30.9518 147.335 30.977 147.332L31.2794 147.3Z" fill="black"/>
<path fill-rule="evenodd" clip-rule="evenodd" d="M51.7578 161.649C51.6848 162.573 51.5658 163.499 51.3858 164.391C51.3858 164.391 35.6458 166.538 21.0988 154.375C21.0988 154.375 21.6728 153.117 22.8588 151.636H22.8598C35.5268 163.199 51.7568 161.649 51.7568 161.649" fill="white"/>
<path fill-rule="evenodd" clip-rule="evenodd" d="M23.1032 151.369C23.0367 151.308 22.9498 151.275 22.8598 151.275L22.7781 151.284C22.6995 151.302 22.6284 151.346 22.577 151.41C22.0465 152.072 21.5955 152.739 21.2223 153.378C21.1901 153.434 21.1595 153.487 21.1304 153.538L20.974 153.821L20.854 154.051L20.7704 154.225C20.7029 154.373 20.7425 154.547 20.8672 154.652C21.8821 155.5 22.9196 156.294 23.9785 157.034C29.2392 160.712 34.8617 162.98 40.5728 164.104C44.4742 164.872 47.9218 165.024 50.6461 164.824L50.8024 164.812L51.185 164.777L51.4346 164.748C51.5868 164.728 51.7093 164.613 51.7396 164.462L51.839 163.933C51.9633 163.217 52.0555 162.463 52.1177 161.677L51.7564 161.648L51.7225 161.289L51.6611 161.295L51.2177 161.323C49.1265 161.43 46.4269 161.322 43.345 160.834C38.7898 160.114 34.3017 158.682 30.1053 156.375C27.6027 154.999 25.2592 153.337 23.1032 151.369ZM22.8453 152.242L22.9064 152.162L23.1701 152.398C25.215 154.19 27.4184 155.721 29.7575 157.007C34.0319 159.357 38.5989 160.814 43.2322 161.547L43.7813 161.631C46.6884 162.056 49.2418 162.147 51.2545 162.044L51.3594 162.038L51.3471 162.187C51.2909 162.748 51.218 163.288 51.1279 163.807L51.0794 164.062L50.5933 164.104C47.9298 164.299 44.5459 164.15 40.7122 163.396C35.0955 162.29 29.5665 160.06 24.3922 156.442L23.7695 155.999C23.1494 155.549 22.5369 155.08 21.9323 154.592L21.5484 154.278L21.6816 154.031L21.8458 153.743C22.1307 153.255 22.4638 152.749 22.8453 152.242Z" fill="black"/>
<path fill-rule="evenodd" clip-rule="evenodd" d="M52.6573 145.79C52.6573 146.664 51.3853 152.706 51.3853 152.706C51.3853 152.706 46.2983 153.898 43.2773 150.202C43.2773 150.202 44.5293 144.697 45.2443 144.3C45.6173 144.093 46.2363 145.713 48.3253 146.346C50.2493 146.93 52.6573 145.371 52.6573 145.79" fill="white"/>
<path fill-rule="evenodd" clip-rule="evenodd" d="M44.3103 145.227C44.5737 144.536 44.8033 144.132 45.0691 143.984C45.3992 143.801 45.6012 143.931 45.9864 144.328L46.3224 144.678L46.5218 144.874C46.6282 144.974 46.7337 145.067 46.8442 145.156C47.3068 145.531 47.8193 145.815 48.43 146C48.7001 146.082 48.9953 146.12 49.3152 146.117C49.883 146.112 50.482 145.986 51.2021 145.754L52.1137 145.447L52.2906 145.396C52.3956 145.369 52.481 145.356 52.5607 145.356C52.8036 145.358 53.0183 145.509 53.0183 145.79C53.0183 145.831 53.016 145.882 53.0115 145.941L52.9913 146.146L52.9367 146.551L52.8846 146.885L52.7445 147.698L52.5057 148.975L52.0865 151.092L51.7386 152.78C51.7094 152.919 51.6021 153.027 51.464 153.058L51.2377 153.104C50.4646 153.249 49.4142 153.318 48.2368 153.178C46.1618 152.931 44.3422 152.075 42.9978 150.43C42.9274 150.344 42.9006 150.23 42.9253 150.122L43.0662 149.525L43.2796 148.667C43.4127 148.145 43.551 147.63 43.6911 147.14C43.8539 146.572 44.0119 146.064 44.1629 145.632L44.3103 145.227ZM45.8499 145.227L45.3424 144.708C45.3165 144.75 45.2872 144.803 45.2551 144.866L45.1511 145.086L45.0345 145.362L44.9091 145.689L44.756 146.13C44.7262 146.219 44.696 146.312 44.6657 146.407L44.4801 147.013L44.3852 147.339C44.2011 147.982 44.0197 148.672 43.8492 149.363L43.6694 150.105L43.7632 150.214C44.8851 151.466 46.3419 152.163 48.0073 152.418L48.322 152.461C49.3172 152.579 50.2169 152.537 50.9018 152.43L51.0804 152.398L51.3789 150.948L51.6671 149.506L51.9545 148.003L52.1207 147.074L52.2345 146.366L52.2624 146.158L51.6266 146.374L51.1352 146.531C50.4743 146.727 49.8946 146.834 49.3216 146.839C48.9319 146.843 48.5644 146.796 48.2204 146.691C47.5159 146.478 46.9217 146.148 46.3896 145.717C46.2024 145.566 46.0295 145.407 45.8499 145.227Z" fill="black"/>
<path fill-rule="evenodd" clip-rule="evenodd" d="M36.8979 149.904C37.2259 149.278 30.3159 147.94 29.2369 149.367C28.2229 150.709 30.1989 152.149 31.9199 150.888C33.7379 149.556 36.5699 150.53 36.8979 149.904" fill="white"/>
<path fill-rule="evenodd" clip-rule="evenodd" d="M88.0399 145.496H86.7879C87.9799 142.497 86.1319 137.048 86.1319 137.048L96.2909 134.289C96.2909 134.289 108.132 145.872 97.4599 162.26H94.5649C94.5649 162.26 85.8039 159.018 87.1459 149.947C88.4569 141.08 91.5579 139.946 91.5579 139.946" fill="white"/>
<path fill-rule="evenodd" clip-rule="evenodd" d="M96.5433 134.031C96.4518 133.941 96.3198 133.907 96.1963 133.94L86.0373 136.699L85.9662 136.727C85.8109 136.807 85.7315 136.991 85.79 137.164L85.8717 137.419L86.0421 137.999C86.1332 138.325 86.2232 138.674 86.3086 139.04C86.567 140.146 86.7447 141.239 86.8051 142.255C86.8794 143.504 86.7708 144.561 86.4524 145.362L86.432 145.434C86.3939 145.648 86.5583 145.857 86.7879 145.857L87.6274 145.857L87.5571 146.112C87.2544 147.233 86.9963 148.491 86.7888 149.894C86.1469 154.233 87.6536 157.636 90.5474 160.174C91.396 160.919 92.3041 161.531 93.2125 162.021C93.531 162.192 93.8273 162.337 94.094 162.455L94.1858 162.495L94.4396 162.598L94.5649 162.621H97.4599L97.5318 162.614C97.6256 162.594 97.7091 162.539 97.7624 162.457C103.689 153.356 103.427 145.013 99.4182 137.961C98.7926 136.861 98.1222 135.891 97.451 135.059C97.2153 134.768 96.996 134.513 96.7986 134.298L96.671 134.161L96.5433 134.031ZM86.5894 137.297L96.1794 134.693L96.5635 135.121C96.6674 135.242 96.7763 135.373 96.8892 135.513C97.5368 136.315 98.1851 137.253 98.7905 138.318L98.9698 138.639C102.621 145.293 102.83 153.09 97.4234 161.648L97.2614 161.899H94.6324L94.5421 161.862L94.1932 161.707C93.995 161.614 93.7813 161.507 93.5551 161.385C92.692 160.92 91.8284 160.338 91.0235 159.631C88.3026 157.244 86.8999 154.076 87.503 150C87.9338 147.086 88.5835 144.83 89.3901 143.152C89.9167 142.056 90.4749 141.278 91.0257 140.761C91.3405 140.466 91.5713 140.325 91.6819 140.285L91.4339 139.607L91.3348 139.647C90.6288 139.956 89.6699 140.903 88.7394 142.839L88.5929 143.153C88.3518 143.687 88.1257 144.272 87.9162 144.909L87.8434 145.135H87.2884L87.2977 145.106C87.5237 144.287 87.5913 143.313 87.5259 142.212C87.4627 141.15 87.2787 140.019 87.0117 138.875C86.8945 138.374 86.7689 137.903 86.6432 137.477L86.5894 137.297Z" fill="black"/>
<path d="M93.5032 135.152L94.0234 134.651L94.1505 134.789L94.278 134.933C94.4756 135.159 94.6952 135.425 94.9313 135.729C95.6041 136.595 96.2762 137.593 96.9035 138.711C100.96 145.942 101.196 154.002 95.1343 162.106L94.8501 162.48L94.2785 162.039C100.436 154.062 100.262 146.174 96.2738 139.065C95.665 137.979 95.0128 137.011 94.3612 136.172L94.1938 135.96L93.8798 135.577L93.5319 135.182L93.5032 135.152Z" fill="black"/>
<path fill-rule="evenodd" clip-rule="evenodd" d="M94.5644 162.259H97.4594C108.25 145.931 96.2904 134.288 96.2904 134.288L93.7634 134.901C93.7634 134.901 105.746 147.004 94.5644 162.259" fill="white"/>
<path fill-rule="evenodd" clip-rule="evenodd" d="M96.5422 134.03C96.4532 133.943 96.326 133.908 96.2053 133.938L93.6783 134.551L93.6021 134.578C93.39 134.683 93.3292 134.973 93.505 135.154L93.6352 135.29L93.8906 135.575C93.9806 135.678 94.0753 135.791 94.174 135.911L94.4818 136.299C94.7474 136.643 95.0346 137.04 95.3341 137.486C96.4866 139.203 97.4533 141.141 98.1063 143.264C99.9456 149.245 99.0121 155.581 94.2733 162.046C94.0985 162.284 94.2688 162.62 94.5644 162.62H97.4594L97.5309 162.613C97.624 162.594 97.7071 162.539 97.7606 162.458C103.755 153.388 103.493 145.044 99.4435 137.971C98.8122 136.869 98.1355 135.896 97.4581 135.062C97.2202 134.769 96.999 134.514 96.7998 134.298L96.671 134.161L96.5422 134.03ZM94.4405 135.108L96.1745 134.688L96.415 134.949C96.5649 135.117 96.7266 135.307 96.8976 135.517C97.5514 136.322 98.2059 137.263 98.8169 138.33L98.9981 138.652C102.686 145.324 102.895 153.12 97.4272 161.647L97.2635 161.898H95.2655L95.4114 161.69C99.8043 155.304 100.627 149.003 98.7964 143.052C98.1212 140.856 97.1233 138.856 95.9336 137.084L95.7491 136.812C95.3222 136.194 94.9224 135.676 94.5754 135.264L94.4405 135.108Z" fill="black"/>
<path fill-rule="evenodd" clip-rule="evenodd" d="M91.1401 147.303C90.4371 146.675 86.9631 155.501 90.4251 156.186C91.8701 156.472 92.2731 154.104 91.3191 152.588C90.1451 150.723 91.4341 147.566 91.1401 147.303" fill="white"/>
<path fill-rule="evenodd" clip-rule="evenodd" d="M86.1321 137.048C86.1321 137.048 79.7831 137.585 79.7831 137.942C79.7831 138.126 80.9951 139.699 81.1241 141.668C81.2451 143.527 79.8421 144.679 79.8561 145.254C79.8671 145.701 86.7881 145.496 86.7881 145.496C86.7881 145.496 88.0701 143.606 86.1321 137.048" fill="white"/>
<path fill-rule="evenodd" clip-rule="evenodd" d="M85.1063 136.778L86.1017 136.688C86.2724 136.674 86.4298 136.781 86.4783 136.946C87.6344 140.858 87.7891 143.481 87.3436 145.07C87.2552 145.385 87.1609 145.59 87.0869 145.699C87.0218 145.795 86.9147 145.853 86.7988 145.857L86.2969 145.87L85.1662 145.891C84.5369 145.901 83.9133 145.905 83.3211 145.904L82.0614 145.895L81.6419 145.887L81.0961 145.868L80.7849 145.85L80.5133 145.827C80.4712 145.822 80.4306 145.818 80.3916 145.813L80.1753 145.78L79.9932 145.741C79.6342 145.647 79.501 145.498 79.4952 145.263C79.49 145.049 79.5704 144.847 79.7391 144.555L80.1809 143.826C80.6091 143.083 80.8123 142.436 80.7639 141.692C80.7137 140.926 80.4889 140.168 80.1319 139.402C80.1211 139.379 80.1077 139.351 80.0923 139.32L79.6179 138.408L79.5008 138.165C79.4524 138.058 79.4221 137.977 79.4221 137.942C79.4221 137.633 79.5516 137.524 80.0951 137.409L80.3764 137.354L80.939 137.259L81.4241 137.188L81.9754 137.115L82.9172 137.002L83.9933 136.887L85.1063 136.778ZM86.004 137.916L85.8675 137.433L84.0672 137.605L82.998 137.72L82.0698 137.83L81.5279 137.902L81.0532 137.972L80.6705 138.036L80.3773 138.094L80.2705 138.119L80.3016 138.171L80.4686 138.47L80.6505 138.818L80.7367 138.992L80.9266 139.412C81.2376 140.149 81.4347 140.887 81.4844 141.645C81.5435 142.553 81.2995 143.331 80.8066 144.187L80.7167 144.338L80.3873 144.878L80.2915 145.049L80.3353 145.057C80.4548 145.075 80.6041 145.092 80.7808 145.106L80.9665 145.12L81.389 145.143L81.8724 145.161L82.4131 145.173L83.3231 145.182C84.1066 145.184 84.947 145.175 85.7824 145.159L86.5605 145.141L86.5838 145.08L86.6484 144.875C87.0252 143.531 86.924 141.28 86.004 137.916Z" fill="black"/>
<path fill-rule="evenodd" clip-rule="evenodd" d="M73.4928 129.357L67.6208 129.655C67.6208 129.655 66.5178 136.422 68.9618 141.132C71.2418 145.524 80.1508 144.571 80.1508 144.571C82.3668 142.198 80.1978 138.659 80.1978 138.659C80.1978 138.659 75.3788 139.873 73.9998 137.048C72.7778 134.544 73.4928 129.357 73.4928 129.357" fill="white"/>
<path fill-rule="evenodd" clip-rule="evenodd" d="M67.6025 129.295L73.4745 128.997C73.7006 128.985 73.8813 129.182 73.8504 129.406L73.7968 129.859L73.7485 130.365C73.6477 131.528 73.6123 132.727 73.6806 133.841C73.7586 135.114 73.9679 136.16 74.3242 136.89C74.7776 137.819 75.6924 138.33 76.9638 138.498C77.7659 138.604 78.6336 138.564 79.4716 138.432C79.5213 138.424 79.5688 138.417 79.6141 138.409L79.9577 138.344L80.1096 138.309C80.2627 138.27 80.4231 138.336 80.5056 138.47L80.5725 138.586L80.667 138.763C80.7838 138.989 80.9002 139.243 81.0089 139.519C81.4293 140.589 81.6199 141.684 81.4462 142.723C81.3154 143.505 80.9796 144.213 80.4146 144.817C80.3554 144.881 80.2754 144.921 80.1892 144.93L80.0188 144.946L79.6149 144.975C77.9108 145.08 76.0188 145.022 74.2252 144.678C71.5429 144.165 69.572 143.091 68.6414 141.298C68.0881 140.232 67.6859 139.019 67.418 137.686C66.9529 135.372 66.9183 132.917 67.1373 130.645C67.1442 130.573 67.1512 130.504 67.1584 130.436L67.2241 129.879L67.2645 129.597C67.2919 129.429 67.4326 129.303 67.6025 129.295ZM73.0834 129.74L67.9354 130.001L67.9225 130.104L67.856 130.714C67.6432 132.922 67.6769 135.309 68.1259 137.544C68.3812 138.814 68.7624 139.964 69.2822 140.966C70.0895 142.521 71.874 143.493 74.361 143.969C76.0857 144.299 77.9215 144.356 79.5705 144.254L79.7174 144.245L79.9734 144.225L80.035 144.156C80.3641 143.755 80.579 143.307 80.6919 142.817L80.7341 142.604C80.8829 141.714 80.7137 140.742 80.3369 139.783C80.2377 139.531 80.1314 139.299 80.0255 139.094L80.0124 139.069L79.8776 139.095L79.5836 139.145C78.6828 139.287 77.7496 139.33 76.8692 139.213C75.3803 139.017 74.2511 138.386 73.6754 137.206C73.2695 136.375 73.0433 135.245 72.96 133.886C72.8892 132.731 72.9256 131.499 73.0292 130.303L73.0834 129.74Z" fill="black"/>
<path fill-rule="evenodd" clip-rule="evenodd" d="M101.917 43.1625C101.917 43.1625 96.0775 110.821 91.5175 119.016C87.7755 125.741 76.8555 130.153 62.9255 130.248C48.8795 130.344 38.2195 126.743 34.1035 120.88C27.4265 111.367 24.7045 41.9705 24.7045 41.9705C24.7045 41.9705 42.3275 50.1165 64.3845 50.4475C86.4405 50.7785 101.917 43.1625 101.917 43.1625" fill="white"/>
<path fill-rule="evenodd" clip-rule="evenodd" d="M24.4724 44.9544L24.3438 41.9847C24.3332 41.7152 24.6111 41.5297 24.856 41.6429L25.6789 42.003L26.6154 42.3915L27.3092 42.6689L28.0573 42.9596C30.6428 43.9506 33.5825 44.9418 36.8215 45.8671C45.6275 48.3828 54.9465 49.9449 64.3899 50.0866C74.177 50.2335 83.3932 48.8536 91.7417 46.4632C94.5168 45.6687 96.992 44.8176 99.1348 43.9669L99.8519 43.677L100.504 43.403L101.227 43.0857L101.758 42.8386C102.01 42.7145 102.301 42.9136 102.277 43.1936L101.837 48.0971L101.435 52.4078L100.969 57.2492C100.902 57.9401 100.834 58.6308 100.765 59.321L100.351 63.4531L99.9275 67.5592C99.8562 68.2406 99.7846 68.9204 99.7127 69.5983L99.2775 73.6406L98.8352 77.6241C98.6867 78.9406 98.5371 80.2452 98.3866 81.5356L98.032 84.5337L97.6456 87.7057L97.1105 91.9267L96.7327 94.7811L96.3587 97.4983L95.9886 100.076L95.6955 102.035L95.3327 104.354L95.0456 106.102L94.6906 108.153L94.4798 109.31L94.2705 110.412L93.9941 111.793L93.7206 113.073L93.5176 113.966L93.2495 115.065L93.0505 115.821L92.9188 116.291L92.788 116.735L92.6579 117.151L92.5287 117.541L92.4003 117.903L92.2727 118.238C92.2516 118.292 92.2304 118.344 92.2093 118.395L92.083 118.688L91.9575 118.954L91.8329 119.191C87.9831 126.11 76.8608 130.514 62.928 130.609C48.9238 130.704 38.0528 127.133 33.808 121.087C33.628 120.83 33.4501 120.532 33.2743 120.193L33.0993 119.839C33.0702 119.778 33.0412 119.716 33.0123 119.653L32.8393 119.259C32.8106 119.191 32.782 119.122 32.7534 119.052L32.5825 118.618L32.4131 118.157L32.245 117.669L32.0783 117.156L31.913 116.616L31.7491 116.05L31.5865 115.459L31.4253 114.841L31.2654 114.199L31.0281 113.188L30.7938 112.121L30.6393 111.379L30.4861 110.612L30.2588 109.416L30.0344 108.167L29.8864 107.304L29.7397 106.417L29.5221 105.044L29.3074 103.618L29.1659 102.639L28.9559 101.128L28.6804 99.0348L28.477 97.407L28.2764 95.7302L28.0132 93.4194L27.8191 91.6306L27.5644 89.1727L27.3765 87.2753L27.0694 84.0121L26.7255 80.1097C26.0274 71.9024 25.4392 63.1952 24.9561 54.4882L24.9024 53.5107L24.7512 50.6675L24.6151 47.9677L24.4724 44.9544ZM25.6981 42.7945L25.0884 42.5346L25.2942 47.0673L25.4252 49.7144L25.5712 52.5092L25.7903 56.4557C26.2891 65.1531 26.8934 73.8119 27.6078 81.9313L27.785 83.9094L28.0864 87.1117L28.209 88.3589L28.3951 90.193L28.6473 92.5689L28.9043 94.8639L29.1001 96.5311L29.3652 98.6806L29.5671 100.237L29.8403 102.236L30.0483 103.678L30.1884 104.612L30.472 106.411L30.7602 108.119L30.9794 109.338L31.2011 110.505L31.4253 111.618L31.6522 112.677L31.8048 113.352L32.0358 114.319L32.1913 114.932L32.3479 115.52L32.5056 116.083L32.6644 116.621L32.8243 117.132L32.9853 117.618C33.0123 117.697 33.0392 117.774 33.0663 117.851L33.229 118.297C33.2562 118.37 33.2835 118.441 33.3108 118.511L33.4751 118.917C33.5301 119.049 33.5853 119.175 33.6406 119.298L33.8072 119.651L33.9749 119.977C34.1151 120.237 34.2565 120.469 34.399 120.672C38.4769 126.481 49.1317 129.981 62.923 129.887C76.6229 129.793 87.5047 125.485 91.202 118.84L91.3206 118.614L91.4402 118.36L91.5608 118.078L91.6825 117.769L91.8052 117.432L91.9289 117.069L92.0536 116.678L92.2425 116.042L92.4335 115.347L92.6266 114.592L92.7565 114.057L92.953 113.206L93.1516 112.298L93.285 111.661L93.4867 110.66L93.7586 109.238L94.0336 107.72L94.3117 106.106L94.5929 104.399L94.8769 102.6L95.2357 100.224L95.5987 97.7097L95.9655 95.06L96.4106 91.7061L96.8606 88.1671L97.1631 85.7074L97.6694 81.452L98.1177 77.5428C98.2662 76.2271 98.4136 74.8993 98.5598 73.5617L98.9948 69.5216C99.0667 68.8441 99.1382 68.1647 99.2094 67.4836L99.6326 63.3797C99.7024 62.6932 99.7718 62.0056 99.8409 61.3171L100.25 57.1788L100.452 55.1064L100.883 50.5687L101.265 46.424L101.503 43.7526L100.79 44.0663L100.128 44.3442L99.4012 44.638C97.2369 45.4972 94.7391 46.356 91.9404 47.1573C83.5272 49.5662 74.2415 50.9565 64.3791 50.8085C54.8669 50.6658 45.4864 49.0934 36.6231 46.5613C33.3631 45.63 30.4035 44.6321 27.7989 43.6338L27.0438 43.3403L26.3433 43.0602L25.6981 42.7945Z" fill="black"/>
<path fill-rule="evenodd" clip-rule="evenodd" d="M101.917 43.1625C101.425 48.6295 86.4335 51.1225 64.3845 50.4475C36.7385 49.6015 24.7045 47.7065 24.7045 41.9705C24.7045 36.2335 33.7275 32.6605 61.5835 32.6655C84.2785 32.6685 102.409 37.6955 101.917 43.1625" fill="white"/>
<path fill-rule="evenodd" clip-rule="evenodd" d="M59.2646 32.3125L61.5836 32.3045L62.9314 32.3106L64.2693 32.3284L65.5965 32.3577L66.9121 32.3984L68.2156 32.4501C68.4318 32.4597 68.6474 32.4697 68.8625 32.4801L70.1462 32.5483C70.359 32.5605 70.5713 32.5732 70.7829 32.5863L72.0453 32.6703C72.4636 32.7001 72.8794 32.7316 73.2925 32.7647L74.5238 32.8693C74.9315 32.9058 75.3364 32.944 75.7385 32.9838L76.9358 33.1082L78.115 33.2421L79.2753 33.3855C79.6589 33.4348 80.0392 33.4856 80.4161 33.538L81.5365 33.6996C81.7215 33.7273 81.9057 33.7553 82.0889 33.7837L83.1775 33.9585C83.3571 33.9883 83.5357 34.0185 83.7135 34.0491L84.7685 34.2366C85.8121 34.4282 86.8207 34.6323 87.7911 34.8479L88.7486 35.0673L89.68 35.2941C90.4449 35.4863 91.1818 35.686 91.8887 35.8929L92.7225 36.1445L93.5267 36.4027C99.1827 38.2766 102.506 40.6464 102.277 43.1949C102.064 45.5615 99.3988 47.4073 94.6756 48.7002L93.9869 48.8811C93.8698 48.9106 93.7516 48.9399 93.6321 48.9688L92.9019 49.1384C92.654 49.1936 92.4014 49.2477 92.1444 49.3004L91.3597 49.4548L90.5481 49.6017L89.71 49.7408L88.8456 49.8724C88.5531 49.9149 88.2562 49.9562 87.955 49.9962L87.0387 50.1124L86.0967 50.2208C85.9376 50.2382 85.7775 50.2553 85.6162 50.2721L84.6364 50.3689L83.6317 50.4579C83.4622 50.4721 83.2916 50.486 83.12 50.4995L82.0784 50.5768L81.0124 50.6464L79.9224 50.708L78.8086 50.7618L77.6713 50.8077L76.5108 50.8457L75.3272 50.8758L74.1208 50.8979L72.8919 50.9121L71.6408 50.9182L70.3677 50.9164L69.0729 50.9065L67.7566 50.8886L66.419 50.8625L65.0605 50.8284L63.4942 50.7809L60.9243 50.6941L58.455 50.6001L56.0849 50.4988L54.5592 50.4268L52.3514 50.312L50.9328 50.2308L49.5562 50.1457L47.5693 50.0103L46.2961 49.9148L45.0635 49.815L43.8713 49.7107L42.7188 49.6018L41.6058 49.4882L40.5319 49.3698C40.3561 49.3496 40.182 49.3293 40.0094 49.3087L38.9933 49.1829L38.0152 49.0519L37.0747 48.9156L36.1714 48.774L35.3049 48.6269C35.1635 48.6019 35.0237 48.5767 34.8853 48.5513L34.0733 48.3958C27.1916 47.0228 24.3435 44.9983 24.3435 41.9705C24.3435 37.8913 28.5791 35.1529 38.0474 33.6619L38.9801 33.5215C39.1382 33.4987 39.2978 33.4763 39.4587 33.4542L40.4408 33.3254L41.456 33.2044C41.6279 33.1849 41.8013 33.1657 41.9761 33.1468L43.0414 33.0373L44.1405 32.9356L45.2734 32.8415L46.4403 32.7551L47.6416 32.6763C47.8447 32.6638 48.0492 32.6517 48.2551 32.6398L49.5082 32.5725L50.796 32.5127L52.1188 32.4605C52.3422 32.4524 52.5671 32.4447 52.7934 32.4372L54.169 32.3964C54.4013 32.3902 54.635 32.3843 54.8702 32.3788L56.2991 32.3492L57.7639 32.3271L59.2646 32.3125ZM62.9016 33.0325L61.5835 33.0265C61.3257 33.0265 61.0694 33.0267 60.8146 33.0273L59.3037 33.0342L57.8287 33.0484L56.3892 33.0699L54.9851 33.0985L53.6162 33.1344L52.2823 33.1775L50.9831 33.2278L49.7185 33.2853C49.5106 33.2955 49.3041 33.3059 49.0991 33.3167L47.8859 33.385L46.7067 33.4605L45.5614 33.5432L44.4497 33.6331L43.3715 33.7302L42.3264 33.8344C41.9835 33.8704 41.6462 33.9075 41.3143 33.9459L40.3351 34.0644C40.0141 34.1052 39.6985 34.1471 39.3884 34.1902L38.4741 34.3231C38.1747 34.3686 37.8807 34.4153 37.592 34.4632L36.7418 34.6104L35.9234 34.7648L35.1366 34.9263L34.3811 35.0949C34.2578 35.1236 34.1358 35.1526 34.0151 35.1819L33.3062 35.3613C27.6436 36.855 25.0655 39.0618 25.0655 41.9705C25.0655 43.8176 26.4242 45.2722 29.5092 46.4188L30.0394 46.607C30.4947 46.7616 30.9836 46.9102 31.5073 47.0533L32.1524 47.2222C32.5936 47.3331 33.0573 47.4404 33.5439 47.5443L34.2911 47.6976L35.0731 47.8458C35.2064 47.8701 35.3411 47.8942 35.4773 47.9181L36.3123 48.0589L37.183 48.1949L38.0898 48.3261L39.0331 48.4527L40.0133 48.5747C40.1798 48.5946 40.3478 48.6144 40.5174 48.634L41.5536 48.7492L42.6277 48.8602L43.74 48.9668L44.8909 49.0693L46.0807 49.1676L47.9394 49.3077L49.2283 49.3962L50.5575 49.4809L51.9273 49.5619L53.3382 49.6392L55.5324 49.7487L58.6051 49.8828L60.2053 49.9449L61.8488 50.0039L64.3956 50.0867L66.3967 50.1396L68.3524 50.1748L69.6305 50.1883L70.8878 50.1941L72.1238 50.192L73.3385 50.1823L74.5315 50.1649L75.7026 50.1398C75.8959 50.135 76.0883 50.1299 76.2798 50.1244L77.4175 50.088L78.5325 50.0441L79.6247 49.9927C79.8048 49.9835 79.984 49.974 80.1622 49.9642L81.2196 49.9017L82.2534 49.8319L83.2635 49.7548L84.2496 49.6704L85.2113 49.5788C85.3695 49.563 85.5267 49.5468 85.6829 49.5303L86.6076 49.4281L87.5074 49.3187L88.3819 49.2023L89.2309 49.0789C89.3702 49.0577 89.5085 49.0363 89.6457 49.0146L90.4559 48.8808L91.2399 48.7401L91.9975 48.5926C92.1216 48.5675 92.2445 48.5421 92.3663 48.5164L93.0838 48.3587C93.2011 48.3319 93.3173 48.3048 93.4323 48.2774L94.109 48.1097L94.7582 47.9354C94.8641 47.9059 94.9688 47.876 95.0724 47.8458L95.6798 47.6617C99.339 46.506 101.392 44.9787 101.558 43.1302C101.736 41.1484 99.19 39.2142 94.7544 37.5775L94.0385 37.3216C93.9166 37.2793 93.7934 37.2373 93.6689 37.1955L92.9073 36.9474C92.3896 36.7838 91.8521 36.6239 91.2959 36.4679L90.4477 36.2369L89.5722 36.0121C89.424 35.9752 89.2747 35.9385 89.1243 35.9021L88.2091 35.6869L87.2682 35.4783C87.1093 35.4442 86.9494 35.4103 86.7884 35.3767L85.8106 35.1786C85.6457 35.1462 85.4797 35.1141 85.3128 35.0823L84.2997 34.8952C83.7874 34.8035 83.2666 34.7146 82.7378 34.6287L81.6695 34.4609C81.4897 34.4336 81.309 34.4067 81.1275 34.3801L80.0282 34.2245L78.9092 34.0774L77.7713 33.939L76.6151 33.8094C76.4209 33.7885 76.226 33.7681 76.0304 33.748L74.8482 33.6322C74.6498 33.6136 74.4507 33.5955 74.2509 33.5777L73.0443 33.4761L71.8225 33.3842L70.586 33.3023C70.1715 33.2767 69.7547 33.2528 69.3357 33.2306L68.0722 33.1693C67.8606 33.16 67.6484 33.1511 67.4358 33.1426L66.154 33.0973L64.8609 33.063C64.6445 33.0582 64.4276 33.0539 64.2103 33.05L62.9016 33.0325Z" fill="black"/>
<path fill-rule="evenodd" clip-rule="evenodd" d="M93.9541 48.5194C87.2811 49.8544 77.0301 50.8354 64.3841 50.4474C49.4021 49.9894 39.0061 49.2224 32.6241 47.7034C32.6241 47.7034 28.9601 45.4094 33.9551 43.3504C50.3581 36.5894 79.7831 40.1154 90.3751 43.2054C95.7901 44.7844 98.2411 47.6614 93.9541 48.5194" fill="black"/>
<path fill-rule="evenodd" clip-rule="evenodd" d="M30.9726 45.9366C30.8878 44.8394 31.7919 43.8516 33.8175 43.0166C41.3435 39.9146 52.088 38.7398 64.3584 39.2231C65.7048 39.2761 67.0585 39.3498 68.4077 39.4421L69.7549 39.5404L71.0964 39.6506L72.4295 39.7721L73.7517 39.9045L75.0603 40.0473C75.2772 40.0719 75.4933 40.0969 75.7087 40.1224L76.992 40.2798L78.2551 40.4463L79.4953 40.6214C79.7 40.6513 79.9036 40.6816 80.1061 40.7121L81.3071 40.8993L82.4788 41.0939L83.6184 41.2955L84.7232 41.5035L85.7908 41.7174C85.9655 41.7535 86.1385 41.7899 86.3097 41.8264L87.3163 42.0483C88.4656 42.3101 89.5252 42.5814 90.4762 42.8588C93.1759 43.6461 95.2584 44.7843 96.0935 45.9188C97.0853 47.2659 96.2821 48.4216 94.0249 48.8734C90.9788 49.4828 87.4738 49.971 83.625 50.3147L82.1659 50.4368C76.758 50.8593 70.7274 51.0032 64.373 50.8082L63.6302 50.7851L60.7477 50.6878L58.0048 50.5823L55.398 50.468L53.53 50.3763L51.1526 50.2457L50.0115 50.1767L48.9014 50.1052L47.2937 49.993L45.7534 49.8748L44.7632 49.7926L43.332 49.6639L41.9641 49.5286L41.0867 49.4348L40.2364 49.3378L39.0106 49.1866L38.2259 49.0818L37.4668 48.9738L36.7327 48.8625L36.0231 48.7478L35.3378 48.6297C35.2255 48.6097 35.1143 48.5896 35.004 48.5694L34.354 48.446L33.7271 48.3192L33.1227 48.1887L32.5405 48.0546L32.4325 48.0094L32.3423 47.949L32.1985 47.8434C31.5275 47.328 31.0309 46.6909 30.9726 45.9366ZM68.3564 40.1623C67.0149 40.0706 65.6688 39.9972 64.33 39.9445C52.1542 39.4649 41.5037 40.6295 34.0927 43.6842C32.3236 44.4134 31.637 45.1635 31.6925 45.881C31.7307 46.3754 32.1157 46.8694 32.6347 47.2681L32.7694 47.3666L33.2841 47.485L33.8828 47.6141L34.5043 47.7398L35.1489 47.8619L35.8171 47.9806L36.5094 48.096L37.5939 48.2627L38.3483 48.3699L39.5279 48.5246L40.3471 48.6239L41.193 48.7201L42.5128 48.8588L43.8952 48.9909L45.3416 49.1167L47.3723 49.2748L48.4325 49.3498L50.6445 49.4922L52.3856 49.5924L54.8192 49.7176L57.3843 49.8337L60.0843 49.941L62.9228 50.04L65.2557 50.1109C71.551 50.2745 77.5084 50.1036 82.8288 49.6589L84.2638 49.5308C87.8107 49.194 91.0488 48.7325 93.8832 48.1654C95.6924 47.8033 96.1256 47.1801 95.5121 46.3468C94.7915 45.3679 92.8356 44.2989 90.274 43.552C89.3327 43.2773 88.2827 43.0086 87.1429 42.7492L86.1445 42.5293C85.8046 42.4568 85.4579 42.3851 85.1047 42.3144L84.0262 42.1052L82.9116 41.902L81.7637 41.7054L80.5849 41.5159C79.9883 41.423 79.3811 41.3329 78.7649 41.2459L77.5208 41.0762L76.2551 40.9153C76.0425 40.8892 75.8291 40.8636 75.615 40.8383L74.322 40.6915C74.1051 40.6679 73.8877 40.6447 73.6697 40.6219L72.3552 40.4903C71.4749 40.4061 70.5873 40.3292 69.6959 40.26L68.3564 40.1623Z" fill="black"/>
<path d="M67.3854 57.4255C69.5522 56.1592 71.8504 56.7669 74.0403 58.5127C74.5126 58.8891 74.9425 59.2918 75.3224 59.6947L75.5291 59.9193L75.6898 60.1031L75.8027 60.2406L75.2354 60.6872L75.0679 60.4874L74.8985 60.2988C74.8665 60.2641 74.8327 60.2278 74.7971 60.19C74.4393 59.8106 74.034 59.4309 73.5903 59.0772C71.6076 57.4967 69.602 56.9663 67.7497 58.0488C67.5196 58.1833 67.2925 58.3427 67.0684 58.5279L66.8453 58.7217L66.3588 58.1882C66.6916 57.8847 67.0341 57.6309 67.3854 57.4255Z" fill="black"/>
<path d="M51.8964 57.1677C53.8483 56.0873 55.9511 56.0215 57.9042 57.65C58.4337 58.0915 58.9386 58.652 59.4168 59.3376L59.6201 59.639L59.0153 60.0334C58.5154 59.2669 57.9895 58.6611 57.4419 58.2045C55.7499 56.7938 53.9616 56.8497 52.2461 57.7994C51.9771 57.9483 51.7346 58.1078 51.5232 58.2668L51.3664 58.3893L51.2727 58.4693L50.7847 57.9371L50.9043 57.8345L51.0892 57.6899C51.3262 57.5115 51.5966 57.3337 51.8964 57.1677Z" fill="black"/>
<path d="M52.2505 107.07C52.9613 109.203 54.375 110.381 56.3121 110.818C57.5443 111.096 58.8737 111.05 60.1422 110.805L60.4489 110.741L60.7009 110.682L60.9673 110.607L61.1847 111.296L61.0008 111.349L60.755 111.412L60.4515 111.479C60.3964 111.491 60.339 111.502 60.2795 111.514C58.9213 111.777 57.4969 111.826 56.1533 111.523C54.0632 111.051 52.4854 109.785 51.6608 107.568L51.5655 107.298L52.2505 107.07Z" fill="black"/>
<path d="M63.4838 79.9614C66.9047 78.9289 70.2199 79.5756 73.227 81.2766C73.9223 81.6699 74.5454 82.0913 75.088 82.5133L75.3447 82.7177L75.5522 82.8914L75.7687 83.0862L75.2695 83.6078L75.153 83.5012L74.9862 83.3581L74.7705 83.1822C74.7306 83.1504 74.6886 83.1173 74.6447 83.0832C74.1288 82.6819 73.5346 82.2801 72.8716 81.905C70.1236 80.3507 67.1234 79.729 64.0358 80.5549L63.6924 80.6526L63.4838 79.9614Z" fill="black"/>
<path fill-rule="evenodd" clip-rule="evenodd" d="M74.1014 82.2434C74.1014 82.2434 78.3444 70.1654 73.3934 65.0644C73.3934 65.0644 70.2694 62.4494 67.4654 65.1264C64.3574 68.0934 64.2624 76.5714 64.8554 80.0044C64.8554 80.0044 69.7164 78.6374 74.1014 82.2434" fill="white"/>
<path fill-rule="evenodd" clip-rule="evenodd" d="M67.2162 64.8653C67.4883 64.6055 67.7706 64.3856 68.0619 64.2044C69.5603 63.2728 71.1573 63.4033 72.6574 64.1711C72.9167 64.3038 73.1513 64.446 73.3579 64.5887C73.4839 64.6757 73.5742 64.745 73.6525 64.813C75.3759 66.5886 76.1462 69.2448 76.1546 72.5375C76.1602 74.6986 75.8384 77.0069 75.2991 79.3127C75.1122 80.1117 74.9119 80.8534 74.7115 81.5193L74.572 81.9707L74.442 82.3631C74.3589 82.5997 74.0658 82.6816 73.8721 82.5223C72.1602 81.1145 70.2575 80.3798 68.2811 80.1713C66.9882 80.0348 65.8687 80.1358 65.0533 80.327L64.9644 80.349L64.876 80.365C64.6971 80.3754 64.5316 80.2505 64.4997 80.0659C63.6225 74.9878 64.4939 67.4641 67.2162 64.8653ZM73.1617 65.3413C73.0101 65.2144 72.7211 65.0148 72.3285 64.8138C71.0322 64.1503 69.6924 64.0408 68.4432 64.8175C68.1945 64.9722 67.9515 65.1615 67.7147 65.3876C65.329 67.665 64.4499 74.4414 65.1092 79.2809L65.1505 79.5677L65.3564 79.5294C66.0994 79.4009 67.0033 79.3437 68.0155 79.422L68.3569 79.4532C70.2192 79.6497 72.0236 80.285 73.6774 81.4638L73.9175 81.6417L73.9485 81.5461L74.1378 80.9111C74.2944 80.366 74.4494 79.7752 74.5961 79.1483C75.1237 76.8927 75.438 74.6374 75.4326 72.5393C75.4246 69.4162 74.7047 66.9338 73.1617 65.3413Z" fill="black"/>
<path fill-rule="evenodd" clip-rule="evenodd" d="M74.1014 82.2435C74.1014 82.2435 78.5334 70.6835 73.3934 65.0645C72.6834 64.2875 68.2494 62.0955 67.7574 71.3735C67.7574 71.3735 70.3324 71.9385 70.1754 74.7645C70.1754 74.7645 68.5424 72.9515 67.2234 73.4925C67.2234 73.4925 66.5804 75.8945 67.3924 79.8345C67.3924 79.8345 69.6694 79.0145 74.1014 82.2435" fill="black"/>
<path d="M48.0068 82.4848C52.1539 79.7979 56.1561 79.2946 59.5317 80.0485C59.7511 80.0975 59.9514 80.1493 60.1317 80.2019L60.4 80.2854L60.5428 80.3354L60.5906 80.3537L60.3216 81.0237L60.1705 80.9686L59.9611 80.9029L59.6952 80.83L59.3744 80.7532C56.2764 80.0613 52.6084 80.4888 48.7712 82.8556L48.3994 83.0907L48.0068 82.4848Z" fill="black"/>
<path fill-rule="evenodd" clip-rule="evenodd" d="M59.5997 80.4354C59.5997 80.4354 62.2147 70.1654 57.2637 65.0644C57.2637 65.0644 54.1397 62.4494 51.3357 65.1264C48.2277 68.0934 48.2157 76.5364 49.7547 81.8854C49.7547 81.8854 54.3297 79.3424 59.5997 80.4354" fill="white"/>
<path fill-rule="evenodd" clip-rule="evenodd" d="M51.0864 64.8653C51.3586 64.6055 51.6408 64.3856 51.9322 64.2044C53.4306 63.2728 55.0276 63.4033 56.5277 64.1711C56.7869 64.3038 57.0216 64.446 57.2282 64.5887C57.3542 64.6757 57.4445 64.745 57.5227 64.813C59.1002 66.4383 60.0343 68.6493 60.4313 71.2931C60.7922 73.6963 60.6899 76.258 60.3013 78.7207C60.2248 79.2055 60.1428 79.6461 60.0607 80.0347L60.0067 80.2827L59.9495 80.5245C59.9019 80.7116 59.7154 80.8281 59.5264 80.7889C57.5475 80.3785 55.5272 80.4591 53.5436 80.9103C52.193 81.2175 51.0362 81.6509 50.1559 82.0849L49.9301 82.201C49.7271 82.3138 49.472 82.2084 49.4078 81.9853C47.6216 75.7773 48.1331 67.6846 51.0864 64.8653ZM57.032 65.3413C56.8804 65.2144 56.5914 65.0148 56.1987 64.8138C54.9025 64.1503 53.5627 64.0408 52.3134 64.8175C52.0647 64.9722 51.8217 65.1615 51.585 65.3876C48.9816 67.8729 48.4234 75.214 49.913 81.0882L49.9854 81.3657L50.1216 81.3012C50.9097 80.9363 51.871 80.5831 52.9665 80.3064L53.3834 80.2063C55.3467 79.7598 57.3496 79.6594 59.3256 80.0147L59.3254 80.0157L59.673 80.082C59.5573 80.058 59.4415 80.0356 59.3256 80.0147L59.414 79.5933C59.4735 79.2917 59.5323 78.9622 59.5881 78.6082C59.9662 76.2122 60.0657 73.7203 59.7173 71.4003C59.3409 68.8941 58.4649 66.8204 57.032 65.3413Z" fill="black"/>
<path fill-rule="evenodd" clip-rule="evenodd" d="M59.5997 80.4354C59.5997 80.4354 61.8137 68.5174 57.2637 65.0644C56.4257 64.4284 52.1807 62.0184 51.6887 71.2964C51.6887 71.2964 54.2637 71.8614 54.1067 74.6874C54.1067 74.6874 52.4737 72.8744 51.1547 73.4144C51.1547 73.4144 51.1497 77.2484 51.9617 81.1884C51.9617 81.1884 55.1897 79.2784 59.5997 80.4354" fill="black"/>
<path d="M68.9753 86.7506L69.4409 87.3024L69.3087 87.4093L69.1255 87.5485L68.8925 87.7164C68.8496 87.7466 68.8047 87.7779 68.7577 87.8101C68.2142 88.1837 67.5909 88.5567 66.8967 88.9047C62.6643 91.0264 58.0553 91.2676 53.5461 88.4257L53.2316 88.2224L53.6306 87.6206C57.9967 90.515 62.4537 90.3243 66.5731 88.2592C67.2364 87.9267 67.8314 87.5706 68.3488 87.2151L68.6912 86.9717L68.8584 86.8449L68.9753 86.7506Z" fill="black"/>
<path d="M68.5886 85.6765C68.8861 86.2219 69.2683 86.64 69.7164 86.9491C70.1045 87.2168 70.5213 87.3893 70.9379 87.4851C71.1354 87.5305 71.2948 87.5514 71.4001 87.5579L71.4687 87.5603V88.2823C70.9127 88.2823 70.1101 88.0978 69.3065 87.5435C68.8342 87.2177 68.4234 86.7921 68.0919 86.2578L67.9548 86.0221L68.5886 85.6765Z" fill="black"/>
<path d="M54.1807 86.7622L54.8595 87.0083C54.7741 87.2437 54.5912 87.5746 54.2829 87.9049C53.6953 88.5344 52.887 88.8751 51.8577 88.7769L51.6337 88.7491L51.7425 88.0354C52.6331 88.1711 53.282 87.9191 53.7551 87.4123C53.9493 87.2042 54.0773 86.9965 54.1463 86.8455L54.1807 86.7622Z" fill="black"/>
<path fill-rule="evenodd" clip-rule="evenodd" d="M67.7179 88.0441C67.7179 88.0441 70.0909 106.887 59.3179 104.264C53.9019 102.945 54.5199 88.5821 54.5199 88.5821C54.5199 88.5821 59.9169 92.7411 67.7179 88.0441" fill="black"/>
<path fill-rule="evenodd" clip-rule="evenodd" d="M56.2161 89.099C59.3921 90.4417 63.2304 90.3246 67.5317 87.7348C67.7553 87.6002 68.0434 87.74 68.076 87.999L68.1117 88.3196L68.1509 88.7309L68.1888 89.1946C68.3634 91.5134 68.3567 93.9939 68.0461 96.327C67.2194 102.537 64.4729 105.891 59.2325 104.615C56.7636 104.014 55.3417 101.177 54.6553 97.0953L54.5529 96.4407C54.5369 96.3299 54.5213 96.2183 54.5063 96.1059L54.4218 95.4218C54.3956 95.1907 54.3713 94.9565 54.3488 94.7193L54.2872 93.9991C54.2778 93.8776 54.2689 93.7555 54.2605 93.6326L54.2152 92.8876C54.2085 92.7621 54.2023 92.6359 54.1965 92.5092L54.167 91.7412C54.1589 91.4828 54.1525 91.2221 54.1477 90.9591L54.1383 90.1636L54.1383 89.6226L54.1483 88.9235L54.1592 88.5666C54.1718 88.2743 54.5085 88.1176 54.7402 88.2962C54.7519 88.3052 54.7662 88.3158 54.7831 88.3279L54.9151 88.4178L55.1078 88.5386C55.4226 88.729 55.7931 88.9202 56.2161 89.099ZM67.4164 88.6356L67.1957 88.7607C62.9674 91.0771 59.1367 91.1176 55.935 89.764C55.5354 89.5951 55.1779 89.4153 54.8644 89.2335L54.8644 89.2326L54.7342 89.1564C54.7767 89.1822 54.8201 89.2079 54.8644 89.2335L54.8603 89.6247L54.8603 90.1616C54.861 90.2904 54.8622 90.4188 54.8637 90.5467L54.8779 91.308L54.902 92.0568L54.9363 92.792C54.9428 92.9133 54.9498 93.0341 54.9572 93.1542L55.007 93.8673L55.0673 94.5644L55.1383 95.2446L55.2202 95.9069C55.8028 100.261 57.1222 103.358 59.4033 103.913C64.1093 105.059 66.5524 102.075 67.3304 96.2317C67.6334 93.9556 67.64 91.5219 67.4689 89.2488C67.4569 89.0893 67.4444 88.9378 67.4318 88.7951L67.4164 88.6356Z" fill="black"/>
<path fill-rule="evenodd" clip-rule="evenodd" d="M123.922 58.3023C116.844 71.4873 100.624 109.364 98.0352 111.269C95.4472 113.174 91.5692 113.736 89.1032 111.675C87.3662 110.223 86.6982 107.793 86.8402 105.534C86.9822 103.274 87.8222 101.124 88.6522 99.0173L109.272 46.6883C108.359 49.9383 108.142 53.4913 109.353 56.6423C110.564 59.7933 113.397 62.4403 116.755 62.7953C120.112 63.1493 123.716 60.7393 124.116 57.3863C124.516 54.0343 120.942 50.6833 117.743 51.7643C116.161 52.2993 114.9 53.9453 115.191 55.5893C115.303 56.2273 115.698 56.7843 116.218 57.1683C117.04 57.7773 118.172 57.9563 118.991 57.3433C119.033 56.0743 118.218 54.8203 117.041 54.3433L115.732 56.7103" fill="white"/>
<path fill-rule="evenodd" clip-rule="evenodd" d="M108.936 46.556C109.104 46.1304 109.743 46.3455 109.62 46.786C108.632 50.3011 108.598 53.6719 109.69 56.5128C110.916 59.7015 113.718 62.1113 116.793 62.4363C119.02 62.6712 121.278 61.641 122.606 59.9916L122.666 59.9116L123.228 58.8382L123.584 58.1666C123.647 57.9607 123.694 57.7576 123.728 57.5512L123.758 57.3436C124.134 54.1882 120.745 51.131 117.859 52.1063C116.362 52.6126 115.3 54.1354 115.547 55.5269C115.567 55.6419 115.599 55.7553 115.641 55.8659L115.704 56.0126L116.725 54.1686C116.801 54.0316 116.954 53.9617 117.103 53.9876L117.177 54.0088C118.494 54.5426 119.399 55.9349 119.352 57.3553C119.348 57.4648 119.295 57.5667 119.208 57.6324C118.294 58.316 117.003 58.199 116.004 57.4587C115.389 57.0044 114.96 56.3609 114.836 55.6523C114.523 53.8856 115.812 52.0364 117.628 51.4223C121.037 50.2703 124.912 53.7659 124.475 57.4291C124.351 58.463 123.936 59.423 123.318 60.2513L123.275 60.3056L122.576 61.6771L121.634 63.5674L120.749 65.3766L119.086 68.8425L116.932 73.4126L106.878 95.0502L104.705 99.6644L103.375 102.446L102.642 103.956L102.106 105.045L101.159 106.925L100.549 108.091L100.1 108.914L99.7013 109.613L99.4146 110.087L99.1543 110.491L98.9751 110.751L98.8085 110.976L98.6536 111.167L98.5094 111.327L98.4187 111.417L98.2902 111.529L98.2492 111.56C95.3344 113.706 91.3315 114.008 88.8717 111.952C87.1517 110.515 86.3186 108.078 86.4799 105.512C86.5042 105.125 86.5422 104.754 86.5974 104.384L86.6722 103.939C86.8114 103.194 87.0252 102.423 87.3423 101.493L87.5452 100.914L87.7742 100.291L88.1699 99.2584L108.936 46.556ZM108.211 50.4686L108.222 50.3346L88.8449 99.5148L88.5801 100.201L88.3431 100.833L88.1326 101.418L87.947 101.961C87.4844 103.36 87.2743 104.382 87.2005 105.557C87.0525 107.911 87.8089 110.123 89.3347 111.398C91.4478 113.164 94.9399 112.957 97.5833 111.147L97.8212 110.979C97.8449 110.961 97.8693 110.942 97.8946 110.92L98.0135 110.806L98.144 110.66L98.2378 110.544L98.3893 110.341L98.4978 110.185L98.7339 109.825L98.997 109.394L99.3669 108.752L99.7858 107.988L100.159 107.284L100.675 106.282L101.498 104.639L102.447 102.698L104.042 99.3693L106.799 93.5111L115.4 74.9854L117.697 70.0886L119.135 67.0624L120.408 64.4273L121.541 62.1306L121.698 61.8136L121.528 61.9316C120.203 62.8099 118.578 63.2894 116.95 63.1748L116.717 63.1543C113.356 62.799 110.334 60.2007 109.016 56.7719C108.278 54.8509 108.027 52.7152 108.211 50.4686ZM116.173 56.6566L117.191 54.8166L117.222 54.8329C117.985 55.2741 118.524 56.1033 118.617 56.9793L118.629 57.1496L118.506 57.2143C117.892 57.4972 117.093 57.3675 116.433 56.8783L116.281 56.757L116.173 56.6566Z" fill="black"/>
<path fill-rule="evenodd" clip-rule="evenodd" d="M115.304 54.174L111.902 60.45Z" fill="white"/>
<path d="M114.987 54.002L115.621 54.3461L112.219 60.6221L111.585 60.278L114.987 54.002Z" fill="black"/>
<path fill-rule="evenodd" clip-rule="evenodd" d="M118.992 57.3433L116.755 62.7953Z" fill="white"/>
<path d="M118.658 57.2063L119.325 57.4804L117.088 62.9324L116.421 62.6583L118.658 57.2063Z" fill="black"/>
<path d="M113.198 47.5672C113.37 47.143 114.007 47.3646 113.879 47.8039L113.65 48.6029L113.452 49.3322L113.284 50.0025C113.001 51.1837 112.859 52.1208 112.819 53.1093C112.741 55.0328 113.165 56.7956 114.104 58.13C115.138 59.599 116.862 60.4854 118.479 60.3118C120.18 60.1284 121.644 58.6347 121.626 57.0387C121.61 55.5105 120.042 54.1847 118.636 54.4261L118.482 54.4586L118.195 55.0223L117.552 54.6932L117.911 53.9922C117.954 53.9084 118.028 53.8447 118.117 53.8146C120.07 53.1561 122.325 54.9233 122.348 57.0308C122.37 59.0148 120.613 60.8079 118.556 61.0297C116.663 61.2328 114.692 60.2189 113.514 58.5455C112.475 57.0695 112.014 55.1517 112.098 53.08C112.109 52.7972 112.128 52.5192 112.156 52.2397L112.182 51.9936L109.974 57.4473L109.305 57.1762L113.198 47.5672Z" fill="black"/>
<path fill-rule="evenodd" clip-rule="evenodd" d="M121.8 58.1259C121.318 59.4699 119.97 60.5139 118.518 60.6699C116.691 60.8669 114.867 59.8399 113.809 58.3379C112.751 56.8349 112.384 54.9309 112.459 53.0949C112.533 51.2589 113.018 49.4659 113.533 47.7029L109.639 57.3119C109.639 57.3119 112.466 64.0979 119.371 62.5389L121.8 58.1259Z" fill="white"/>
<path fill-rule="evenodd" clip-rule="evenodd" d="M109.304 57.1763L113.198 47.5673C113.37 47.1432 114.008 47.3648 113.879 47.8041C113.839 47.9438 113.799 48.0802 113.761 48.2134L113.548 48.9767C113.086 50.6783 112.87 51.852 112.82 53.1096C112.741 55.0324 113.165 56.7955 114.104 58.13C115.139 59.5998 116.862 60.4854 118.479 60.311C119.421 60.2098 120.34 59.6882 120.937 58.9323L120.975 58.8812C121.242 58.5189 121.799 58.875 121.582 59.2696L119.687 62.7129C119.637 62.8035 119.551 62.8683 119.45 62.891C116.03 63.6634 113.283 62.5691 111.191 60.2856C110.626 59.6681 110.153 59.0077 109.768 58.3468C109.632 58.115 109.518 57.8992 109.423 57.7048L109.383 57.622L109.306 57.4507C109.269 57.363 109.269 57.2644 109.304 57.1763ZM112.157 52.2404L112.182 51.9946L110.03 57.3046L110.157 57.5586C110.199 57.6411 110.248 57.7319 110.304 57.8303L110.391 57.9832C110.752 58.6019 111.195 59.2211 111.724 59.7979C113.652 61.9035 116.146 62.897 119.291 62.1868L119.134 62.2186L120.037 60.5776L119.88 60.6558C119.53 60.8187 119.16 60.9352 118.783 60.9978L118.557 61.0288C116.663 61.233 114.693 60.2199 113.514 58.5457C112.474 57.0693 112.014 55.1511 112.098 53.0804C112.11 52.7977 112.129 52.5198 112.157 52.2404Z" fill="black"/>
<path d="M121.441 58.0604L122.058 58.4349L119.3 62.9819L118.683 62.6074L121.441 58.0604Z" fill="black"/>
<path fill-rule="evenodd" clip-rule="evenodd" d="M118.992 67.9331C118.992 67.9331 112.525 70.5181 108.211 65.4231L98.9105 88.3011C98.9105 88.3011 100.928 92.0551 108.624 90.4641L118.992 67.9331Z" fill="black"/>
<path fill-rule="evenodd" clip-rule="evenodd" d="M98.5761 88.1651L107.876 65.2871C107.978 65.0358 108.311 64.9828 108.486 65.1898C109.457 66.3367 110.586 67.1351 111.843 67.6272C113.781 68.3857 115.861 68.3792 117.815 67.9099C118.103 67.8406 118.363 67.7664 118.589 67.6925L118.681 67.6618L118.858 67.5979C119.16 67.4768 119.456 67.7877 119.319 68.084L108.951 90.615C108.904 90.7192 108.809 90.7944 108.697 90.8176C104.748 91.6339 101.902 91.1689 99.9953 89.878C99.2357 89.3638 98.7903 88.8401 98.5925 88.472C98.5416 88.3772 98.5356 88.2648 98.5761 88.1651ZM108.432 66.2022L108.327 66.0916L99.3154 88.2626L99.4004 88.3759L99.4751 88.4666C99.7092 88.7418 100.015 89.0194 100.4 89.2801C102.138 90.4565 104.785 90.889 108.55 90.1106L108.372 90.1446L118.321 68.5236L118.209 68.5555L117.983 68.612C115.898 69.1127 113.675 69.1197 111.58 68.2996C110.423 67.8466 109.365 67.155 108.432 66.2022Z" fill="black"/>
<path fill-rule="evenodd" clip-rule="evenodd" d="M106.882 60.8113L95.9687 87.5213Z" fill="black"/>
<path d="M106.213 60.5383L107.55 61.0844L96.637 87.7944L95.3003 87.2483L106.213 60.5383Z" fill="black"/>
<path fill-rule="evenodd" clip-rule="evenodd" d="M105.561 93.4041L97.5194 109.131Z" fill="black"/>
<path d="M105.24 93.2397L105.883 93.5685L97.8408 109.295L97.198 108.967L105.24 93.2397Z" fill="black"/>
<path fill-rule="evenodd" clip-rule="evenodd" d="M103.164 93.4439L95.595 109.614Z" fill="black"/>
<path d="M102.837 93.2909L103.491 93.597L95.922 109.767L95.2681 109.461L102.837 93.2909Z" fill="black"/>
<path fill-rule="evenodd" clip-rule="evenodd" d="M100.818 93.4041L93.9541 109.613Z" fill="black"/>
<path d="M100.486 93.2634L101.151 93.5449L94.2865 109.754L93.6217 109.472L100.486 93.2634Z" fill="black"/>
<path fill-rule="evenodd" clip-rule="evenodd" d="M98.9103 92.6887L92.4713 108.985Z" fill="black"/>
<path d="M98.5746 92.556L99.246 92.8214L92.807 109.117L92.1356 108.852L98.5746 92.556Z" fill="black"/>
<path fill-rule="evenodd" clip-rule="evenodd" d="M97.2409 91.8143L94.2199 99.6103Z" fill="black"/>
<path d="M96.9043 91.6839L97.5775 91.9448L94.5565 99.7408L93.8833 99.4799L96.9043 91.6839Z" fill="black"/>
<path fill-rule="evenodd" clip-rule="evenodd" d="M96.2799 90.2215L92.8689 98.5825Z" fill="black"/>
<path d="M95.9457 90.0851L96.6142 90.3579L93.2032 98.7189L92.5347 98.4461L95.9457 90.0851Z" fill="black"/>
<path fill-rule="evenodd" clip-rule="evenodd" d="M94.9357 89.191L91.5177 97.697Z" fill="black"/>
<path d="M94.6007 89.0564L95.2707 89.3256L91.8527 97.8316L91.1827 97.5624L94.6007 89.0564Z" fill="black"/>
<path fill-rule="evenodd" clip-rule="evenodd" d="M106.383 93.4439C106.383 93.4439 98.5126 95.7099 94.2206 88.6349L94.9356 87.0329L99.5266 91.3369L106.383 93.4439Z" fill="white"/>
<path fill-rule="evenodd" clip-rule="evenodd" d="M93.891 88.4878L94.606 86.8858C94.7071 86.6592 95.0015 86.5998 95.1825 86.7695L99.7135 91.0166L106.489 93.0988C106.805 93.1959 106.825 93.6159 106.559 93.7597L106.479 93.7917L106.35 93.8259L106.068 93.89C105.961 93.9123 105.843 93.9352 105.712 93.9582L105.499 93.9935C101.077 94.6863 96.7218 93.4539 93.912 88.8221C93.8505 88.7209 93.8427 88.5959 93.891 88.4878ZM99.2797 91.6003L95.0585 87.6416L94.6275 88.6056L94.7067 88.7319C97.2198 92.646 100.958 93.8131 104.83 93.3569L104.858 93.3526L99.4206 91.682L99.2797 91.6003Z" fill="white"/>
<path fill-rule="evenodd" clip-rule="evenodd" d="M98.5128 108.587C98.5128 108.587 94.2198 110.605 91.5178 108.245L90.5638 110.256L93.9018 110.982L96.8658 110.669L98.5128 108.587Z" fill="white"/>
<path fill-rule="evenodd" clip-rule="evenodd" d="M90.2376 110.101L91.1916 108.09C91.2942 107.874 91.575 107.816 91.7553 107.973C92.3814 108.52 93.1348 108.842 93.9947 108.969C95.0478 109.123 96.1904 108.979 97.3118 108.643C97.5947 108.558 97.8536 108.467 98.0827 108.377C98.1166 108.364 98.1479 108.351 98.1765 108.339L98.3592 108.26C98.7042 108.098 99.0324 108.512 98.7959 108.811L97.1489 110.893C97.0887 110.969 97.0003 111.018 96.9037 111.028L93.9397 111.341L93.8251 111.335L90.4871 110.609C90.2599 110.559 90.138 110.311 90.2376 110.101ZM91.7393 108.871L91.6504 108.807L91.0844 110L93.9224 110.617L96.6764 110.326L97.4434 109.356L97.1875 109.429C96.1906 109.695 95.1806 109.815 94.2113 109.722L93.8898 109.683C93.0971 109.566 92.3739 109.302 91.7393 108.871Z" fill="white"/>
<path fill-rule="evenodd" clip-rule="evenodd" d="M107.893 64.1494C107.893 64.1494 105.853 62.7994 105.562 58.9844L106.383 57.3114L109.639 61.3684L107.893 64.1494Z" fill="white"/>
<path fill-rule="evenodd" clip-rule="evenodd" d="M105.238 58.8254L106.059 57.1524C106.175 56.915 106.499 56.8793 106.664 57.0855L109.92 61.1425C110.017 61.2624 110.026 61.4301 109.945 61.5604L108.199 64.3414C108.091 64.5131 107.863 64.5624 107.694 64.4505C107.357 64.2275 106.876 63.7561 106.403 62.9912C105.757 61.9463 105.325 60.6274 105.202 59.0119L105.238 58.8254ZM109.195 61.3936L106.456 57.9796L105.93 59.0516L105.953 59.2979C106.086 60.5293 106.415 61.553 106.886 62.3884L107.017 62.6116C107.26 63.0047 107.519 63.3245 107.776 63.5764L107.806 63.6056L109.195 61.3936Z" fill="white"/>
<path fill-rule="evenodd" clip-rule="evenodd" d="M97.5192 87.9191C97.5192 87.9191 96.0702 86.5581 95.5952 84.5801L94.5742 87.8411L96.8432 89.7951L97.5192 87.9191Z" fill="white"/>
<path fill-rule="evenodd" clip-rule="evenodd" d="M94.2297 87.7333L95.2507 84.4723C95.3602 84.1226 95.8607 84.1396 95.9462 84.4958C96.1079 85.1691 96.4007 85.8165 96.7874 86.4242C97.0039 86.7645 97.2361 87.0707 97.4677 87.3371L97.616 87.5024L97.7664 87.656C97.8713 87.7546 97.9076 87.9061 97.8588 88.0415L97.1828 89.9175C97.0971 90.1555 96.7994 90.2338 96.6076 90.0687L94.3386 88.1147C94.2295 88.0207 94.1867 87.8707 94.2297 87.7333ZM95.6886 85.9233L95.6095 85.7426L94.9895 87.7216L96.6815 89.1786L97.1025 88.0106L96.9229 87.8108C96.6688 87.5186 96.4151 87.1841 96.1782 86.8119C95.9952 86.5243 95.8309 86.2278 95.6886 85.9233Z" fill="white"/>
<path fill-rule="evenodd" clip-rule="evenodd" d="M91.5175 95.7121C91.5175 95.7121 91.5965 98.2641 94.9355 99.6101L93.2265 102.546L90.2455 98.5831L91.5175 95.7121Z" fill="white"/>
<path fill-rule="evenodd" clip-rule="evenodd" d="M89.9155 98.4369L91.1875 95.5659C91.3413 95.2186 91.8581 95.3139 91.878 95.6932L91.8901 95.8259C91.9319 96.1578 92.0676 96.6035 92.3533 97.0937C92.8717 97.9833 93.7457 98.7413 95.0705 99.2753C95.2745 99.3575 95.3582 99.6016 95.2475 99.7917L93.5385 102.728C93.4086 102.951 93.0932 102.969 92.938 102.763L89.957 98.8001C89.8784 98.6955 89.8625 98.5565 89.9155 98.4369ZM91.5062 97.0284L91.4185 96.8256L90.6615 98.5356L93.1875 101.895L94.4195 99.7786L94.2362 99.6931C93.1576 99.1614 92.3767 98.4652 91.8546 97.6606L91.7295 97.4573C91.6444 97.3112 91.5703 97.1679 91.5062 97.0284Z" fill="white"/>
<path fill-rule="evenodd" clip-rule="evenodd" d="M115.998 98.5095C115.998 98.5095 116.737 96.3165 116.34 95.6165C115.812 94.6865 112.842 92.1985 107.666 93.9475C107.666 93.9475 106.801 94.1855 106.721 96.4905" fill="white"/>
<path d="M107.55 93.6055C111.86 92.1492 115.531 93.4596 116.654 95.4384C116.853 95.7892 116.859 96.3186 116.744 97.0158C116.703 97.2665 116.646 97.5306 116.578 97.8014L116.49 98.1316L116.409 98.4102L116.34 98.6248L115.656 98.3942L115.756 98.0731L115.836 97.7858C115.85 97.7339 115.864 97.6802 115.878 97.625C115.941 97.3723 115.994 97.1273 116.032 96.8981C116.121 96.3585 116.116 95.9534 116.026 95.7947C115.077 94.1228 111.769 92.942 107.762 94.2956C107.73 94.3042 107.629 94.3787 107.5 94.5936C107.291 94.9404 107.142 95.4835 107.093 96.2623L107.082 96.503L106.36 96.478C106.396 95.4545 106.582 94.7175 106.881 94.2209C107.108 93.8443 107.364 93.6562 107.55 93.6055Z" fill="black"/>
<path fill-rule="evenodd" clip-rule="evenodd" d="M106.721 96.4909C114.431 95.4579 116.737 99.3529 116.737 99.3529C116.737 99.3529 119.274 101.737 119.042 104.917C118.983 105.729 119.069 106.962 118.32 107.655C118.999 107.279 119.975 107.01 120.791 107.858C122.778 109.925 120.871 112.071 120.871 112.071C120.871 112.071 119.429 114.044 116.4 113.939L116.441 113.944C116.441 113.944 112.756 117.247 109.085 115.356L109.026 115.41C98.6133 114.854 98.6133 107.54 98.6133 107.54C98.6133 107.54 97.8183 97.6829 106.721 96.4909" fill="white"/>
<path fill-rule="evenodd" clip-rule="evenodd" d="M99.1842 101.823C100.443 98.7139 102.859 96.6438 106.673 96.1331C110.462 95.6255 113.305 96.2198 115.32 97.5323C116.213 98.1141 116.76 98.704 117.022 99.1263L117.185 99.2944L117.373 99.5035C117.656 99.8301 117.938 100.204 118.202 100.621C119.046 101.955 119.514 103.414 119.402 104.943L119.358 105.826L119.335 106.098L119.293 106.408C119.27 106.551 119.241 106.686 119.205 106.815L119.158 106.964L119.283 106.945C119.867 106.875 120.425 107.031 120.919 107.479L121.052 107.608C121.128 107.687 121.199 107.767 121.266 107.848C122.285 109.075 122.256 110.403 121.602 111.625C121.432 111.941 121.262 112.175 121.163 112.284C120.968 112.55 120.593 112.931 120.029 113.307C119.079 113.941 117.927 114.316 116.574 114.304L116.505 114.361L116.266 114.545C115.94 114.788 115.571 115.031 115.164 115.258C113.165 116.37 111.072 116.702 109.094 115.763L109.079 115.767L109.007 115.77C104.392 115.524 101.373 113.972 99.6677 111.543C98.6238 110.056 98.2614 108.582 98.2523 107.545L98.2356 107.142C98.2253 106.615 98.2497 105.986 98.3289 105.289C98.464 104.098 98.7381 102.924 99.1842 101.823ZM116.099 99.121C115.797 98.7875 115.409 98.452 114.925 98.1373C113.059 96.9214 110.391 96.3636 106.769 96.8488C103.226 97.3231 101.02 99.2141 99.8534 102.094C99.4338 103.13 99.1745 104.24 99.0463 105.37C98.9585 106.144 98.9415 106.827 98.9648 107.365L98.9844 107.747L99.0138 108.01C99.0407 108.203 99.0829 108.429 99.1451 108.682C99.3487 109.511 99.7075 110.344 100.259 111.128C101.831 113.368 104.644 114.814 109.046 115.049L108.909 115.041L108.967 115.015C109.036 114.991 109.111 114.988 109.181 115.008L109.251 115.035L109.52 115.164C111.22 115.919 113.039 115.614 114.812 114.627C115.19 114.417 115.533 114.191 115.835 113.966C115.907 113.913 115.97 113.865 116.023 113.822L116.074 113.78L116.092 113.745C116.139 113.665 116.218 113.603 116.326 113.584L116.413 113.578C117.688 113.622 118.756 113.289 119.628 112.707C119.913 112.516 120.156 112.313 120.356 112.11L120.502 111.953C120.542 111.907 120.574 111.867 120.601 111.831L120.703 111.704C120.779 111.6 120.872 111.458 120.965 111.284C121.494 110.297 121.516 109.279 120.711 108.309C120.655 108.242 120.595 108.175 120.531 108.108C119.968 107.523 119.281 107.536 118.495 107.971C118.122 108.177 117.762 107.68 118.075 107.39C118.375 107.113 118.536 106.698 118.607 106.103L118.617 106.021L118.638 105.771L118.696 104.601C118.719 103.347 118.305 102.134 117.592 101.007C117.349 100.623 117.088 100.277 116.827 99.9765C116.796 99.9409 116.767 99.9074 116.739 99.8763L116.592 99.7175L116.49 99.616L116.427 99.5369C116.419 99.5244 116.41 99.51 116.399 99.4937L116.313 99.374L116.182 99.2142L116.099 99.121Z" fill="black"/>
<path d="M106.674 96.1333C110.462 95.6257 113.305 96.22 115.32 97.5325C116.167 98.084 116.702 98.6428 116.979 99.0593L117.018 99.1226L117.04 99.1433C117.081 99.1839 117.13 99.2344 117.185 99.2946L117.373 99.5037C117.656 99.8302 117.939 100.204 118.203 100.622C119.046 101.955 119.514 103.414 119.403 104.943C119.267 106.809 118.339 108.488 116.732 108.955L116.536 109.006L116.379 108.301C117.728 108.002 118.562 106.549 118.683 104.891C118.782 103.534 118.36 102.221 117.593 101.008C117.349 100.623 117.088 100.277 116.827 99.9767L116.739 99.8765L116.592 99.7177L116.49 99.6162L116.427 99.537L116.362 99.4393L116.253 99.299C116.21 99.2457 116.159 99.1861 116.1 99.1211C115.798 98.7877 115.409 98.4522 114.926 98.1375C113.059 96.9216 110.391 96.3637 106.77 96.8489C103.227 97.3232 101.021 99.2136 99.8542 102.092C99.4345 103.128 99.1749 104.239 99.0466 105.369C98.9713 106.032 98.9481 106.629 98.9577 107.124L98.9683 107.43L98.9791 107.654L98.9954 107.842C99.0223 108.096 99.071 108.381 99.1469 108.689C99.3644 109.571 99.7563 110.453 100.366 111.277C101.911 113.365 104.571 114.73 108.635 115.024L109.046 115.05L109.007 115.771C104.503 115.53 101.515 114.044 99.7855 111.707C99.1157 110.801 98.6852 109.832 98.4459 108.861C98.3013 108.275 98.2526 107.815 98.2538 107.569L98.2438 107.394C98.2189 106.821 98.2368 106.101 98.3292 105.287C98.4645 104.096 98.7387 102.923 99.1851 101.821C100.444 98.7134 102.86 96.6439 106.674 96.1333Z" fill="black"/>
<path d="M104.584 100.382L105.003 100.97C104.86 101.072 104.624 101.309 104.381 101.695C103.797 102.625 103.549 103.871 103.835 105.482L103.895 105.788L103.188 105.939C102.774 103.994 103.049 102.458 103.77 101.311C104.029 100.898 104.293 100.614 104.499 100.446L104.584 100.382Z" fill="black"/>
<path d="M108.347 100.564L108.753 101.162L108.719 101.186L108.619 101.269L108.482 101.397C108.261 101.614 108.038 101.887 107.829 102.22C106.981 103.566 106.617 105.412 107.014 107.838L107.076 108.189L106.367 108.323C105.84 105.546 106.232 103.402 107.218 101.835C107.585 101.251 107.958 100.86 108.244 100.639L108.347 100.564Z" fill="black"/>
<path d="M112.344 101.796L112.592 102.474L112.453 102.537C112.412 102.557 112.365 102.583 112.311 102.614C112.085 102.745 111.857 102.915 111.644 103.128C110.855 103.919 110.482 105.056 110.758 106.64L110.81 106.909L110.104 107.059C109.685 105.093 110.129 103.625 111.133 102.618C111.524 102.227 111.917 101.979 112.22 101.846L112.344 101.796Z" fill="black"/>
<path d="M117.92 107.472C118.593 107.044 119.289 106.834 119.969 106.981C120.366 107.067 120.731 107.275 121.052 107.609C121.13 107.689 121.203 107.771 121.271 107.854C122.285 109.08 122.255 110.406 121.601 111.625C121.529 111.761 121.456 111.881 121.389 111.983L121.263 112.162C121.225 112.212 121.191 112.254 121.162 112.285C120.968 112.551 120.593 112.931 120.03 113.308C117.868 114.753 114.947 114.792 111.297 112.567L110.992 112.376L111.38 111.767C114.933 114.032 117.648 114.032 119.628 112.708C119.913 112.517 120.156 112.314 120.355 112.111L120.501 111.954L120.648 111.776L120.763 111.62C120.825 111.528 120.895 111.415 120.965 111.284C121.493 110.299 121.516 109.283 120.715 108.314C120.658 108.246 120.597 108.177 120.531 108.109C120.309 107.877 120.071 107.742 119.816 107.687C119.358 107.588 118.835 107.745 118.307 108.081C118.178 108.163 118.064 108.245 117.969 108.32L117.806 108.457L117.746 108.513L117.239 107.999L117.409 107.845C117.542 107.732 117.715 107.602 117.92 107.472Z" fill="black"/>
<path d="M106.557 112.431C107.387 113.703 108.304 114.564 109.292 115.062C111.055 115.95 112.958 115.663 114.811 114.629C115.189 114.419 115.532 114.193 115.834 113.967L116.023 113.823L116.2 113.675L116.682 114.213L116.628 114.26L116.476 114.385L116.266 114.546C115.94 114.79 115.57 115.033 115.163 115.26C113.121 116.399 110.982 116.721 108.967 115.706C107.939 115.188 106.994 114.333 106.146 113.113L105.953 112.825L106.557 112.431Z" fill="black"/>
<path d="M76.9342 6.7344C77.0488 6.45816 77.3656 6.32709 77.6419 6.44166C79.6462 7.27293 81.1373 10.5059 80.5507 12.7832C80.086 14.5843 78.9859 15.9378 76.8527 17.7531L76.0433 18.4308C74.0589 20.0923 73.1178 21.1265 72.5708 22.5083C71.8225 24.3969 72.1109 26.7004 73.2092 29.2637L73.4604 29.8317L73.7492 30.4437L74.8855 32.7331L75.1631 33.3099C75.2062 33.4009 75.2477 33.4897 75.2879 33.5764L75.5126 34.0739L75.7086 34.5354L75.881 34.9741C76.0162 35.3339 76.1323 35.6839 76.2428 36.0588C77.0726 38.8749 76.7488 41.7263 75.0952 43.5668C74.8953 43.7892 74.553 43.8075 74.3305 43.6077C74.108 43.4078 74.0897 43.0654 74.2896 42.8429C75.6569 41.3212 75.9371 38.853 75.204 36.3649L75.084 35.9761C75.0426 35.8484 74.9997 35.7219 74.9545 35.5949L74.8114 35.2104C74.761 35.0806 74.7076 34.9484 74.6505 34.8122L74.4676 34.3895L74.2585 33.9317L74.019 33.4281L73.5936 32.5636L72.9482 31.2711L72.614 30.5803L72.4074 30.1319L72.2137 29.6901C71.0136 26.8891 70.691 24.3126 71.5639 22.1096C72.1673 20.5851 73.1342 19.4816 75.053 17.8494L75.8615 17.1721C78.0264 15.3655 79.09 14.1095 79.502 12.5128C79.9574 10.7449 78.7196 8.06108 77.227 7.44204C76.9507 7.32747 76.8196 7.01065 76.9342 6.7344Z" fill="black"/>
<path d="M62.9136 1.01442C65.6433 1.65438 67.9924 3.70425 68.9956 6.3219C69.999 8.94081 69.6217 12.0353 68.0182 14.3353C67.8983 14.5073 67.778 14.67 67.6526 14.8288L67.3936 15.1427L67.1126 15.4553C66.9162 15.6655 66.6997 15.8811 66.4519 16.1146L66.0554 16.48L65.6038 16.8817L64.4903 17.8486L64.046 18.2454L63.6515 18.6111C62.7235 19.4917 62.2175 20.1383 61.7985 20.9774C60.5865 23.4067 60.9423 25.9498 62.7156 29.8807L63.0243 30.5489C63.0779 30.6625 63.1326 30.7772 63.1884 30.893L63.5362 31.6023L63.9098 32.3404C66.5773 37.5397 67.3019 41.5804 65.1123 44.7232C64.9413 44.9686 64.6038 45.0289 64.3584 44.8579C64.1131 44.687 64.0527 44.3494 64.2237 44.1041C66.0616 41.4662 65.4757 37.8846 63.1258 33.1891L62.5602 32.072L62.2 31.3375L61.8661 30.6299C59.8348 26.2307 59.3946 23.3697 60.8295 20.4937C61.2777 19.596 61.7942 18.9103 62.6679 18.0541L63.065 17.6756L63.511 17.2695L64.0107 16.8292L64.8739 16.0812L65.3039 15.6992L65.6797 15.3536C66.324 14.7481 66.7348 14.2824 67.1298 13.7159C68.5279 11.7105 68.8592 8.99308 67.9844 6.70941C67.1096 4.42702 65.0467 2.62687 62.6664 2.06883C62.3752 2.00057 62.1945 1.70919 62.2628 1.41802C62.3242 1.15597 62.5664 0.983399 62.8265 1.00127L62.9136 1.01442Z" fill="black"/>
<path fill-rule="evenodd" clip-rule="evenodd" d="M81.1478 44.4133C81.1478 44.4133 85.4248 46.2603 81.1478 47.4003C76.8708 48.5413 62.0388 48.7713 55.3048 47.7023C55.3048 47.7023 82.8148 49.3873 81.1478 44.4133" fill="white"/>
<path fill-rule="evenodd" clip-rule="evenodd" d="M77.5267 46.72C80.0175 46.1751 81.1049 45.4214 80.8055 44.528C80.7063 44.232 81.0042 43.9581 81.2909 44.0819L81.4217 44.1416L81.6087 44.2337C81.843 44.3531 82.0774 44.4871 82.298 44.6337C83.1486 45.199 83.606 45.8031 83.3414 46.4772C83.1284 47.0197 82.444 47.4284 81.2408 47.7491C80.5458 47.9345 79.5886 48.0955 78.4432 48.2311L77.6525 48.3176C77.5163 48.3314 77.378 48.3449 77.2377 48.358L76.3724 48.4331C76.0765 48.4569 75.7732 48.4793 75.4635 48.5005L74.5158 48.56L73.5342 48.6117L72.5236 48.6554L71.4887 48.6911L70.4345 48.7187L68.8276 48.7448L67.7464 48.7519L66.6628 48.7506L65.5818 48.7409L64.5082 48.7228L63.4468 48.6961L62.4025 48.6607L61.3803 48.6167L60.3849 48.5639L59.4211 48.5022L58.494 48.4316C58.0403 48.3941 57.6022 48.3532 57.1824 48.3089L56.3679 48.2158C55.9737 48.1669 55.5995 48.1146 55.2482 48.0588C54.7951 47.9869 54.869 47.3139 55.3268 47.342L57.7602 47.4608L59.4815 47.5239C62.4381 47.6192 65.4344 47.6479 68.2538 47.5783L69.3404 47.546L70.3878 47.5039C70.7303 47.4881 71.0661 47.4707 71.3948 47.4516L72.3601 47.389C74.4053 47.2422 76.1473 47.0217 77.5267 46.72ZM81.6985 45.1085L81.5774 45.0376L81.5719 45.091C81.4042 46.1611 80.0179 46.9141 77.681 47.4253C77.1374 47.5442 76.541 47.6506 75.895 47.745L75.8574 47.7496L76.6668 47.686L77.4413 47.6149C77.5669 47.6025 77.6907 47.5899 77.8125 47.577L78.5204 47.4963L79.1788 47.4093C79.8113 47.3191 80.3639 47.2196 80.8192 47.1109L81.0548 47.0515C82.0556 46.7847 82.5642 46.481 82.6693 46.2133C82.7584 45.9863 82.4845 45.6246 81.8984 45.235L81.6985 45.1085Z" fill="white"/>
<path fill-rule="evenodd" clip-rule="evenodd" d="M60.1384 41.9702C60.1384 41.9702 33.9554 43.3502 43.6204 46.4032C43.6204 46.4032 41.7494 43.3882 60.1384 41.9702" fill="white"/>
<path fill-rule="evenodd" clip-rule="evenodd" d="M58.6997 41.6949L60.1081 41.6108C60.5766 41.5986 60.6132 42.2944 60.146 42.3315L59.1094 42.4152L58.1121 42.5024L57.1512 42.5934L56.2265 42.688L55.3374 42.7863L54.0702 42.9403L53.2691 43.0472L52.5026 43.1575L51.7703 43.271L51.0719 43.3878L50.4071 43.5076L49.7754 43.6304C49.6729 43.6512 49.5718 43.672 49.472 43.693L48.8896 43.8202L48.3395 43.9502C48.2505 43.9721 48.1629 43.9942 48.0765 44.0163L47.5744 44.1504C47.4934 44.173 47.4136 44.1957 47.3352 44.2185L46.8803 44.3565C46.807 44.3797 46.7351 44.4031 46.6644 44.4265L46.2559 44.5683C45.9282 44.6874 45.6323 44.809 45.3674 44.933C44.0602 45.5443 43.8232 45.9798 43.9338 46.2234L43.9601 46.2795C44.0616 46.5488 43.8065 46.8406 43.5117 46.7475C41.0473 45.969 40.3583 44.9629 41.8885 44.1384C42.4061 43.8595 43.2144 43.6004 44.2875 43.3576L44.846 43.2375C44.9427 43.2177 45.0412 43.198 45.1416 43.1785L45.7649 43.0623L46.4306 42.9486L47.1379 42.8374L47.8861 42.7284C48.6486 42.6214 49.4565 42.5197 50.3015 42.4232L51.5956 42.2823L52.939 42.1493L54.3253 42.0241L55.7482 41.9065L57.5589 41.7716L58.6997 41.6949ZM46.6259 43.6804L46.8354 43.6146L46.5741 43.657L45.8937 43.7732L45.2597 43.8915C45.0563 43.9314 44.8608 43.9715 44.6735 44.012L44.1364 44.1346C43.2828 44.3404 42.6388 44.5543 42.231 44.774C41.7168 45.0511 41.703 45.2846 42.5739 45.6504L42.8471 45.7587C42.9464 45.7961 43.0541 45.8348 43.1704 45.875L43.2254 45.8936C43.355 45.4039 43.8581 44.8796 44.8554 44.3788L45.0615 44.2789C45.5034 44.0723 46.0236 43.8726 46.6259 43.6804Z" fill="white"/>
<path fill-rule="evenodd" clip-rule="evenodd" d="M45.3493 48.4694C45.3493 48.4694 44.2653 49.9854 44.8133 51.9554C45.1243 53.0724 45.0513 56.2524 42.4003 55.7144C41.0663 55.4434 39.6533 54.0234 40.1163 52.1814C40.5793 50.3404 42.6673 47.9294 45.3493 48.4694" fill="black"/>
<path fill-rule="evenodd" clip-rule="evenodd" d="M42.3284 56.0682C40.5962 55.7163 39.294 53.9718 39.7662 52.0934C40.3777 49.6617 42.8462 47.5972 45.4205 48.1155C45.6772 48.1672 45.7952 48.4664 45.6429 48.6794L45.5582 48.8123L45.4532 49.0089C45.4158 49.0845 45.3767 49.1701 45.3373 49.2649C45.0083 50.0565 44.9051 50.9383 45.1611 51.8586L45.2125 52.0719C45.3653 52.811 45.3309 53.8137 45.0574 54.5773C44.6366 55.7517 43.7056 56.3477 42.3284 56.0682ZM44.7704 48.7626L44.6934 48.7589C42.7538 48.718 40.9447 50.3676 40.4664 52.2694C40.1015 53.7212 41.1202 55.086 42.4721 55.3606C43.4796 55.5651 44.0725 55.1855 44.3777 54.3338C44.6258 53.6411 44.6357 52.6637 44.4655 52.0522C44.1619 50.9607 44.2839 49.9181 44.6706 48.9878C44.694 48.9313 44.7176 48.8774 44.741 48.8261L44.7704 48.7626Z" fill="black"/>
<path fill-rule="evenodd" clip-rule="evenodd" d="M34.8194 111.367C34.1044 111.367 33.9774 124.558 46.9024 123.821C53.8724 123.423 51.6884 117.938 44.5974 118.892C36.4604 119.987 35.5344 111.367 34.8194 111.367" fill="white"/>
<path d="M52.7654 7.89183C52.8838 7.6172 53.2025 7.49056 53.4771 7.60896C55.2927 8.39175 56.8268 10.4913 57.379 12.637C57.8489 14.4589 57.3127 16.4923 56.0698 18.3512L55.85 18.6713C55.8132 18.7234 55.7761 18.7751 55.7387 18.8265L55.5079 19.1342L55.2589 19.4475C55.1719 19.5542 55.0804 19.6636 54.9829 19.7777L54.6711 20.1358L54.3148 20.5331L52.9704 21.9961L52.4934 22.5355L52.4032 22.641C51.0202 24.2671 50.2297 25.7501 50.0858 27.2654C49.9406 28.7947 50.3257 30.0953 51.463 32.1792L51.7768 32.7412L52.1257 33.3428L53.0763 34.9515C54.9739 38.2557 55.4407 41.5182 53.6741 43.7338C53.4876 43.9676 53.1469 44.006 52.9131 43.8196C52.6793 43.6332 52.6409 43.2925 52.8273 43.0586C54.1986 41.3388 53.8612 38.6279 52.2927 35.768L51.7733 34.8686L51.1834 33.8769L50.8113 33.2345C49.3382 30.645 48.8236 29.1017 49.0076 27.163C49.1765 25.3852 50.0647 23.719 51.5783 21.9392L51.9549 21.5062L52.6931 20.6963L53.3089 20.029L53.8435 19.4366L54.143 19.0931C54.1897 19.0385 54.2349 18.9851 54.2788 18.9327L54.5278 18.6283L54.7537 18.3367L54.9648 18.0472L55.1695 17.7492C56.2557 16.1248 56.7129 14.3908 56.3303 12.9072C55.8553 11.0615 54.5242 9.23978 53.0483 8.60347C52.7737 8.48506 52.647 8.16645 52.7654 7.89183Z" fill="black"/>
<path fill-rule="evenodd" clip-rule="evenodd" d="M58.0655 97.2633C56.1995 96.4973 54.9635 95.9993 54.3535 94.0553C52.5955 88.4603 51.3225 93.9003 51.4795 96.1433C51.6805 99.0163 52.5195 103.48 60.2405 104.455C61.9555 104.671 62.2335 104.215 61.9275 102.71C61.7485 101.831 61.9525 98.8583 58.0655 97.2633" fill="white"/>
<path fill-rule="evenodd" clip-rule="evenodd" d="M62.0842 101.852L62.1801 102.615L62.2207 102.827C62.5074 104.433 61.9861 104.943 60.2072 104.719C54.0885 103.947 51.8033 101.307 51.2863 96.9358L51.2344 96.4237L51.2141 96.1619C51.1256 94.8975 51.4527 92.9624 51.9654 92.0317C52.7448 90.6168 53.7646 91.2939 54.6073 93.9757C55.039 95.3515 55.7252 95.9716 57.3422 96.6731L58.1665 97.0173C59.6238 97.6153 60.6292 98.4417 61.2654 99.4552C61.596 99.982 61.815 100.538 61.9552 101.139C62.0092 101.37 62.0499 101.6 62.0842 101.852ZM56.8875 97.0531C55.3093 96.3331 54.5617 95.6073 54.0997 94.1351L53.9612 93.7095L53.8282 93.3325L53.7007 93.0026C53.2214 91.8266 52.8531 91.6591 52.5181 92.1466L52.4313 92.2884C51.9731 93.1203 51.663 94.9552 51.7448 96.1248C52.0668 100.727 54.0825 103.41 60.2737 104.191L60.4268 104.21L60.7046 104.236L60.946 104.247C61.6548 104.257 61.8426 104.016 61.7559 103.289L61.7196 103.043L61.6519 102.682C61.6423 102.623 61.6331 102.556 61.623 102.473L61.5898 102.204L61.5242 101.73C61.391 100.858 61.2323 100.403 60.8148 99.738C60.2389 98.8205 59.3211 98.0661 57.9645 97.5094L57.2104 97.1957L56.8875 97.0531Z" fill="black"/>
<path d="M53.3658 94.8527C53.6798 96.6897 55.7402 98.6546 57.8003 99.2894L58.0209 99.3522C59.1638 99.6513 60.0961 100.159 60.8366 100.818C61.2729 101.206 61.616 101.623 61.8764 102.041C61.9292 102.125 61.9751 102.204 62.0145 102.276L62.1139 102.47C62.1274 102.499 62.1393 102.526 62.1498 102.55L62.1768 102.618L61.6783 102.804C61.6672 102.774 61.6507 102.735 61.6285 102.688L61.5447 102.526C61.5109 102.464 61.4711 102.396 61.4249 102.322C61.1904 101.946 60.8796 101.568 60.483 101.216C59.8721 100.672 59.1163 100.239 58.1983 99.9558L57.8863 99.8669C55.6417 99.2802 53.3573 97.2091 52.8827 95.1484L52.8414 94.9424L53.3658 94.8527Z" fill="black"/>
<path fill-rule="evenodd" clip-rule="evenodd" d="M77.5584 90.0954C79.4824 88.8564 80.0374 86.2914 78.7984 84.3674C77.5594 82.4434 74.9944 81.8874 73.0704 83.1274" fill="white"/>
<path d="M72.8748 82.8239C74.9662 81.4761 77.7547 82.08 79.1019 84.1719C80.4081 86.2003 79.8802 88.8837 77.9399 90.2725L77.7538 90.3989L77.3629 89.7919C79.1192 88.6609 79.626 86.3193 78.4949 84.5628C77.4013 82.8647 75.1768 82.3343 73.4434 83.3231L73.2659 83.4308L72.8748 82.8239Z" fill="black"/>
<path fill-rule="evenodd" clip-rule="evenodd" d="M51.4849 83.7281C49.8449 82.1311 47.2209 82.1661 45.6249 83.8061C44.0279 85.4461 44.0629 88.0701 45.7029 89.6661" fill="white"/>
<path d="M45.3662 83.5544C47.0471 81.8271 49.7767 81.7375 51.5665 83.3119L51.7367 83.4695L51.233 83.9868C49.7359 82.5289 47.3405 82.5608 45.8835 84.058C44.4759 85.5035 44.4571 87.7864 45.805 89.2534L45.9546 89.4074L45.4511 89.9249C43.6682 88.1897 43.6302 85.3371 45.3662 83.5544Z" fill="black"/>
</svg>
