<svg width="125" height="165" viewBox="0 0 125 165" fill="none" xmlns="http://www.w3.org/2000/svg">
<g clip-path="url(#clip0_365_2356)">
<path d="M115.7 94.9C115.7 94.9 117.84 85.76 110.77 81.39C110.77 81.39 103.08 76.45 94.9501 76.62V84.25C94.9501 84.25 102.88 84.42 106.72 87.75C108.26 89.09 108.1 91.66 108.1 93.81L115.7 94.9Z" fill="black" stroke="black" stroke-width="0.72" stroke-linejoin="round"/>
<path d="M30.14 77.22C30.14 77.22 19.53 78.65 15.14 70.71L8.07007 70.52C8.07007 70.52 11.97 85.01 30.25 86.45L30.14 77.22Z" fill="black" stroke="black" stroke-width="0.72" stroke-linejoin="round"/>
<path d="M1.27007 52.29C1.43283 52.0074 1.66748 51.7728 1.95013 51.61V51.61C2.03988 50.4724 2.46435 49.3868 3.1701 48.49C3.3571 48.2184 3.59616 47.9866 3.87347 47.8082C4.15077 47.6297 4.46077 47.5081 4.78545 47.4504C5.11014 47.3928 5.44302 47.4001 5.76482 47.4722C6.08663 47.5442 6.39097 47.6794 6.66009 47.87C6.94374 47 7.42264 46.2065 8.06011 45.55C8.30983 45.309 8.61254 45.1299 8.94402 45.027C9.2755 44.9242 9.62651 44.9005 9.9688 44.9579C10.3111 45.0153 10.6351 45.1521 10.915 45.3574C11.1948 45.5627 11.4225 45.8307 11.58 46.14C12.29 47.63 11.7001 48.35 10.4401 50.61C9.18012 52.87 10.4401 53.45 10.4401 53.45C12.0601 52.18 12.37 51.45 15.36 51.36C17.92 51.27 20.36 53.71 20.84 55.44C21.32 57.17 20.9001 58.66 19.5301 58.9C18.9765 59.0073 18.403 58.9316 17.8962 58.6845C17.3893 58.4374 16.9765 58.0322 16.72 57.53C16.5722 57.0358 16.2869 56.5938 15.8974 56.2556C15.5079 55.9174 15.0302 55.697 14.5201 55.62C11.7701 55.56 11.83 58.84 11.83 58.84C11.7916 59.3199 11.8611 59.8023 12.0331 60.2519C12.2052 60.7015 12.4755 61.1069 12.8244 61.4386C13.1733 61.7702 13.592 62.0197 14.0497 62.1688C14.5075 62.3178 14.9927 62.3627 15.47 62.3C15.9751 62.2353 16.4531 62.0346 16.853 61.7193C17.2528 61.404 17.5593 60.986 17.74 60.51C17.9156 60.1598 18.1776 59.8603 18.5014 59.6398C18.8252 59.4193 19.1999 59.2851 19.59 59.25C19.9566 59.2036 20.3289 59.2447 20.6766 59.3698C21.0242 59.495 21.3372 59.7006 21.59 59.97C22.84 61.49 21.59 63.91 21.59 63.91C21.59 63.91 19.82 67.21 17.35 67.65C13.8725 68.906 10.0755 68.9659 6.56011 67.82C6.56011 67.82 1.83005 63.98 0.870047 60.05C-0.0899527 56.12 0.760072 53.18 1.27007 52.29Z" fill="white" stroke="black" stroke-width="0.72" stroke-linejoin="round"/>
<path d="M17.5701 67.58C17.6181 68.1031 17.5278 68.6297 17.3085 69.1071C17.0891 69.5844 16.7483 69.9958 16.3201 70.3C14.8501 71.41 10.64 71.92 8.13 70.93C7.24 70.58 6.52998 70.16 6.47998 67.82" fill="white"/>
<path d="M17.5701 67.58C17.6181 68.1031 17.5278 68.6297 17.3085 69.1071C17.0891 69.5844 16.7483 69.9958 16.3201 70.3C14.8501 71.41 10.64 71.92 8.13 70.93C7.24 70.58 6.52998 70.16 6.47998 67.82" stroke="black" stroke-width="0.72" stroke-linejoin="round"/>
<path d="M6.66003 47.87C6.94369 47 7.42259 46.2065 8.06006 45.55C8.30978 45.309 8.61249 45.1299 8.94397 45.027C9.27545 44.9242 9.62646 44.9005 9.96875 44.9579C10.311 45.0153 10.6351 45.1521 10.9149 45.3574C11.1948 45.5627 11.4225 45.8307 11.58 46.14C12.29 47.63 11.7001 48.35 10.4401 50.61C9.18006 52.87 10.4401 53.45 10.4401 53.45C11.8401 52.34 12.37 51.45 15.36 51.36C17.92 51.27 20.36 53.71 20.84 55.44C21.32 57.17 20.9 58.66 19.53 58.9C18.9764 59.0073 18.403 58.9316 17.8961 58.6845C17.3893 58.4374 16.9764 58.0322 16.72 57.53C16.5721 57.0358 16.2869 56.5938 15.8973 56.2556C15.5078 55.9174 15.0301 55.697 14.52 55.62C11.77 55.56 11.83 58.84 11.83 58.84C11.7916 59.3199 11.861 59.8023 12.0331 60.2519C12.2051 60.7015 12.4754 61.1069 12.8243 61.4386C13.1733 61.7702 13.5919 62.0197 14.0497 62.1688C14.5074 62.3178 14.9927 62.3627 15.47 62.3C15.975 62.2353 16.4531 62.0346 16.8529 61.7193C17.2527 61.404 17.5593 60.986 17.74 60.51C17.9155 60.1598 18.1776 59.8603 18.5013 59.6398C18.8251 59.4193 19.1998 59.2851 19.59 59.25C19.9565 59.2036 20.3289 59.2447 20.6765 59.3698C21.0241 59.495 21.3371 59.7006 21.59 59.97C22.84 61.49 21.59 63.91 21.59 63.91C21.59 63.91 19.82 67.21 17.35 67.65C13.8725 68.906 10.0754 68.9659 6.56006 67.82C6.56006 67.82 1.83 63.98 0.869995 60.05C-0.0900046 56.12 0.869976 53.18 1.34998 52.29C1.50978 52.0255 1.73057 51.8029 1.99377 51.6409C2.25698 51.4789 2.55499 51.3822 2.86316 51.3587C3.17133 51.3352 3.48067 51.3857 3.76538 51.5059C4.05009 51.6262 4.30197 51.8127 4.5 52.05C5.36 53.48 4.69998 54.19 4.34998 55.15C4.20591 55.6137 4.19612 56.1087 4.32178 56.5777C4.44743 57.0467 4.70347 57.4705 5.06006 57.8" stroke="black" stroke-width="0.72" stroke-linejoin="round"/>
<path d="M7.52002 56.28C6.69932 55.2285 6.2968 53.9105 6.39001 52.58C6.42567 52.1071 6.5694 51.6486 6.81006 51.24C7.32006 50.41 7.70006 48.81 6.81006 47.99C6.54486 47.7676 6.23609 47.6033 5.90356 47.5074C5.57104 47.4116 5.22211 47.3864 4.87927 47.4335C4.53643 47.4806 4.20721 47.5989 3.91284 47.7809C3.61847 47.9628 3.36547 48.2044 3.17004 48.49C2.4643 49.3867 2.03983 50.4723 1.95007 51.61" stroke="black" stroke-width="0.72" stroke-miterlimit="10"/>
<path d="M9.28003 56.81C9.28003 56.81 5.78998 57.36 4.97998 60.5" stroke="black" stroke-width="0.72" stroke-miterlimit="10"/>
<path d="M10.64 62.77C10.0984 62.9458 9.62378 63.2836 9.2804 63.7379C8.93701 64.1922 8.74133 64.741 8.71997 65.31" stroke="black" stroke-width="0.72" stroke-miterlimit="10"/>
<path d="M56.75 128.56L52.35 145.75C52.35 145.75 48.01 148.45 45.61 144.35L49.61 128.56H56.75Z" fill="black" stroke="black" stroke-width="0.72" stroke-linejoin="round"/>
<path d="M43.87 155.73C40.77 145.44 30.87 146.99 30.87 146.99C24.19 147.58 21.09 154.38 21.09 154.38C29.483 161.559 40.3622 165.151 51.38 164.38C51.9773 160.51 51.9773 156.57 51.38 152.7C51.38 152.7 46.01 153.65 43.27 150.2L41.64 151.2" fill="black"/>
<path d="M43.87 155.73C40.77 145.44 30.87 146.99 30.87 146.99C24.19 147.58 21.09 154.38 21.09 154.38C29.483 161.559 40.3622 165.151 51.38 164.38C51.9773 160.51 51.9773 156.57 51.38 152.7C51.38 152.7 46.01 153.65 43.27 150.2L41.64 151.2" stroke="black" stroke-width="0.72" stroke-linejoin="round"/>
<path d="M51.75 161.65C51.6835 162.57 51.5599 163.485 51.38 164.39C40.3622 165.161 29.483 161.569 21.09 154.39C21.575 153.415 22.1652 152.496 22.85 151.65V151.65C35.52 163.21 51.75 161.65 51.75 161.65" fill="white"/>
<path d="M51.75 161.65C51.6835 162.57 51.5599 163.485 51.38 164.39C40.3622 165.161 29.483 161.569 21.09 154.39C21.575 153.415 22.1652 152.496 22.85 151.65V151.65C35.52 163.21 51.75 161.65 51.75 161.65" stroke="black" stroke-width="0.72" stroke-linejoin="round"/>
<path d="M52.65 145.79C52.65 146.67 51.38 152.71 51.38 152.71C51.38 152.71 46.29 153.9 43.27 150.21C43.27 150.21 44.52 144.7 45.27 144.3C45.64 144.1 46.27 145.72 48.35 146.3C50.24 146.93 52.65 145.37 52.65 145.79Z" fill="white" stroke="black" stroke-width="0.72" stroke-linejoin="round"/>
<path d="M36.89 149.91C37.22 149.28 30.3099 147.91 29.2299 149.37C28.1499 150.83 30.23 152.15 31.91 150.89C33.59 149.63 36.56 150.53 36.89 149.91Z" fill="white"/>
<path d="M88.03 145.5H86.78C87.97 142.5 86.13 137.05 86.13 137.05L96.28 134.29C96.28 134.29 108.13 145.88 97.4501 162.29H94.5601C94.5601 162.29 85.8 159.05 87.14 149.98C88.45 141.11 91.55 139.98 91.55 139.98" fill="black"/>
<path d="M88.03 145.5H86.78C87.97 142.5 86.13 137.05 86.13 137.05L96.28 134.29C96.28 134.29 108.13 145.88 97.4501 162.29H94.5601C94.5601 162.29 85.8 159.05 87.14 149.98C88.45 141.11 91.55 139.98 91.55 139.98" stroke="black" stroke-width="0.72" stroke-linejoin="round"/>
<path d="M93.76 134.91C93.76 134.91 105.92 147.54 94.5601 162.26" stroke="black" stroke-width="0.72" stroke-linejoin="round"/>
<path d="M94.5601 162.26H97.4501C108.24 145.93 96.28 134.26 96.28 134.26L93.76 134.88C93.76 134.88 105.74 147.06 94.5601 162.26Z" fill="white" stroke="black" stroke-width="0.72" stroke-linejoin="round"/>
<path d="M91.14 147.31C90.44 146.68 86.9701 155.5 90.4301 156.19C91.8701 156.48 92.2801 154.11 91.3201 152.59C90.1401 150.73 91.43 147.57 91.14 147.31Z" fill="white"/>
<path d="M86.14 137.06C86.14 137.06 79.79 137.6 79.79 137.96C80.4869 139.095 80.9429 140.361 81.13 141.68C81.25 143.54 79.85 144.68 79.86 145.27C79.87 145.86 86.79 145.51 86.79 145.51C86.79 145.51 88.06 143.61 86.14 137.06Z" fill="white" stroke="black" stroke-width="0.72" stroke-linejoin="round"/>
<path d="M73.49 129.36L67.61 129.66C67.61 129.66 66.51 136.43 68.96 141.14C71.24 145.53 80.14 144.57 80.14 144.57C82.36 142.2 80.14 138.66 80.14 138.66C80.14 138.66 75.3201 139.88 73.9401 137.05C72.7701 134.55 73.49 129.36 73.49 129.36Z" fill="black" stroke="black" stroke-width="0.72" stroke-linejoin="round"/>
<path d="M101.91 43.17C101.91 43.17 96.07 110.82 91.51 119.02C87.77 125.74 76.85 130.16 62.92 130.25C48.99 130.34 38.21 126.75 34.1 120.88C27.42 111.37 24.7001 41.97 24.7001 41.97C37.2767 47.264 50.7381 50.1409 64.38 50.45C86.44 50.78 101.91 43.17 101.91 43.17Z" fill="white" stroke="black" stroke-width="0.72" stroke-linejoin="round"/>
<path d="M101.91 43.17C101.42 48.63 86.43 51.17 64.38 50.45C36.73 49.61 24.7001 47.71 24.7001 41.97C24.7001 36.23 33.7 32.66 61.58 32.67C84.27 32.67 102.4 37.7 101.91 43.17Z" fill="white" stroke="black" stroke-width="0.72" stroke-linejoin="round"/>
<path d="M93.95 48.52C84.1933 50.2403 74.2775 50.8875 64.38 50.45C49.38 49.99 38.9999 49.23 32.6199 47.71C32.6199 47.71 28.95 45.41 33.95 43.35C50.35 36.59 79.7799 40.12 90.3699 43.21C95.7799 44.79 98.24 47.67 93.95 48.52Z" fill="black" stroke="black" stroke-width="0.72" stroke-linejoin="round"/>
<path d="M75.51 60.47C75.51 60.47 70.87 54.56 66.6 58.47" stroke="black" stroke-width="0.72" stroke-linejoin="round"/>
<path d="M51.02 58.21C51.02 58.21 55.5401 54.06 59.3101 59.84" stroke="black" stroke-width="0.72" stroke-linejoin="round"/>
<path d="M61.0701 110.96C61.0701 110.96 53.91 113.22 51.9 107.19" stroke="black" stroke-width="0.72" stroke-linejoin="round"/>
<path d="M75.51 83.35C75.51 83.35 70.24 78.3 63.58 80.35" stroke="black" stroke-width="0.72" stroke-linejoin="round"/>
<path d="M74.14 82.25C74.14 82.25 78.3801 70.17 73.4301 65.07C73.4301 65.07 70.3 62.45 67.5 65.13C64.39 68.13 64.3 76.57 64.89 80.01C66.5007 79.6559 68.1709 79.6735 69.7737 80.0617C71.3765 80.4498 72.8698 81.1982 74.14 82.25V82.25Z" fill="white" stroke="black" stroke-width="0.72" stroke-linejoin="round"/>
<path d="M74.14 82.25C74.14 82.25 78.57 70.69 73.43 65.07C72.72 64.29 68.28 62.07 67.79 71.38C68.5326 71.5613 69.1854 72.0033 69.6296 72.6255C70.0737 73.2477 70.2797 74.0087 70.2099 74.77C70.2099 74.77 68.5799 72.96 67.2099 73.5C66.81 75.601 66.868 77.7635 67.3799 79.84C67.3799 79.84 69.66 79.06 74.14 82.25Z" fill="black"/>
<path d="M60.4501 80.69C60.4501 80.69 54.8801 78.46 48.2001 82.79" stroke="black" stroke-width="0.72" stroke-linejoin="round"/>
<path d="M59.59 80.44C59.59 80.44 62.21 70.17 57.26 65.07C57.26 65.07 54.13 62.45 51.33 65.13C48.22 68.13 48.21 76.54 49.75 81.89C52.7866 80.3544 56.2395 79.8456 59.59 80.44V80.44Z" fill="white" stroke="black" stroke-width="0.72" stroke-linejoin="round"/>
<path d="M59.59 80.44C59.59 80.44 61.81 68.52 57.26 65.07C56.42 64.43 52.1701 62.02 51.6801 71.3C52.4217 71.4832 53.0733 71.9256 53.5171 72.5474C53.9609 73.1691 54.1676 73.9291 54.1 74.69C54.1 74.69 52.47 72.88 51.1 73.42C51.1319 76.0293 51.4031 78.6302 51.91 81.19C54.2852 79.9849 57.0266 79.7172 59.59 80.44V80.44Z" fill="black"/>
<path d="M69.2001 87.06C69.2001 87.06 61.67 93.42 53.42 87.96" stroke="black" stroke-width="0.72" stroke-linejoin="round"/>
<path d="M71.46 87.93C70.7938 87.8887 70.1498 87.6753 69.5907 87.3108C69.0316 86.9462 68.5765 86.4429 68.27 85.85" stroke="black" stroke-width="0.72" stroke-linejoin="round"/>
<path d="M54.51 86.89C54.2886 87.4324 53.8845 87.8803 53.3677 88.1561C52.8508 88.4318 52.2538 88.5181 51.6801 88.4" stroke="black" stroke-width="0.72" stroke-linejoin="round"/>
<path d="M67.71 88.06C67.71 88.06 70.0801 106.9 59.3101 104.28C53.9001 102.96 54.51 88.6 54.51 88.6C54.51 88.6 59.91 92.74 67.71 88.06Z" fill="black" stroke="black" stroke-width="0.72" stroke-linejoin="round"/>
<path d="M123.92 58.31C116.84 71.49 100.62 109.37 98.0301 111.31C95.4401 113.25 91.56 113.78 89.1 111.72C88.2742 110.941 87.6396 109.981 87.2459 108.916C86.8521 107.851 86.7098 106.709 86.83 105.58C87.0982 103.326 87.7122 101.127 88.6501 99.06L109.27 46.73C108.222 49.9854 108.25 53.4918 109.35 56.73C109.918 58.325 110.905 59.7377 112.207 60.8198C113.509 61.9019 115.078 62.6136 116.75 62.88C120.11 63.23 123.75 60.82 124.11 57.47C124.47 54.12 120.94 50.77 117.74 51.85C116.94 52.0965 116.249 52.6107 115.783 53.3061C115.317 54.0016 115.104 54.8362 115.18 55.67C115.303 56.3035 115.66 56.8676 116.18 57.25C116.564 57.5725 117.04 57.764 117.541 57.7963C118.041 57.8287 118.538 57.7004 118.96 57.43C118.969 56.7929 118.789 56.1673 118.442 55.6331C118.095 55.0988 117.596 54.68 117.01 54.43L115.7 56.79" fill="white"/>
<path d="M123.92 58.31C116.84 71.49 100.62 109.37 98.0301 111.31C95.4401 113.25 91.56 113.78 89.1 111.72C88.2742 110.941 87.6396 109.981 87.2459 108.916C86.8521 107.851 86.7098 106.709 86.83 105.58C87.0982 103.326 87.7122 101.127 88.6501 99.06L109.27 46.73C108.222 49.9854 108.25 53.4918 109.35 56.73C109.918 58.325 110.905 59.7377 112.207 60.8198C113.509 61.9019 115.078 62.6136 116.75 62.88C120.11 63.23 123.75 60.82 124.11 57.47C124.47 54.12 120.94 50.77 117.74 51.85C116.94 52.0965 116.249 52.6107 115.783 53.3061C115.317 54.0016 115.104 54.8362 115.18 55.67C115.303 56.3035 115.66 56.8676 116.18 57.25C116.564 57.5725 117.04 57.764 117.541 57.7963C118.041 57.8287 118.538 57.7004 118.96 57.43C118.969 56.7929 118.789 56.1673 118.442 55.6331C118.095 55.0988 117.596 54.68 117.01 54.43L115.7 56.79" stroke="black" stroke-width="0.72" stroke-linejoin="round"/>
<path d="M115.3 54.17L111.9 60.45" stroke="black" stroke-width="0.72" stroke-linejoin="round"/>
<path d="M118.98 57.34L116.75 62.79" stroke="black" stroke-width="0.72" stroke-linejoin="round"/>
<path d="M109.63 57.32L113.53 47.71C112.952 49.4561 112.59 51.2661 112.45 53.1C112.323 54.9466 112.797 56.7847 113.8 58.34C114.313 59.1058 115.018 59.7238 115.845 60.1326C116.671 60.5413 117.59 60.7266 118.51 60.67C119.426 60.5784 120.28 60.1621 120.916 59.4964C121.552 58.8308 121.93 57.9595 121.98 57.04C121.965 56.5881 121.85 56.1452 121.644 55.743C121.437 55.3408 121.144 54.9893 120.786 54.714C120.427 54.4386 120.012 54.2461 119.57 54.1503C119.128 54.0545 118.67 54.0578 118.23 54.16L117.87 54.86" stroke="black" stroke-width="0.72" stroke-linejoin="round"/>
<path d="M121.79 58.13C121.528 58.8128 121.083 59.4106 120.505 59.8585C119.927 60.3063 119.237 60.587 118.51 60.67C117.59 60.7266 116.671 60.5413 115.845 60.1326C115.018 59.7238 114.313 59.1058 113.8 58.34C112.797 56.7847 112.323 54.9466 112.45 53.1C112.59 51.2661 112.952 49.4561 113.53 47.71L109.63 57.32C109.63 57.32 112.46 64.1 119.36 62.54L121.79 58.13Z" fill="white" stroke="black" stroke-width="0.72" stroke-linejoin="round"/>
<path d="M121.74 58.25L118.98 62.79" stroke="black" stroke-width="0.72" stroke-linejoin="round"/>
<path d="M118.99 67.94C118.99 67.94 112.52 70.52 108.2 65.43L98.9 88.31C98.9 88.31 100.9 92.06 108.62 90.47L118.99 67.94Z" fill="black" stroke="black" stroke-width="0.72" stroke-linejoin="round"/>
<path d="M106.87 60.81L95.96 87.52" stroke="black" stroke-width="1.44" stroke-linejoin="round"/>
<path d="M105.55 93.4L97.51 109.13" stroke="black" stroke-width="0.72" stroke-linejoin="round"/>
<path d="M103.16 93.44L95.59 109.61" stroke="black" stroke-width="0.72" stroke-linejoin="round"/>
<path d="M100.81 93.4L93.95 109.61" stroke="black" stroke-width="0.72" stroke-linejoin="round"/>
<path d="M98.9 92.69L92.46 108.98" stroke="black" stroke-width="0.72" stroke-linejoin="round"/>
<path d="M97.23 91.81L94.21 99.61" stroke="black" stroke-width="0.72" stroke-linejoin="round"/>
<path d="M96.27 90.22L92.86 98.58" stroke="black" stroke-width="0.72" stroke-linejoin="round"/>
<path d="M94.93 89.19L91.51 97.7" stroke="black" stroke-width="0.72" stroke-linejoin="round"/>
<path d="M106.38 93.45C106.38 93.45 98.51 95.71 94.21 88.64L94.9301 87.04L99.52 91.34L106.38 93.45Z" fill="white" stroke="white" stroke-width="0.72" stroke-linejoin="round"/>
<path d="M98.51 108.59C98.51 108.59 94.21 110.59 91.51 108.25L90.5601 110.25L93.9 110.98L96.9 110.66L98.51 108.59Z" fill="white" stroke="white" stroke-width="0.72" stroke-linejoin="round"/>
<path d="M107.89 64.15C107.89 64.15 105.89 62.8 105.56 58.99L106.38 57.32L109.63 61.32L107.89 64.15Z" fill="white" stroke="white" stroke-width="0.72" stroke-linejoin="round"/>
<path d="M97.51 87.92C96.5882 86.9943 95.9261 85.8424 95.59 84.58L94.59 87.85L96.86 89.8L97.51 87.92Z" fill="white" stroke="white" stroke-width="0.72" stroke-linejoin="round"/>
<path d="M91.51 95.72C91.51 95.72 91.5901 98.27 94.9301 99.61L93.22 102.55L90.22 98.55L91.51 95.72Z" fill="white" stroke="white" stroke-width="0.72" stroke-linejoin="round"/>
<path d="M115.99 98.51C115.99 98.51 116.73 96.32 116.33 95.62C115.81 94.69 112.84 92.2 107.66 93.95C107.66 93.95 106.79 94.19 106.72 96.49" fill="white"/>
<path d="M115.99 98.51C115.99 98.51 116.73 96.32 116.33 95.62C115.81 94.69 112.84 92.2 107.66 93.95C107.66 93.95 106.79 94.19 106.72 96.49" stroke="black" stroke-width="0.72" stroke-linejoin="round"/>
<path d="M106.72 96.49C114.43 95.49 116.72 99.36 116.72 99.36C117.458 100.085 118.043 100.95 118.439 101.905C118.836 102.861 119.037 103.886 119.03 104.92C118.97 105.73 119.03 106.92 118.3 107.66C118.67 107.393 119.122 107.267 119.577 107.304C120.031 107.341 120.458 107.538 120.78 107.86C121.324 108.423 121.634 109.171 121.649 109.954C121.664 110.737 121.382 111.496 120.86 112.08C120.309 112.717 119.617 113.216 118.84 113.539C118.062 113.862 117.22 113.999 116.38 113.94V113.94C116.38 113.94 112.69 117.24 109.02 115.35H108.96C98.55 114.8 98.5501 107.48 98.5501 107.48C98.5501 107.48 97.81 97.69 106.72 96.49Z" fill="white" stroke="black" stroke-width="0.72" stroke-linejoin="round"/>
<path d="M109.02 115.41C98.61 114.86 98.61 107.54 98.61 107.54C98.61 107.54 97.81 97.69 106.72 96.54C114.43 95.54 116.72 99.41 116.72 99.41C117.458 100.135 118.042 101 118.439 101.955C118.836 102.911 119.037 103.936 119.03 104.97C118.93 106.33 118.23 108.31 116.44 108.71" stroke="black" stroke-width="0.72" stroke-linejoin="round"/>
<path d="M104.79 100.68C104.79 100.68 102.74 102.14 103.54 105.87" stroke="black" stroke-width="0.72" stroke-linejoin="round"/>
<path d="M108.54 100.87C108.54 100.87 105.68 102.81 106.72 108.26" stroke="black" stroke-width="0.72" stroke-linejoin="round"/>
<path d="M112.46 102.14C112.46 102.14 109.64 103.14 110.46 106.99" stroke="black" stroke-width="0.72" stroke-linejoin="round"/>
<path d="M117.49 108.26C117.49 108.26 119.38 106.4 120.79 107.86C121.334 108.423 121.644 109.171 121.659 109.954C121.674 110.737 121.392 111.496 120.87 112.08C120.87 112.08 117.79 116.29 111.18 112.08" stroke="black" stroke-width="0.72" stroke-linejoin="round"/>
<path d="M116.44 113.95C116.44 113.95 110.55 119.23 106.25 112.63" stroke="black" stroke-width="0.72" stroke-linejoin="round"/>
<path d="M77.4301 6.95001C79.1501 7.66001 80.5501 10.6 80.0201 12.65C79.4901 14.7 77.8301 16.24 76.2001 17.59C74.5701 18.94 72.8401 20.34 72.0601 22.31C71.1501 24.6 71.74 27.22 72.71 29.48C73.68 31.74 75.02 33.85 75.71 36.22C76.4 38.59 76.32 41.38 74.71 43.22" stroke="black" stroke-width="1.08" stroke-linecap="round" stroke-linejoin="round"/>
<path d="M62.78 1.54999C64.0684 1.84881 65.2636 2.45933 66.261 3.32793C67.2583 4.19654 68.0272 5.29669 68.5001 6.53181C68.973 7.76693 69.1355 9.09925 68.9734 10.4118C68.8112 11.7244 68.3294 12.9771 67.57 14.06C65.81 16.58 62.68 18.06 61.31 20.77C59.44 24.51 61.52 28.91 63.42 32.62C65.32 36.33 67.05 41.02 64.66 44.45" stroke="black" stroke-width="1.08" stroke-linecap="round" stroke-linejoin="round"/>
<path d="M81.14 44.42C81.14 44.42 85.42 46.26 81.14 47.42C76.86 48.58 62.03 48.8 55.3 47.73C55.3 47.71 82.81 49.39 81.14 44.42Z" fill="white" stroke="white" stroke-width="0.72" stroke-linejoin="round"/>
<path d="M60.14 41.97C60.14 41.97 33.96 43.35 43.62 46.41C43.61 46.41 41.74 43.39 60.14 41.97Z" fill="white" stroke="white" stroke-width="0.72" stroke-linejoin="round"/>
<path d="M45.34 48.47C45.0144 48.9831 44.7991 49.5584 44.7079 50.1593C44.6167 50.7601 44.6515 51.3734 44.8101 51.96C45.1201 53.08 45.05 56.26 42.39 55.72C42.0059 55.6431 41.641 55.4899 41.317 55.2694C40.9931 55.049 40.7167 54.7659 40.5042 54.4368C40.2916 54.1076 40.1472 53.7392 40.0795 53.3533C40.0118 52.9674 40.0221 52.5718 40.11 52.19C40.57 50.34 42.66 47.93 45.34 48.47Z" fill="black" stroke="black" stroke-width="0.72" stroke-linejoin="round"/>
<path d="M34.81 111.37C34.1 111.37 33.97 124.56 46.9 123.82C53.9 123.43 51.6799 117.94 44.5899 118.9C36.4499 119.99 35.53 111.37 34.81 111.37Z" fill="white"/>
<path d="M53.26 8.10999C54.1526 8.59284 54.9336 9.25821 55.5521 10.0628C56.1706 10.8674 56.6128 11.7932 56.85 12.78C57.0207 13.6964 56.9986 14.6382 56.7851 15.5456C56.5716 16.453 56.1714 17.3059 55.61 18.05C54.4881 19.5336 53.2793 20.9494 51.99 22.29C50.6914 23.6462 49.8368 25.3659 49.54 27.22C49.27 30.11 51.15 32.7 52.6 35.22C54.05 37.74 55.06 41.13 53.24 43.4" stroke="black" stroke-width="1.08" stroke-linecap="round" stroke-linejoin="round"/>
<path d="M58.06 97.27C56.19 96.5 54.9599 96 54.3499 94.06C52.5899 88.46 51.3499 93.9 51.4699 96.15C51.6699 99.02 52.4699 103.48 60.2299 104.46C61.9499 104.68 62.23 104.22 61.92 102.71C61.74 101.84 61.95 98.86 58.06 97.27Z" fill="white" stroke="black" stroke-width="0.53" stroke-linejoin="round"/>
<path d="M61.92 102.71C61.5377 101.92 60.9775 101.229 60.2836 100.691C59.5896 100.153 58.7807 99.7831 57.92 99.61C55.85 99.07 53.4301 97.04 53.0701 94.9" stroke="black" stroke-width="0.53" stroke-linejoin="round"/>
<path d="M77.55 90.06C78.4783 89.4646 79.132 88.5248 79.3673 87.4474C79.6027 86.37 79.4005 85.2433 78.8051 84.315C78.2096 83.3867 77.2698 82.733 76.1924 82.4977C75.115 82.2623 73.9883 82.4646 73.0601 83.06" fill="white"/>
<path d="M77.55 90.06C78.4783 89.4646 79.132 88.5248 79.3673 87.4474C79.6027 86.37 79.4005 85.2433 78.8051 84.315C78.2096 83.3867 77.2698 82.733 76.1924 82.4977C75.115 82.2623 73.9883 82.4646 73.0601 83.06" stroke="black" stroke-width="0.72" stroke-linejoin="round"/>
<path d="M51.48 83.73C50.6923 82.9635 49.6324 82.5414 48.5335 82.5564C47.4345 82.5714 46.3865 83.0223 45.62 83.81C44.8535 84.5977 44.4314 85.6576 44.4464 86.7566C44.4614 87.8555 44.9124 88.9035 45.7001 89.67" fill="white"/>
<path d="M51.48 83.73C50.6923 82.9635 49.6324 82.5414 48.5335 82.5564C47.4345 82.5714 46.3865 83.0223 45.62 83.81C44.8535 84.5977 44.4314 85.6576 44.4464 86.7566C44.4614 87.8555 44.9124 88.9035 45.7001 89.67" stroke="black" stroke-width="0.72" stroke-linejoin="round"/>
</g>
<defs>
<clipPath id="clip0_365_2356">
<rect width="124.5" height="163.9" fill="white" transform="translate(0 1)"/>
</clipPath>
</defs>
</svg>
