<svg width="125" height="165" viewBox="0 0 125 165" fill="none" xmlns="http://www.w3.org/2000/svg">
<path fill-rule="evenodd" clip-rule="evenodd" d="M27.1823 84.365C26.8813 81.849 26.5883 79.316 26.3073 76.811C26.2963 76.714 26.2463 76.626 26.1693 76.565C26.0923 76.506 25.9923 76.482 25.8973 76.494C19.2383 77.458 13.5933 81.049 13.5423 81.082C6.3303 85.539 8.4273 94.886 8.4493 94.98C8.4873 95.145 8.6353 95.26 8.8003 95.26C8.8173 95.26 8.8343 95.258 8.8513 95.256L16.4553 94.167C16.6333 94.141 16.7653 93.989 16.7653 93.809L16.7633 93.256C16.7513 91.324 16.7383 89.135 18.0223 88.02C20.3043 86.042 24.0933 85.198 26.8743 84.839C26.8763 84.839 26.8783 84.839 26.8803 84.838L26.8883 84.837C27.0853 84.811 27.2243 84.63 27.1983 84.432C27.1953 84.409 27.1893 84.386 27.1823 84.365Z" fill="black"/>
<path fill-rule="evenodd" clip-rule="evenodd" d="M56.9709 129.69C54.9509 129.53 52.9749 129.267 51.0999 128.911C51.0059 128.891 50.9089 128.913 50.8289 128.966C50.7499 129.021 50.6959 129.104 50.6779 129.198L50.6599 129.291C50.6529 129.329 50.6519 129.369 50.6579 129.407C50.6639 129.458 51.3429 134.514 50.1839 136.89C48.9499 139.417 44.4439 138.321 44.3979 138.308C44.2449 138.274 44.0849 138.336 44.0029 138.47C43.9079 138.625 41.7169 142.273 44.0939 144.818C44.1529 144.881 44.2329 144.921 44.3189 144.931C44.4279 144.943 45.2509 145.026 46.4209 145.026C49.2729 145.026 54.1889 144.531 55.8669 141.298C57.9959 137.196 57.5019 131.618 57.3009 130.005C57.2789 129.836 57.1409 129.704 56.9709 129.69Z" fill="black"/>
<path fill-rule="evenodd" clip-rule="evenodd" d="M75.3805 128.947C75.3335 128.76 75.1475 128.643 74.9575 128.681C72.8145 129.125 70.5065 129.451 68.0965 129.65C67.9905 129.659 67.8945 129.714 67.8325 129.8C67.7715 129.886 67.7505 129.996 67.7765 130.098L71.7985 145.842C71.8215 145.931 71.8785 146.009 71.9575 146.058C72.0305 146.103 73.4705 146.982 75.1935 146.982C75.5545 146.982 75.9295 146.944 76.3055 146.85C77.4985 146.555 78.4725 145.774 79.2015 144.529C79.2495 144.447 79.2625 144.35 79.2395 144.259L75.3805 128.947Z" fill="black"/>
<path fill-rule="evenodd" clip-rule="evenodd" d="M116.786 70.2898C116.716 70.2008 116.624 70.1598 116.493 70.1518L109.427 70.3498C109.299 70.3528 109.183 70.4238 109.121 70.5348C106.422 75.3808 101.384 76.6808 97.6328 76.9178C97.4528 76.9298 97.3088 77.0698 97.2958 77.2488C97.0498 80.2878 96.7888 83.2578 96.5198 86.0758C96.5168 86.1068 96.5238 86.1738 96.5298 86.2048C96.5588 86.3808 96.7128 86.5058 96.8858 86.5058C96.9038 86.5058 96.9228 86.5038 96.9408 86.5008C105.365 85.1868 110.328 80.9428 113.008 77.6138C115.916 74.0028 116.814 70.7438 116.851 70.6068C116.881 70.4968 116.857 70.3798 116.786 70.2898Z" fill="black"/>
<path fill-rule="evenodd" clip-rule="evenodd" d="M90.1081 120.674C86.0461 126.459 75.6081 129.89 62.1251 129.89C61.9451 129.89 61.7651 129.89 61.5851 129.888C47.8811 129.795 37.0451 125.562 33.3061 118.841C29.0661 111.222 23.6071 50.5766 23.0041 43.7506C26.0151 45.0976 40.5971 51.1026 60.1291 50.8106C79.8861 50.5136 96.2911 43.8796 99.4191 42.5336C99.1341 49.2486 96.3281 111.813 90.1081 120.674ZM100.004 41.6706C99.8991 41.6006 99.7661 41.5926 99.6521 41.6426C99.4761 41.7246 81.8391 49.7626 60.1181 50.0876C38.4001 50.4066 22.9031 42.9136 22.7491 42.8386C22.6331 42.7826 22.4941 42.7916 22.3861 42.8646C22.2781 42.9386 22.2191 43.0646 22.2301 43.1946C22.4691 45.9596 28.1291 111.024 32.6751 119.193C36.5401 126.14 47.6161 130.515 61.5801 130.611C61.7611 130.612 61.9411 130.612 62.1211 130.612C75.8421 130.612 86.5031 127.067 90.7001 121.088C97.3611 111.598 100.052 44.8226 100.164 41.9846C100.169 41.8596 100.108 41.7396 100.004 41.6706Z" fill="black"/>
<mask id="mask0_365_2900" style="mask-type:alpha" maskUnits="userSpaceOnUse" x="0" y="46" width="39" height="68">
<path d="M0 46.3261H38.0476V113.356H0V46.3261Z" fill="white"/>
</mask>
<g mask="url(#mask0_365_2900)">
<path fill-rule="evenodd" clip-rule="evenodd" d="M38.028 105.512C37.881 103.172 37.022 100.993 36.191 98.8855L15.572 46.5555C15.502 46.3775 15.304 46.2815 15.121 46.3465C14.939 46.4075 14.837 46.6005 14.888 46.7855C15.584 49.2635 16.13 52.9175 14.869 56.3525L11.31 47.5685C11.237 47.3895 11.036 47.2995 10.857 47.3635C10.675 47.4255 10.575 47.6205 10.629 47.8055C11.146 49.5745 11.615 51.3125 11.688 53.1105C11.73 54.1555 11.636 55.5505 11.083 56.8845L9.521 54.0025L9.52 54.0035C9.097 52.7885 8.032 51.8125 6.88 51.4235C5.353 50.9075 3.66 51.2765 2.233 52.4355C0.66 53.7115 -0.182 55.6255 0.033 57.4305C0.16 58.4945 0.594 59.4865 1.244 60.3355C4.278 66.2335 8.547 75.4655 12.689 84.4225C20.169 100.599 24.816 110.498 26.258 111.561C27.732 112.645 29.671 113.356 31.57 113.356C33.025 113.356 34.456 112.939 35.636 111.953C37.3 110.562 38.194 108.155 38.028 105.512Z" fill="white"/>
</g>
<mask id="mask1_365_2900" style="mask-type:alpha" maskUnits="userSpaceOnUse" x="0" y="46" width="39" height="68">
<path d="M0 46.3259H38.0476V113.356H0V46.3259Z" fill="white"/>
</mask>
<g mask="url(#mask1_365_2900)">
<path fill-rule="evenodd" clip-rule="evenodd" d="M35.173 111.399C32.764 113.411 29.003 112.683 26.686 110.979C25.289 109.951 19.216 96.8192 13.344 84.1192C9.605 76.0332 5.763 67.7242 2.813 61.8342C4.215 62.8182 5.99 63.3412 7.791 63.1552C8.245 63.1072 8.694 63.0072 9.137 62.8772C11.577 62.2412 13.217 60.5382 14.17 59.2052C14.184 59.1862 14.197 59.1652 14.211 59.1462C14.514 58.7172 14.748 58.3292 14.91 58.0342C14.911 58.0322 14.912 58.0302 14.913 58.0282C15.101 57.6842 15.197 57.4632 15.202 57.4512C15.208 57.4352 15.198 57.4182 15.202 57.4012C15.299 57.1922 15.408 56.9902 15.492 56.7732C16.327 54.6002 16.463 52.3482 16.282 50.3282L35.519 99.1512C36.329 101.206 37.167 103.332 37.307 105.557C37.459 107.971 36.661 110.155 35.173 111.399ZM1.817 59.8712C1.507 59.2702 1.21 58.7042 0.928 58.1772C0.844 57.9072 0.784 57.6282 0.75 57.3442C0.564 55.7842 1.306 54.1172 2.688 52.9962C3.92 51.9972 5.364 51.6742 6.649 52.1072C7.972 52.5542 9.233 53.9892 8.962 55.5282C8.932 55.6932 8.879 55.8562 8.803 56.0142L7.782 54.1692C7.694 54.0082 7.5 53.9412 7.331 54.0082C7.13 54.0902 6.943 54.1982 6.763 54.3172L6.597 53.9932C6.554 53.9092 6.481 53.8442 6.391 53.8152C5.512 53.5172 4.519 53.6952 3.67 54.2982C2.75 54.9532 2.171 56.0002 2.16 57.0312C2.155 57.4272 2.24 57.8132 2.37 58.1872C2.373 58.2082 2.36 58.2282 2.368 58.2492C2.387 58.3032 2.417 58.3532 2.439 58.4072C2.452 58.4382 2.467 58.4692 2.481 58.5002C2.565 58.6882 2.663 58.8692 2.776 59.0432C2.794 59.0712 2.811 59.0982 2.829 59.1252C2.866 59.1792 2.896 59.2382 2.936 59.2912L4.349 61.8582C3.346 61.3992 2.46 60.7092 1.817 59.8712ZM5.155 57.3562C5.157 57.3992 5.172 57.4402 5.188 57.4792L5.182 57.4812L6.347 60.3202C6.241 60.3172 6.134 60.3222 6.028 60.3112C5.796 60.2862 5.568 60.2342 5.346 60.1622C5.295 60.1462 5.248 60.1212 5.199 60.1032C5.029 60.0392 4.862 59.9682 4.703 59.8812C4.648 59.8502 4.597 59.8152 4.544 59.7822C4.4 59.6942 4.262 59.5972 4.132 59.4912C4.076 59.4452 4.023 59.3972 3.97 59.3492C3.855 59.2432 3.749 59.1312 3.649 59.0122C3.605 58.9592 3.56 58.9072 3.519 58.8512L3.077 58.0482C2.954 57.7232 2.878 57.3852 2.881 57.0392C2.89 56.2342 3.353 55.4102 4.088 54.8872C4.703 54.4522 5.401 54.3002 6.025 54.4592L6.195 54.7922C5.533 55.4712 5.125 56.4102 5.155 57.3562ZM8.075 56.8792C7.472 57.3272 6.583 57.5632 5.878 57.1522C5.916 56.2032 6.487 55.2812 7.316 54.8162L8.334 56.6592C8.254 56.7372 8.167 56.8112 8.075 56.8792ZM10.688 57.6702C10.598 57.8252 10.51 57.9802 10.404 58.1302C10.272 58.3182 10.13 58.4952 9.979 58.6612C9.19 59.5292 8.161 60.0962 7.106 60.2692L6.185 58.0242C6.933 58.1842 7.781 57.9962 8.505 57.4602C9.105 57.0152 9.502 56.4092 9.646 55.7472L10.688 57.6702ZM12.41 53.0812C12.395 52.7132 12.364 52.3472 12.319 51.9832L14.465 57.2792C13.297 59.6872 11.228 61.5192 8.929 62.1882C8.8 62.2212 8.671 62.2542 8.537 62.2792C8.467 62.2962 8.396 62.3062 8.326 62.3202C7.446 62.4592 6.466 62.4502 5.374 62.2212L4.469 60.5772C4.926 60.8142 5.428 60.9732 5.951 61.0302C6.112 61.0462 6.274 61.0552 6.436 61.0552C6.477 61.0552 6.517 61.0482 6.558 61.0472C6.649 61.0442 6.739 61.0362 6.83 61.0282C6.966 61.0172 7.102 61.0022 7.238 60.9792C7.328 60.9642 7.418 60.9452 7.507 60.9252C7.641 60.8942 7.774 60.8602 7.906 60.8192C7.997 60.7912 8.086 60.7612 8.176 60.7282C8.304 60.6812 8.43 60.6282 8.556 60.5712C8.645 60.5302 8.734 60.4902 8.821 60.4452C8.944 60.3812 9.063 60.3102 9.182 60.2382C9.266 60.1862 9.351 60.1362 9.434 60.0802C9.553 59.9992 9.666 59.9092 9.78 59.8192C9.856 59.7592 9.932 59.7032 10.005 59.6402C10.127 59.5342 10.24 59.4182 10.354 59.3012C10.412 59.2422 10.473 59.1882 10.528 59.1272C10.693 58.9442 10.85 58.7512 10.994 58.5462C12.273 56.7282 12.47 54.5712 12.41 53.0812ZM38.028 105.512C37.881 103.172 37.022 100.994 36.191 98.8852L15.572 46.5552C15.502 46.3782 15.304 46.2812 15.121 46.3462C14.939 46.4072 14.837 46.6002 14.888 46.7862C15.584 49.2632 16.13 52.9172 14.869 56.3522L11.31 47.5682C11.237 47.3892 11.036 47.2992 10.857 47.3632C10.675 47.4252 10.575 47.6212 10.629 47.8052C11.146 49.5752 11.615 51.3122 11.688 53.1102C11.73 54.1552 11.636 55.5502 11.083 56.8842L9.521 54.0032H9.52C9.097 52.7882 8.032 51.8122 6.88 51.4232C5.353 50.9072 3.66 51.2762 2.233 52.4352C0.66 53.7112 -0.182 55.6262 0.033 57.4302C0.16 58.4952 0.594 59.4862 1.244 60.3362C4.278 66.2332 8.547 75.4652 12.689 84.4222C20.169 100.599 24.816 110.499 26.258 111.561C27.732 112.645 29.671 113.356 31.57 113.356C33.025 113.356 34.456 112.939 35.636 111.954C37.3 110.562 38.194 108.155 38.028 105.512Z" fill="black"/>
</g>
<path fill-rule="evenodd" clip-rule="evenodd" d="M25.9318 88.1667L16.6318 65.2877C16.5838 65.1707 16.4788 65.0867 16.3538 65.0667C16.2348 65.0487 16.1028 65.0927 16.0218 65.1897C11.9308 70.0207 5.9038 67.6987 5.6498 67.5997C5.5098 67.5427 5.3548 67.5797 5.2548 67.6867C5.1528 67.7927 5.1268 67.9507 5.1878 68.0857L15.5568 90.6157C15.6048 90.7197 15.6988 90.7947 15.8108 90.8177C17.1908 91.1037 18.3948 91.2217 19.4428 91.2217C24.3698 91.2217 25.8428 88.6077 25.9148 88.4737C25.9668 88.3787 25.9728 88.2667 25.9318 88.1667Z" fill="black"/>
<path fill-rule="evenodd" clip-rule="evenodd" d="M18.7502 61.6538C18.4892 62.3608 18.1762 62.9138 17.8772 63.3358L27.4632 86.7988C27.7682 86.3768 28.1092 85.8198 28.3552 85.1638L18.7502 61.6538Z" fill="black"/>
<path fill-rule="evenodd" clip-rule="evenodd" d="M18.6252 93.5691L26.6672 109.296L27.3102 108.967L19.2682 93.2411L18.6252 93.5691Z" fill="black"/>
<path fill-rule="evenodd" clip-rule="evenodd" d="M21.0168 93.5984L28.5858 109.767L29.2398 109.46L21.6708 93.2914L21.0168 93.5984Z" fill="black"/>
<path fill-rule="evenodd" clip-rule="evenodd" d="M23.3571 93.5457L30.2211 109.755L30.8861 109.474L24.0221 93.2647L23.3571 93.5457Z" fill="black"/>
<path fill-rule="evenodd" clip-rule="evenodd" d="M25.2614 92.822L31.7004 109.118L32.3724 108.852L25.9334 92.556L25.2614 92.822Z" fill="black"/>
<path fill-rule="evenodd" clip-rule="evenodd" d="M30.6237 99.4802L27.6027 91.6842L26.9307 91.9462L29.9507 99.7422L30.6237 99.4802Z" fill="black"/>
<path fill-rule="evenodd" clip-rule="evenodd" d="M31.9733 98.447L28.5623 90.086L27.8933 90.359L31.3043 98.72L31.9733 98.447Z" fill="black"/>
<path fill-rule="evenodd" clip-rule="evenodd" d="M29.9069 89.0574L29.2369 89.3274L32.6559 97.8314L33.3249 97.5624L29.9069 89.0574Z" fill="black"/>
<path fill-rule="evenodd" clip-rule="evenodd" d="M22.5902 43.1633C23.0822 48.6303 38.0742 51.1233 60.1232 50.4483C87.7692 49.6023 99.8032 47.7073 99.8032 41.9713C99.8032 36.2343 90.7802 32.6613 62.9242 32.6663C40.2292 32.6693 22.0982 37.6963 22.5902 43.1633Z" fill="black"/>
<path fill-rule="evenodd" clip-rule="evenodd" d="M22.9494 43.1306C23.3984 48.1096 37.6414 50.7826 60.1124 50.0876C85.0214 49.3246 99.4424 47.7526 99.4424 41.9706C99.4424 39.0846 96.9134 36.9726 91.7124 35.5126C85.7494 33.8396 76.3474 33.0266 62.9764 33.0266H62.9244C44.4944 33.0296 28.0604 36.3796 23.8454 40.9896C23.1884 41.7096 22.8864 42.4306 22.9494 43.1306ZM53.0754 50.9226C33.8084 50.9226 22.6784 48.1766 22.2304 43.1946C22.1484 42.2846 22.5124 41.3786 23.3124 40.5036C27.6514 35.7556 44.3104 32.3076 62.9244 32.3046H62.9754C76.4154 32.3046 85.8794 33.1266 91.9074 34.8176C97.4634 36.3766 100.164 38.7166 100.164 41.9706C100.164 47.6626 90.0634 49.8936 60.1354 50.8106C57.6744 50.8856 55.3194 50.9226 53.0754 50.9226Z" fill="black"/>
<path fill-rule="evenodd" clip-rule="evenodd" d="M30.5536 48.5201C37.2266 49.8551 47.4776 50.8361 60.1236 50.4481C75.1056 49.9901 85.5016 49.2231 91.8836 47.7041C91.8836 47.7041 95.5476 45.4101 90.5526 43.3511C74.1496 36.5901 44.7246 40.1161 34.1326 43.2061C28.7176 44.7851 26.2666 47.6621 30.5536 48.5201Z" fill="#603813"/>
<path fill-rule="evenodd" clip-rule="evenodd" d="M65.4469 39.8503C52.5719 39.8503 39.9009 41.8993 34.2339 43.5523C30.6059 44.6103 28.6899 46.1323 28.7273 47.0293C28.7489 47.5143 29.4399 47.9293 30.6239 48.1653C35.1969 49.0803 45.1079 50.5533 60.1129 50.0873C76.3039 49.5923 85.7709 48.7783 91.7369 47.3693C91.9569 47.2173 92.8839 46.5253 92.8139 45.7153C92.7539 45.0083 91.9239 44.3073 90.4149 43.6853C83.5389 40.8513 74.4429 39.8503 65.4469 39.8503ZM54.5199 50.8973C42.5569 50.8973 34.4879 49.6753 30.4829 48.8743C28.4839 48.4743 28.0329 47.6663 28.0069 47.0593C27.9449 45.6163 30.3649 43.9283 34.0309 42.8593C43.7289 40.0293 73.8049 36.0583 90.6899 43.0173C92.4919 43.7603 93.4489 44.6483 93.5339 45.6573C93.6479 47.0093 92.1389 47.9703 92.0749 48.0103C92.0419 48.0323 92.0059 48.0463 91.9679 48.0563C85.9539 49.4873 76.4339 50.3103 60.1349 50.8103C58.1769 50.8703 56.3039 50.8973 54.5199 50.8973Z" fill="black"/>
<path fill-rule="evenodd" clip-rule="evenodd" d="M69.1803 47.3435C62.8533 47.7295 45.9683 48.1255 43.8353 45.3455C43.6423 45.0935 43.6003 44.8335 43.7023 44.5285C43.7473 44.3935 43.7093 44.2445 43.6043 44.1485C43.4993 44.0515 43.3473 44.0245 43.2173 44.0825C42.8493 44.2405 41.0193 45.0885 41.1003 46.1915C41.1503 46.8645 41.8583 47.3745 43.2663 47.7495C45.7473 48.4115 51.3963 48.7615 57.0823 48.7615C61.6643 48.7615 66.2713 48.5345 69.2593 48.0605C69.4493 48.0305 69.5823 47.8565 69.5613 47.6645C69.5403 47.4725 69.3603 47.3475 69.1803 47.3435Z" fill="white"/>
<path fill-rule="evenodd" clip-rule="evenodd" d="M64.3883 41.6101C64.2063 41.5831 64.0213 41.7501 64.0093 41.9471C63.9963 42.1441 64.1443 42.3151 64.3413 42.3311C77.5853 43.3511 80.0503 45.1781 80.4953 45.9171C80.6103 46.1061 80.5763 46.2141 80.5793 46.2141H80.5803C80.5013 46.3421 80.5103 46.5061 80.6023 46.6261C80.6723 46.7151 80.7783 46.7651 80.8873 46.7651C80.9233 46.7651 80.9603 46.7591 80.9963 46.7491C82.7313 46.2001 83.4683 45.6631 83.3843 45.0061C83.0993 42.7691 68.7723 41.8411 64.3883 41.6101Z" fill="white"/>
<path fill-rule="evenodd" clip-rule="evenodd" d="M48.8293 17.325L48.6463 17.173C47.0743 15.861 45.4973 14.42 45.0063 12.513C44.5573 10.771 45.7683 8.07002 47.2813 7.44302C47.5573 7.32802 47.6883 7.01202 47.5733 6.73502C47.4593 6.45902 47.1423 6.32802 46.8663 6.44302C44.8713 7.27002 43.3763 10.53 43.9573 12.784C44.5293 15.002 46.3193 16.642 47.9523 18.004L48.1353 18.157C49.6603 19.428 51.2373 20.742 51.9373 22.509C52.6563 24.324 52.4413 26.597 51.2983 29.264C50.9483 30.084 50.5363 30.904 50.1373 31.697C49.4393 33.086 48.7173 34.523 48.2653 36.06C47.3993 38.998 47.8283 41.804 49.4123 43.567C49.5183 43.686 49.6663 43.748 49.8143 43.748C49.9433 43.748 50.0733 43.702 50.1763 43.609C50.3993 43.409 50.4173 43.066 50.2173 42.845C48.8873 41.362 48.5453 38.94 49.3043 36.366C49.7293 34.922 50.4283 33.529 51.1053 32.183C51.5113 31.375 51.9303 30.54 52.2943 29.691C53.5533 26.751 53.7723 24.201 52.9443 22.11C52.1423 20.087 50.4583 18.683 48.8293 17.325Z" fill="black"/>
<path fill-rule="evenodd" clip-rule="evenodd" d="M60.1725 16.5496C59.1175 15.6416 58.1215 14.7836 57.3785 13.7166C55.9695 11.6956 55.6415 9.01062 56.5235 6.71062C57.4045 4.40962 59.4435 2.63162 61.8415 2.06962C62.1325 2.00162 62.3135 1.70962 62.2455 1.41862C62.1765 1.12762 61.8825 0.945618 61.5945 1.01462C58.8515 1.65762 56.5205 3.69162 55.5115 6.32262C54.5035 8.95462 54.8785 12.0246 56.4895 14.3366C57.3115 15.5146 58.4065 16.4586 59.4655 17.3706C60.7665 18.4896 61.9955 19.5486 62.7095 20.9786C64.4015 24.3696 62.5935 28.4516 60.5975 32.3416C58.8085 35.8296 56.7355 40.9076 59.3955 44.7236C59.5015 44.8746 59.6695 44.9556 59.8405 44.9556C59.9475 44.9556 60.0555 44.9236 60.1495 44.8586C60.3955 44.6876 60.4555 44.3496 60.2845 44.1046C57.9585 40.7676 59.8995 36.0746 61.5615 32.8356C63.6845 28.6986 65.5965 24.3386 63.6775 20.4946C62.8665 18.8696 61.4975 17.6906 60.1725 16.5496Z" fill="black"/>
<path fill-rule="evenodd" clip-rule="evenodd" d="M75.5002 27.1638C75.3402 25.4728 74.5232 23.8128 72.9292 21.9398C72.5132 21.4518 72.0762 20.9798 71.6402 20.5078C70.7952 19.5968 69.9972 18.7348 69.3382 17.7498C68.6882 16.7788 67.6742 14.8588 68.1772 12.9088C68.5812 11.3428 69.7802 9.32783 71.4592 8.60383C71.7342 8.48583 71.8602 8.16683 71.7422 7.89283C71.6242 7.61883 71.3062 7.48983 71.0302 7.60983C69.0052 8.48283 67.6112 10.7638 67.1282 12.6378C66.5202 14.9968 67.6882 17.2308 68.4382 18.3518C69.1442 19.4088 70.0092 20.3418 70.8452 21.2448C71.2712 21.7048 71.6982 22.1648 72.1042 22.6418C73.5472 24.3368 74.2832 25.8068 74.4222 27.2668C74.6402 29.5638 73.3432 31.7358 72.0882 33.8358C71.8652 34.2098 71.6442 34.5818 71.4312 34.9518C70.4742 36.6188 68.5002 40.8098 70.8332 43.7338C70.9402 43.8678 71.0982 43.9378 71.2572 43.9378C71.3752 43.9378 71.4952 43.8988 71.5952 43.8188C71.8282 43.6338 71.8672 43.2928 71.6802 43.0588C69.7622 40.6538 71.5232 36.9658 72.3702 35.4908C72.5802 35.1258 72.7982 34.7598 73.0182 34.3918C74.3622 32.1418 75.7522 29.8148 75.5002 27.1638Z" fill="black"/>
<path fill-rule="evenodd" clip-rule="evenodd" d="M79.1584 48.4702C79.1584 48.4702 80.2424 49.9862 79.6944 51.9562C79.3834 53.0732 79.4564 56.2532 82.1074 55.7152C83.4414 55.4442 84.8544 54.0232 84.3914 52.1822C83.9284 50.3412 81.8404 47.9302 79.1584 48.4702Z" fill="#603813"/>
<path fill-rule="evenodd" clip-rule="evenodd" d="M79.7365 48.7605C80.0455 49.4055 80.4425 50.6135 80.0415 52.0535C79.8655 52.6875 79.8205 54.2535 80.5155 55.0005C80.8695 55.3795 81.3665 55.4975 82.0355 55.3625C82.7105 55.2245 83.3675 54.7605 83.7515 54.1515C84.0005 53.7555 84.2525 53.1095 84.0415 52.2705C83.6395 50.6745 81.9095 48.6335 79.7365 48.7605ZM81.5455 56.1365C80.7705 56.1365 80.2795 55.8065 79.9865 55.4925C79.0265 54.4605 79.1405 52.5995 79.3465 51.8605C79.8395 50.0885 78.8735 48.6935 78.8635 48.6795C78.7935 48.5795 78.7785 48.4505 78.8235 48.3375C78.8685 48.2245 78.9675 48.1405 79.0875 48.1165C81.9785 47.5285 84.2285 50.0525 84.7415 52.0945C84.9585 52.9535 84.8265 53.7975 84.3615 54.5355C83.8775 55.3065 83.0405 55.8945 82.1795 56.0695C81.9495 56.1155 81.7385 56.1365 81.5455 56.1365Z" fill="black"/>
<path fill-rule="evenodd" clip-rule="evenodd" d="M50.4063 82.2442C50.4063 82.2442 46.1633 70.1662 51.1143 65.0652C51.1143 65.0652 54.2383 62.4502 57.0423 65.1272C60.1503 68.0942 60.2453 76.5722 59.6523 80.0052C59.6523 80.0052 54.7913 78.6382 50.4063 82.2442Z" fill="white"/>
<path fill-rule="evenodd" clip-rule="evenodd" d="M64.908 80.4362C64.908 80.4362 62.293 70.1662 67.244 65.0652C67.244 65.0652 70.368 62.4502 73.172 65.1272C76.28 68.0942 76.292 76.5372 74.753 81.8862C74.753 81.8862 70.178 79.3432 64.908 80.4362Z" fill="white"/>
<path fill-rule="evenodd" clip-rule="evenodd" d="M72.3234 88.7928C72.4974 88.7928 72.6814 88.7788 72.8734 88.7508L72.7654 88.0358C70.9364 88.3208 70.3494 86.8248 70.3264 86.7608L69.9874 86.8858L69.6484 87.0088C69.7494 87.2898 69.9694 87.6518 70.3024 87.9788C65.8864 90.6228 61.7654 89.9048 59.0014 88.7658C58.8294 88.6908 58.6604 88.6258 58.4854 88.5428C58.4194 88.5128 58.3554 88.4818 58.2914 88.4518C57.8604 88.2398 57.4224 88.0048 56.9754 87.7348C56.9614 87.7268 56.9434 87.7278 56.9284 87.7208C56.4414 87.4268 56.0714 87.1648 55.8324 86.9858C56.0904 86.7188 56.3394 86.4148 56.5534 86.0218L55.9194 85.6768C54.9114 87.5248 53.1144 87.5608 53.0374 87.5608L53.0394 88.2828C53.1044 88.2828 54.2094 88.2528 55.2834 87.4718C55.5024 87.6358 55.8874 87.9078 56.4054 88.2228C56.2234 89.8768 55.3264 99.7808 59.4814 103.489C60.5164 104.412 61.7784 104.876 63.2494 104.876C63.8864 104.876 64.5624 104.789 65.2754 104.615C70.6094 103.318 70.4144 90.6608 70.3564 88.7858C70.5434 88.6798 70.7324 88.5578 70.9214 88.4398C71.3024 88.6498 71.7644 88.7928 72.3234 88.7928Z" fill="black"/>
<path fill-rule="evenodd" clip-rule="evenodd" d="M89.6884 111.368C90.4034 111.368 90.5304 124.559 77.6054 123.822C70.6354 123.424 72.8194 117.939 79.9104 118.893C88.0474 119.988 88.9734 111.368 89.6884 111.368Z" fill="white"/>
<path fill-rule="evenodd" clip-rule="evenodd" d="M66.4422 97.264C68.3082 96.498 69.5442 96 70.1542 94.056C71.9122 88.461 73.1852 93.901 73.0282 96.144C72.8272 99.017 71.9882 103.481 64.2672 104.456C62.5522 104.672 62.2742 104.216 62.5802 102.711C62.7592 101.832 62.5552 98.859 66.4422 97.264Z" fill="#DC302B"/>
<path fill-rule="evenodd" clip-rule="evenodd" d="M72.7628 96.1258C72.5328 99.4088 71.3558 103.293 64.2338 104.192C63.4838 104.286 63.0398 104.242 62.8678 104.057C62.7038 103.879 62.6948 103.48 62.8408 102.765C62.8648 102.647 62.8828 102.493 62.9038 102.312C63.0318 101.186 63.2968 98.8428 66.5428 97.5108L66.4418 97.2648L66.5688 97.4998C68.4238 96.7388 69.7628 96.1888 70.4088 94.1368C71.1288 91.8418 71.6358 91.8658 71.6878 91.8778C72.2578 91.9848 72.8808 94.4468 72.7628 96.1258ZM71.7868 91.3548C71.1108 91.2268 70.5028 92.0568 69.9008 93.9768C69.3308 95.7918 68.2148 96.2498 66.3668 97.0078L66.3408 97.0188C62.8038 98.4698 62.5138 101.023 62.3748 102.251C62.3558 102.415 62.3408 102.553 62.3198 102.659C62.1818 103.335 62.1058 104.017 62.4778 104.419C62.6998 104.658 63.0438 104.772 63.5778 104.772C63.7878 104.772 64.0278 104.755 64.3008 104.72C71.8068 103.772 73.0498 99.6488 73.2938 96.1628C73.3848 94.8668 72.9688 91.5778 71.7868 91.3548Z" fill="black"/>
<path fill-rule="evenodd" clip-rule="evenodd" d="M71.1413 94.8533C70.7903 96.9083 68.4513 98.8393 66.4863 99.3533C63.2673 100.195 62.3683 102.52 62.3303 102.619L62.8293 102.805C62.8373 102.784 63.6823 100.637 66.6213 99.8693C68.7463 99.3123 71.2803 97.2003 71.6653 94.9433L71.1413 94.8533Z" fill="black"/>
<path fill-rule="evenodd" clip-rule="evenodd" d="M54.4001 57.5018C55.5671 57.3978 56.6691 57.8158 57.6621 58.7218L58.1491 58.1888C57.0001 57.1418 55.7171 56.6718 54.3381 56.7818C51.2611 57.0358 48.8081 60.1098 48.7051 60.2408L49.2721 60.6888C49.2951 60.6588 51.6381 57.7278 54.4001 57.5018Z" fill="black"/>
<path fill-rule="evenodd" clip-rule="evenodd" d="M69.3439 57.158C71.4749 56.88 73.2179 58.455 73.2359 58.47L73.7229 57.937C73.6419 57.864 71.7149 56.127 69.2599 56.44C67.6069 56.649 66.1359 57.725 64.8879 59.639L65.4919 60.034C66.6179 58.308 67.9139 57.341 69.3439 57.158Z" fill="black"/>
<path fill-rule="evenodd" clip-rule="evenodd" d="M63.5402 110.608L63.3232 111.297C63.3542 111.307 64.6922 111.714 66.3872 111.714C68.7192 111.714 71.7282 110.942 72.9422 107.298L72.2572 107.07C70.3852 112.688 63.8192 110.696 63.5402 110.608Z" fill="black"/>
<path fill-rule="evenodd" clip-rule="evenodd" d="M59.3566 79.5672C58.9226 79.4832 58.1576 79.3742 57.1926 79.3872C57.8636 75.7232 57.2836 73.4932 57.2836 73.4932C55.9656 72.9522 54.3326 74.7652 54.3326 74.7652C54.1756 71.9392 56.7506 71.3742 56.7506 71.3742C56.4776 66.2392 54.9986 64.6202 53.6106 64.3282C53.8016 64.2982 53.9986 64.2792 54.2016 64.2792C55.0166 64.2792 55.9206 64.5552 56.7926 65.3872C59.5666 68.0372 59.9226 75.6792 59.3566 79.5672ZM57.2916 64.8662C54.2896 62.0002 50.9166 64.7592 50.8546 64.8142C46.1506 69.6612 49.3736 80.2732 49.9776 82.1042C49.9486 82.1252 49.9146 82.1472 49.8866 82.1682C48.1816 81.9052 46.3996 82.6312 45.4056 84.1722C44.0606 86.2612 44.6656 89.0552 46.7536 90.4002L47.1446 89.7932C45.3916 88.6642 44.8836 86.3172 46.0126 84.5632C46.5596 83.7132 47.4046 83.1292 48.3926 82.9152C49.3786 82.6992 50.3916 82.8832 51.2416 83.4312L51.6326 82.8242C51.3696 82.6542 51.0946 82.5172 50.8136 82.4082C52.9166 81.0262 56.5676 79.3702 60.8156 80.6542L61.0246 79.9632C60.6996 79.8642 60.3776 79.7842 60.0596 79.7172C60.6246 75.9002 60.3966 67.8302 57.2916 64.8662Z" fill="black"/>
<path fill-rule="evenodd" clip-rule="evenodd" d="M74.5221 81.3651C74.3701 81.2921 74.1661 81.2021 73.9371 81.1051C73.5031 80.9131 73.0771 80.7411 72.6601 80.5971C73.3561 76.8741 73.3531 73.4151 73.3531 73.4151C72.0341 72.8751 70.4011 74.6881 70.4011 74.6881C70.2441 71.8621 72.8191 71.2971 72.8191 71.2971C72.5411 66.0551 71.0651 64.5451 69.6821 64.3371C70.6471 64.1701 71.8101 64.3261 72.9221 65.3871C75.7191 68.0571 75.9931 75.8261 74.5221 81.3651ZM79.1421 83.5551C78.3191 82.7101 77.2191 82.2351 76.0421 82.2011C75.7481 82.0221 75.4601 81.8681 75.1711 81.7131C76.5721 76.5751 76.7451 68.0391 73.4211 64.8661C70.4191 62.0001 67.0461 64.7601 66.9841 64.8141C62.3951 69.5431 64.0621 78.3291 64.4761 80.1721C64.1551 80.2631 63.9561 80.3391 63.9171 80.3541L64.1861 81.0241C64.1981 81.0191 64.4981 80.9041 65.0301 80.7821C68.4821 80.0791 71.6531 80.9871 73.3301 81.6421C73.4241 81.6811 73.5171 81.7151 73.6121 81.7571C73.6571 81.7761 73.7091 81.7961 73.7511 81.8141C74.1071 81.9731 74.4681 82.1501 74.8341 82.3471C74.0661 82.5361 73.3521 82.9041 72.7711 83.4701L73.2741 83.9881C73.9991 83.2831 74.9441 82.8751 75.9641 82.9161C76.9751 82.9281 77.9191 83.3351 78.6241 84.0591C80.0791 85.5531 80.0471 87.9541 78.5531 89.4091L79.0571 89.9271C80.8361 88.1931 80.8741 85.3351 79.1421 83.5551Z" fill="black"/>
<path fill-rule="evenodd" clip-rule="evenodd" d="M17.7863 96.4917C17.7073 94.1867 16.8413 93.9477 16.8413 93.9477C11.6653 92.1987 8.6953 94.6867 8.1673 95.6177C7.7703 96.3177 8.5093 98.5107 8.5093 98.5107L8.5113 98.5097C7.9893 98.9867 7.7703 99.3537 7.7703 99.3537C7.7703 99.3537 5.2333 101.738 5.4653 104.918C5.5243 105.73 5.4383 106.963 6.1873 107.656C5.5083 107.28 4.5323 107.011 3.7163 107.859C1.7293 109.926 3.6363 112.072 3.6363 112.072C3.6363 112.072 5.0783 114.045 8.1073 113.94L8.0663 113.945C8.0663 113.945 11.7513 117.248 15.4223 115.357L15.4813 115.411C25.8943 114.855 25.8943 107.541 25.8943 107.541C25.8943 107.541 26.6893 97.6837 17.7863 96.4917Z" fill="white"/>
<path fill-rule="evenodd" clip-rule="evenodd" d="M3.9767 108.109C4.1137 107.967 4.2587 107.864 4.4117 107.79C4.4897 107.752 4.5757 107.745 4.6587 107.724C4.7417 107.703 4.8227 107.671 4.9117 107.667C5.0647 107.66 5.2257 107.678 5.3937 107.721C5.4167 107.727 5.4397 107.734 5.4627 107.741C5.6347 107.792 5.8137 107.864 6.0007 107.967C6.4427 108.21 6.7567 108.509 6.7617 108.514L6.8077 108.467C7.1417 108.714 7.5237 108.907 7.9727 109.006L8.1287 108.301C6.4797 107.935 5.9047 105.986 5.8247 104.891C5.6097 101.927 7.9937 99.6381 8.0177 99.6161C8.0417 99.5931 8.0627 99.5661 8.0807 99.5391C8.1027 99.5021 10.3877 95.8691 17.7387 96.8491C26.1927 97.9821 25.5657 107.124 25.5337 107.54C25.5337 107.557 25.5327 107.6 25.5297 107.662C25.5297 107.663 25.5297 107.664 25.5297 107.665C25.5257 107.729 25.5197 107.815 25.5077 107.919C25.4967 108.024 25.4797 108.147 25.4557 108.286C25.4557 108.287 25.4557 108.287 25.4557 108.287C25.4317 108.426 25.3997 108.58 25.3587 108.746C25.3577 108.748 25.3577 108.749 25.3577 108.75C25.3167 108.915 25.2657 109.093 25.2037 109.281C25.2017 109.284 25.2017 109.287 25.2007 109.29C25.1377 109.476 25.0637 109.672 24.9757 109.874C24.9737 109.879 24.9717 109.883 24.9697 109.887C24.8817 110.088 24.7797 110.295 24.6627 110.505C24.6587 110.512 24.6557 110.518 24.6517 110.525C24.5337 110.735 24.3997 110.948 24.2487 111.161C24.2427 111.169 24.2387 111.176 24.2337 111.184C24.0817 111.396 23.9107 111.609 23.7217 111.82C23.7137 111.829 23.7067 111.837 23.6987 111.846C23.5097 112.055 23.2987 112.262 23.0677 112.464C23.0567 112.474 23.0467 112.484 23.0347 112.494C22.8037 112.694 22.5497 112.889 22.2737 113.076C22.2577 113.087 22.2437 113.098 22.2277 113.109C21.9507 113.294 21.6477 113.471 21.3227 113.639C21.3027 113.65 21.2837 113.661 21.2627 113.672C20.9357 113.838 20.5817 113.992 20.2027 114.135C20.1767 114.145 20.1537 114.155 20.1277 114.165C19.7467 114.305 19.3367 114.432 18.9007 114.544C18.8687 114.553 18.8387 114.562 18.8067 114.57C18.3677 114.68 17.8977 114.773 17.3997 114.85C17.3617 114.856 17.3257 114.863 17.2877 114.869C17.1077 114.896 16.8997 114.906 16.7117 114.928C17.3747 114.384 17.9927 113.689 18.5557 112.826L17.9507 112.431C17.1287 113.692 16.1947 114.57 15.1667 115.075C15.0167 115.149 14.8667 115.217 14.7167 115.272C14.6817 115.285 14.6467 115.296 14.6117 115.308C14.4487 115.364 14.2867 115.414 14.1247 115.451C14.1137 115.454 14.1027 115.455 14.0927 115.458C12.0017 115.923 10.0267 114.884 9.0137 114.205C10.2937 114.012 11.7917 113.475 13.5157 112.377L13.1277 111.767C11.1617 113.02 9.5337 113.504 8.2187 113.578C8.1827 113.568 8.1447 113.567 8.1027 113.578C8.0967 113.578 8.0917 113.578 8.0857 113.578C5.3427 113.645 3.9827 111.932 3.9077 111.833C3.8387 111.755 2.2497 109.905 3.9767 108.109ZM8.4817 95.7961C8.8877 95.0821 11.6307 92.5681 16.7257 94.2901C16.7317 94.2921 17.2577 94.5481 17.3937 96.0891C12.7317 95.5591 10.0657 96.8071 8.6957 97.8751C8.4557 97.0071 8.3187 96.0821 8.4817 95.7961ZM18.1227 96.1831C17.9717 94.0201 17.1167 93.6491 16.9567 93.6061C11.8957 91.8941 8.5867 94.1491 7.8537 95.4381C7.4577 96.1361 7.8897 97.7401 8.0947 98.4001C7.7537 98.7411 7.5577 99.0151 7.4877 99.1241C7.1607 99.4441 4.8757 101.8 5.1047 104.944C5.1137 105.069 5.1197 105.205 5.1257 105.347C5.1447 105.833 5.1697 106.425 5.3517 106.97C5.3267 106.966 5.3027 106.97 5.2777 106.967C5.1757 106.953 5.0747 106.936 4.9707 106.936C4.9607 106.936 4.9507 106.936 4.9407 106.937C4.9147 106.937 4.8907 106.944 4.8647 106.946C4.8257 106.948 4.7877 106.955 4.7497 106.959C4.6277 106.972 4.5087 106.994 4.3927 107.029C4.3527 107.041 4.3137 107.054 4.2747 107.068C4.1607 107.11 4.0517 107.164 3.9457 107.228C3.9117 107.248 3.8767 107.265 3.8427 107.287C3.7087 107.378 3.5777 107.482 3.4557 107.609C1.7017 109.433 2.6307 111.483 3.3457 112.285C3.4067 112.37 4.8557 114.304 7.8707 114.304H7.9307C7.9347 114.308 7.9437 114.314 7.9477 114.318C7.9657 114.333 7.9877 114.35 8.0097 114.367C8.0727 114.418 8.1447 114.475 8.2387 114.546C8.2797 114.576 8.3247 114.607 8.3707 114.641C8.4667 114.711 8.5687 114.781 8.6877 114.861C8.7467 114.9 8.8067 114.937 8.8707 114.978C8.9977 115.059 9.1327 115.14 9.2807 115.224C9.3517 115.264 9.4217 115.303 9.4977 115.344C9.6577 115.43 9.8277 115.512 10.0057 115.594C10.0837 115.63 10.1577 115.665 10.2387 115.7C10.4357 115.784 10.6437 115.859 10.8577 115.931C10.9317 115.956 11.0017 115.983 11.0787 116.006C11.3297 116.082 11.5917 116.143 11.8617 116.193C11.9087 116.201 11.9527 116.215 11.9997 116.223C12.3227 116.275 12.6537 116.309 12.9947 116.309C13.2207 116.309 13.4517 116.291 13.6837 116.263C13.7087 116.26 13.7327 116.262 13.7577 116.258C13.8207 116.25 13.8817 116.232 13.9447 116.222C14.0617 116.202 14.1787 116.181 14.2967 116.153C14.4187 116.124 14.5387 116.09 14.6587 116.053C14.7377 116.028 14.8167 116.003 14.8957 115.974C15.0397 115.923 15.1827 115.865 15.3227 115.801C15.3527 115.788 15.3817 115.779 15.4117 115.765C15.4397 115.77 15.4697 115.775 15.4997 115.771C25.1357 115.256 26.1397 108.977 26.2427 107.77C26.2537 107.645 26.2547 107.574 26.2547 107.57C26.2627 107.468 26.9497 97.5831 18.1227 96.1831Z" fill="black"/>
<path fill-rule="evenodd" clip-rule="evenodd" d="M20.6129 105.789L21.3189 105.939C22.1539 102.024 20.0149 100.448 19.9239 100.383L19.5029 100.97C19.5779 101.024 21.3439 102.361 20.6129 105.789Z" fill="black"/>
<path fill-rule="evenodd" clip-rule="evenodd" d="M17.4318 108.189L18.1408 108.324C19.2068 102.707 16.2858 100.65 16.1608 100.565L15.7538 101.162C15.8628 101.237 18.4038 103.065 17.4318 108.189Z" fill="black"/>
<path fill-rule="evenodd" clip-rule="evenodd" d="M13.6974 106.91L14.4034 107.06C15.2734 102.984 12.1954 101.807 12.1634 101.797L11.9144 102.474C12.0174 102.513 14.4324 103.463 13.6974 106.91Z" fill="black"/>
<path fill-rule="evenodd" clip-rule="evenodd" d="M123.234 52.2877C123.066 51.9907 122.826 51.7667 122.551 51.6117C122.326 49.5577 121.332 48.4847 121.332 48.4847C120.184 47.1667 118.752 47.1697 117.843 47.8657C117.843 47.8657 117.397 46.4377 116.443 45.5437C115.49 44.6487 113.641 44.6487 112.926 46.1397C112.211 47.6297 112.807 48.3457 114.059 50.6107C115.311 52.8767 114.079 53.4507 114.079 53.4507C112.467 52.1757 112.149 51.4727 109.162 51.3617C106.606 51.2667 104.162 53.7117 103.685 55.4407C103.208 57.1687 103.625 58.6597 104.997 58.8977C107.001 59.2467 107.799 57.5267 107.799 57.5267C108.216 55.8577 110.005 55.6187 110.005 55.6187C112.747 55.5597 112.687 58.8387 112.687 58.8387C112.807 61.4017 110.72 62.4157 109.051 62.2967C107.381 62.1777 106.785 60.5077 106.785 60.5077C106.252 59.6607 105.619 59.2757 104.93 59.2487C104.311 59.2257 103.497 59.3297 102.97 59.9717C101.727 61.4827 102.993 63.9057 102.993 63.9057C102.993 63.9057 104.635 66.9557 106.957 67.5807L106.932 67.5797C106.932 67.5797 106.674 69.1557 108.179 70.2937C109.649 71.4047 113.86 71.9127 116.374 70.9237C117.259 70.5757 117.976 70.1567 118.025 67.8157C118.025 67.8157 122.756 63.9757 123.71 60.0517C124.701 55.9767 123.738 53.1807 123.234 52.2877Z" fill="white"/>
<path fill-rule="evenodd" clip-rule="evenodd" d="M106.086 59.2488C107.201 59.0248 107.891 58.1858 108.149 57.6148C108.5 56.2098 109.99 55.9848 110.013 55.9798C110.627 55.9528 111.136 56.1438 111.516 56.5208C112.339 57.3388 112.327 58.8178 112.327 58.8548C112.37 59.7898 112.105 60.5438 111.536 61.0988C110.93 61.6888 110.012 62.0008 109.076 61.9368C107.67 61.8358 107.147 60.4438 107.091 60.3148C106.794 59.8438 106.458 59.4868 106.086 59.2488ZM117.852 67.4898C111.878 69.2648 107.424 67.3408 107.297 67.2948C105.031 66.8908 103.328 63.7668 103.314 63.7388C103.302 63.7168 102.17 61.5128 103.249 60.2008C103.335 60.0958 103.436 60.0058 103.549 59.9298C103.553 59.9278 103.558 59.9258 103.562 59.9228C103.788 59.7748 104.063 59.6808 104.386 59.6368C104.391 59.6368 104.396 59.6368 104.401 59.6358C104.562 59.6148 104.734 59.6058 104.917 59.6088C105.522 59.6328 106.032 59.9888 106.445 60.6288C106.473 60.7058 107.143 62.5218 109.025 62.6568C110.155 62.7338 111.289 62.3488 112.04 61.6148C112.752 60.9208 113.101 59.9548 113.049 58.8458C113.05 58.7718 113.069 57.0488 112.028 56.0118C111.508 55.4938 110.814 55.2438 109.957 55.2618C109.874 55.2718 107.92 55.5538 107.472 57.3758C107.464 57.3908 106.774 58.8358 105.059 58.5428C104.661 58.4738 104.357 58.2748 104.152 57.9528C103.805 57.4028 103.761 56.5218 104.033 55.5358C104.466 53.9698 106.73 51.7208 109.021 51.7208C109.064 51.7208 109.107 51.7218 109.149 51.7228C110.94 51.7898 111.779 52.1208 112.508 52.6388C112.723 52.7978 112.938 52.9758 113.181 53.1798C113.366 53.3348 113.572 53.5058 113.795 53.6838C113.816 53.7008 113.833 53.7158 113.854 53.7318C113.854 53.7328 113.855 53.7328 113.855 53.7328C113.855 53.7328 113.855 53.7328 113.856 53.7328C113.962 53.8188 114.107 53.8358 114.232 53.7768C114.279 53.7548 114.702 53.5438 114.893 52.9608C115.108 52.2988 114.934 51.4488 114.375 50.4358L113.983 49.7378C113.021 48.0278 112.696 47.4518 113.251 46.2958C113.572 45.6278 114.106 45.3998 114.496 45.3268C115.096 45.2138 115.765 45.4018 116.196 45.8078C116.859 46.4278 117.263 47.3458 117.421 47.7588C116.431 48.7098 116.798 50.4698 117.388 51.4318C117.716 51.9648 117.752 52.5908 117.753 52.6028C117.859 54.1938 117.238 55.3598 116.699 56.0588L117.272 56.4998C117.774 55.8478 118.601 54.4668 118.474 52.5618C118.473 52.5288 118.432 51.7488 118.003 51.0538C117.55 50.3138 117.216 48.9138 117.939 48.2548C118.005 48.1938 118.08 48.1458 118.154 48.0958C118.204 48.0618 118.254 48.0288 118.308 47.9988C118.363 47.9688 118.421 47.9438 118.479 47.9188C118.533 47.8958 118.587 47.8738 118.643 47.8558C118.702 47.8368 118.763 47.8238 118.824 47.8108C118.885 47.7978 118.947 47.7848 119.01 47.7788C119.067 47.7718 119.124 47.7718 119.181 47.7708C119.248 47.7698 119.314 47.7708 119.382 47.7768C119.475 47.7848 119.566 47.8038 119.657 47.8248C119.711 47.8378 119.764 47.8448 119.819 47.8628C119.916 47.8928 120.012 47.9388 120.107 47.9838C120.154 48.0068 120.2 48.0218 120.247 48.0478C120.365 48.1138 120.48 48.1968 120.594 48.2848C120.617 48.3038 120.641 48.3148 120.665 48.3348C120.803 48.4498 120.937 48.5808 121.066 48.7288C121.074 48.7388 121.792 49.5468 122.096 51.0588C121.922 51.0178 121.742 50.9878 121.554 50.9848H121.518C120.767 50.9848 120.102 51.3178 119.775 51.8588C118.978 53.1868 119.353 54.0318 119.684 54.7788C119.755 54.9398 119.827 55.1028 119.889 55.2728C120.15 55.9998 119.942 56.7478 119.252 57.5608L119.803 58.0268C120.662 57.0158 120.92 56.0068 120.568 55.0278C120.5 54.8408 120.422 54.6628 120.344 54.4868C120.034 53.7878 119.79 53.2358 120.395 52.2318C120.59 51.9068 121.019 51.7068 121.517 51.7068C121.525 51.7068 121.534 51.7068 121.543 51.7078C121.848 51.7118 122.13 51.7878 122.369 51.9228C122.371 51.9238 122.371 51.9258 122.373 51.9268C122.49 51.9928 122.594 52.0708 122.685 52.1598C122.737 52.2118 122.776 52.2748 122.82 52.3338C122.852 52.3788 122.893 52.4168 122.92 52.4658C122.972 52.5578 123.026 52.6808 123.08 52.7998C123.629 54.0218 124.18 56.5908 123.359 59.9668C122.499 63.5038 118.372 67.0538 117.852 67.4898ZM116.243 70.5878C113.844 71.5318 109.79 71.0578 108.397 70.0058C107.526 69.3478 107.324 68.5438 107.286 68.0608C107.891 68.2978 109.864 68.9738 112.71 68.9738C114.151 68.9738 115.821 68.7828 117.635 68.2888C117.505 70.0688 116.894 70.3318 116.243 70.5878ZM123.549 52.1098C123.459 51.9508 123.347 51.8108 123.222 51.6818C123.174 51.6328 123.119 51.5938 123.067 51.5488C123.007 51.4988 122.955 51.4408 122.889 51.3958C122.872 51.2708 122.846 51.1598 122.824 51.0418C122.806 50.9448 122.792 50.8448 122.771 50.7538C122.74 50.6128 122.703 50.4848 122.666 50.3558C122.642 50.2728 122.62 50.1848 122.595 50.1068C122.554 49.9838 122.512 49.8748 122.468 49.7648C122.441 49.6938 122.415 49.6188 122.387 49.5538C122.342 49.4498 122.298 49.3598 122.253 49.2678C122.225 49.2118 122.197 49.1488 122.17 49.0978C122.123 49.0098 122.08 48.9378 122.036 48.8638C122.012 48.8218 121.986 48.7748 121.963 48.7378C121.919 48.6688 121.882 48.6158 121.844 48.5618C121.825 48.5338 121.803 48.4988 121.786 48.4748C121.747 48.4228 121.72 48.3878 121.692 48.3538C121.682 48.3408 121.668 48.3218 121.66 48.3118C121.629 48.2748 121.609 48.2528 121.605 48.2478C121.471 48.0948 121.337 47.9668 121.204 47.8498C121.169 47.8188 121.135 47.7908 121.1 47.7618C120.968 47.6548 120.837 47.5568 120.708 47.4788C120.702 47.4748 120.697 47.4708 120.691 47.4668C120.547 47.3798 120.407 47.3148 120.27 47.2588C120.242 47.2468 120.213 47.2348 120.185 47.2238C120.04 47.1698 119.903 47.1298 119.772 47.1018C119.757 47.0988 119.742 47.0968 119.727 47.0938C119.598 47.0688 119.473 47.0508 119.362 47.0448C119.346 47.0438 119.33 47.0478 119.313 47.0468C119.24 47.0438 119.171 47.0518 119.1 47.0548C118.895 47.0638 118.695 47.0938 118.501 47.1488C118.471 47.1568 118.44 47.1608 118.412 47.1698C118.322 47.1988 118.238 47.2378 118.152 47.2758C118.111 47.2938 118.067 47.3068 118.027 47.3268C118.024 47.3188 118.018 47.3068 118.014 47.2978C117.966 47.1808 117.908 47.0528 117.838 46.9088C117.832 46.8958 117.828 46.8858 117.821 46.8728C117.748 46.7228 117.66 46.5638 117.563 46.3998C117.538 46.3578 117.511 46.3168 117.484 46.2738C117.405 46.1468 117.319 46.0218 117.225 45.8948C117.189 45.8458 117.154 45.7988 117.116 45.7508C116.986 45.5868 116.847 45.4268 116.69 45.2798C116.087 44.7148 115.193 44.4608 114.363 44.6168C113.579 44.7638 112.953 45.2488 112.601 45.9828C111.883 47.4778 112.375 48.3528 113.355 50.0928L113.742 50.7858C114.304 51.8018 114.309 52.3948 114.213 52.7148C114.178 52.8318 114.126 52.9198 114.077 52.9828C113.965 52.8888 113.857 52.7988 113.753 52.7098C113.478 52.4768 113.216 52.2568 112.935 52.0558C112.114 51.4478 111.243 51.0788 109.176 51.0018C109.121 50.9988 109.066 50.9978 109.013 50.9978C106.274 50.9978 103.835 53.5398 103.338 55.3448C103.006 56.5438 103.079 57.6068 103.543 58.3398C103.698 58.5858 103.897 58.7878 104.129 58.9408C103.525 59.0518 103.036 59.3218 102.69 59.7418C101.312 61.4198 102.617 63.9658 102.675 64.0768C102.746 64.2078 104.31 67.0758 106.555 67.8398C106.551 68.4098 106.704 69.6308 107.961 70.5818C108.94 71.3208 111.027 71.8138 113.104 71.8138C114.316 71.8138 115.525 71.6448 116.507 71.2598C117.479 70.8768 118.287 70.3498 118.376 67.9928C119.132 67.3578 123.162 63.8328 124.061 60.1368C124.134 59.8348 124.197 59.5398 124.251 59.2538C125.054 54.9508 123.714 52.4028 123.549 52.1098Z" fill="black"/>
<path fill-rule="evenodd" clip-rule="evenodd" d="M115.273 56.4548L115.162 57.1678C115.195 57.1738 118.434 57.7068 119.177 60.5828L119.877 60.4008C119.015 57.0708 115.425 56.4778 115.273 56.4548Z" fill="black"/>
<path fill-rule="evenodd" clip-rule="evenodd" d="M113.954 62.4207L113.763 63.1167C113.827 63.1357 115.332 63.5807 115.427 65.3217L116.147 65.2827C116.049 63.4657 114.67 62.6157 113.954 62.4207Z" fill="black"/>
<path fill-rule="evenodd" clip-rule="evenodd" d="M93.6313 146.983C93.6313 146.983 86.9623 145.944 82.8583 151.266L82.8663 151.25L81.2303 150.202C78.4883 153.66 73.1223 152.706 73.1223 152.706C73.1223 152.706 72.0623 159.145 73.1223 164.392C73.1223 164.392 88.8613 166.538 103.409 154.376C103.409 154.376 100.308 147.579 93.6313 146.983Z" fill="#FAE87F"/>
<path fill-rule="evenodd" clip-rule="evenodd" d="M28.2173 134.289C28.2173 134.289 16.3763 145.872 27.0483 162.26H29.9433C29.9433 162.26 38.7033 159.018 37.3623 149.947C37.0803 148.043 36.7143 146.513 36.3163 145.257L36.4673 145.496H37.7203C36.5273 142.497 38.3753 137.049 38.3753 137.049L28.2173 134.289Z" fill="#FAE87F"/>
<path fill-rule="evenodd" clip-rule="evenodd" d="M101.649 151.636L101.648 151.637C88.9808 163.199 72.7508 161.649 72.7508 161.649H72.7498C72.8228 162.573 72.9418 163.5 73.1228 164.392C73.1228 164.392 88.8618 166.538 103.409 154.376C103.409 154.376 102.835 153.117 101.649 151.636Z" fill="white"/>
<path fill-rule="evenodd" clip-rule="evenodd" d="M81.2306 150.202C81.2306 150.202 79.9786 144.697 79.2636 144.3C78.8906 144.093 78.2716 145.713 76.1826 146.347C74.2576 146.93 71.8506 145.371 71.8506 145.79C71.8506 146.665 73.1226 152.706 73.1226 152.706C73.1226 152.706 78.2096 153.898 81.2306 150.202Z" fill="white"/>
<path fill-rule="evenodd" clip-rule="evenodd" d="M28.2173 134.289C28.2173 134.289 16.2573 145.932 27.0483 162.26H29.9433C18.7613 147.005 30.7443 134.902 30.7443 134.902L28.2173 134.289Z" fill="white"/>
<path fill-rule="evenodd" clip-rule="evenodd" d="M33.3676 147.303C33.0736 147.566 34.3626 150.723 33.1886 152.588C32.2346 154.104 32.6376 156.472 34.0826 156.186C37.5446 155.501 34.0706 146.675 33.3676 147.303Z" fill="white"/>
<path fill-rule="evenodd" clip-rule="evenodd" d="M38.3756 137.049C36.4376 143.607 37.7196 145.497 37.7196 145.497C37.7196 145.497 44.6406 145.702 44.6516 145.255C44.6656 144.68 43.2626 143.528 43.3836 141.669C43.5116 139.7 44.7246 138.127 44.7246 137.943C44.7246 137.586 38.3756 137.049 38.3756 137.049Z" fill="white"/>
<path fill-rule="evenodd" clip-rule="evenodd" d="M92.588 150.888C94.309 152.149 96.284 150.709 95.271 149.368C94.192 147.94 87.282 149.278 87.61 149.904C87.938 150.53 90.77 149.556 92.588 150.888Z" fill="white"/>
<path fill-rule="evenodd" clip-rule="evenodd" d="M73.4259 164.061C73.3709 163.769 73.3229 163.464 73.2789 163.152C73.2639 163.045 73.2519 162.936 73.2379 162.828C73.2119 162.624 73.1869 162.418 73.1659 162.207C73.1599 162.15 73.1559 162.093 73.1499 162.037C75.8079 162.173 90.1539 162.383 101.595 152.17C102.302 153.095 102.756 153.896 102.958 154.281C100.073 156.662 97.1369 158.479 94.2879 159.862C85.3319 164.21 77.2369 164.276 74.3199 164.125C73.9219 164.104 73.6199 164.079 73.4259 164.061ZM72.5619 146.265C73.4579 146.577 74.9569 147.095 76.2879 146.693C77.6689 146.273 78.4529 145.449 78.9219 144.956C79.0009 144.872 79.0929 144.775 79.1649 144.707C79.5659 145.287 80.3099 147.821 80.8369 150.099C80.7819 150.165 80.7229 150.225 80.6659 150.287C80.5689 150.391 80.4739 150.498 80.3739 150.593C78.0379 152.77 74.3829 152.501 73.4229 152.384C73.0869 150.773 72.4009 147.384 72.2439 146.157C72.3459 146.191 72.4589 146.23 72.5619 146.265ZM80.9799 155.83C83.9499 145.966 93.1839 147.28 93.5989 147.342C97.0899 147.654 99.5859 149.753 101.139 151.602C89.7109 161.824 75.3249 161.439 73.0909 161.31C72.8479 157.734 73.2689 154.244 73.4249 153.131C73.7809 153.189 74.3579 153.258 75.0649 153.258C76.5029 153.258 78.4679 152.953 80.1819 151.682C80.3509 151.562 80.5149 151.431 80.6759 151.292C80.7059 151.265 80.7379 151.243 80.7679 151.215C80.9529 151.049 81.1329 150.872 81.3039 150.677L82.3479 151.346C81.5219 152.486 80.8099 153.89 80.2889 155.621L80.9799 155.83ZM103.737 154.226C103.734 154.219 103.718 154.184 103.693 154.133C103.678 154.102 103.657 154.062 103.634 154.014C103.624 153.995 103.616 153.98 103.605 153.958C102.956 152.681 99.8139 147.172 93.6869 146.626C93.6069 146.614 87.0039 145.661 82.7919 150.773L81.5499 149.977C81.1429 148.206 80.1909 144.403 79.4389 143.985C79.0529 143.771 78.7339 144.104 78.3979 144.457C77.9519 144.928 77.2769 145.638 76.0779 146.001C74.9709 146.337 73.6119 145.866 72.7979 145.583C72.1839 145.371 71.9039 145.275 71.6659 145.441C71.5709 145.509 71.4889 145.673 71.4889 145.79C71.4889 146.655 72.5809 151.888 72.7549 152.716C72.6689 153.259 72.0489 157.404 72.3909 161.677H72.3899C72.3919 161.71 72.3969 161.739 72.3999 161.772C72.4329 162.165 72.4749 162.558 72.5259 162.95C72.5379 163.046 72.5499 163.142 72.5629 163.236C72.6209 163.649 72.6869 164.059 72.7679 164.462C72.7989 164.613 72.9209 164.728 73.0729 164.748C73.1139 164.754 74.1509 164.885 75.9119 164.885C80.4939 164.885 89.9779 163.998 99.5479 157.697C100.915 156.797 102.284 155.787 103.64 154.653C103.765 154.548 103.804 154.373 103.737 154.226Z" fill="black"/>
<path fill-rule="evenodd" clip-rule="evenodd" d="M44.2262 138.135C43.8692 138.765 43.1262 140.075 43.0232 141.645C42.9372 142.967 43.5552 143.963 43.9642 144.622C44.0482 144.757 44.1502 144.923 44.2182 145.054C43.3832 145.196 40.5852 145.211 37.9852 145.143C37.7072 144.311 37.6432 143.305 37.7022 142.285C37.7092 142.193 37.7142 142.102 37.7232 142.005C37.7252 141.974 37.7282 141.942 37.7312 141.911C37.8382 140.776 38.1012 139.308 38.6392 137.433C40.9532 137.635 43.4112 137.919 44.2382 138.115C44.2342 138.122 44.2302 138.128 44.2262 138.135ZM37.0052 149.999C38.1772 157.923 31.4972 161.212 30.0762 161.816C20.2592 148.16 29.3542 136.996 30.8082 135.366L37.9172 137.297C37.6562 138.148 37.0532 140.325 36.9692 142.473C36.8992 143.802 37.0432 144.646 37.1892 145.135H36.6632C35.1712 140.435 33.1802 139.646 33.0742 139.607L32.8222 140.282C32.8512 140.294 35.7532 141.537 37.0052 149.999ZM27.2442 161.899C17.6742 147.019 27.0472 136.074 28.3302 134.693L30.0292 135.154C29.1162 136.214 27.0572 138.89 25.8072 142.748C24.3582 147.219 23.8112 154.128 29.2412 161.899H27.2442ZM45.0862 137.943C45.0862 137.573 45.0842 137.254 38.4422 136.692L31.0142 134.674C30.9652 134.616 30.9052 134.569 30.8292 134.551L28.3262 133.944L28.3122 133.94C28.3112 133.94 28.3112 133.94 28.3102 133.94L28.3022 133.938C28.2522 133.925 28.2012 133.931 28.1512 133.94C28.1422 133.942 28.1342 133.938 28.1262 133.94C28.0672 133.956 28.0112 133.986 27.9652 134.03C27.8412 134.151 24.8932 137.059 23.2432 142.037C21.7232 146.625 21.0962 153.883 26.7242 162.423C26.7312 162.434 26.7372 162.446 26.7452 162.457C26.7452 162.458 26.7462 162.458 26.7462 162.458C26.7462 162.458 26.7462 162.459 26.7472 162.459C26.7612 162.481 26.7852 162.493 26.8042 162.511C26.8702 162.576 26.9532 162.621 27.0482 162.621H29.9432C29.9862 162.621 30.0282 162.614 30.0692 162.599C30.1592 162.565 39.0882 159.148 37.7192 149.894C37.4872 148.323 37.1982 146.99 36.8782 145.858H37.7092C38.9512 145.894 40.0342 145.912 40.9572 145.912C43.3132 145.912 44.6282 145.793 44.8782 145.556C44.9482 145.49 45.0092 145.36 45.0122 145.263C45.0192 144.954 44.8242 144.64 44.5772 144.241C44.1952 143.626 43.6722 142.783 43.7442 141.692C43.8352 140.288 44.5232 139.074 44.8542 138.491C45.0232 138.195 45.0862 138.083 45.0862 137.943Z" fill="black"/>
</svg>
