<svg width="530" height="400" viewBox="0 0 530 400" fill="none" xmlns="http://www.w3.org/2000/svg">
<path fill-rule="evenodd" clip-rule="evenodd" d="M120.134 77.6721L120.134 77.6719C123.996 55.2948 126.998 37.9074 126.998 24.7659C126.998 15.5509 122.966 10.6549 114.327 10.6549C99.0637 10.6549 69.1147 43.4849 69.1147 116.919V253.132C69.1147 370.915 71.9947 392.801 87.2567 392.801C95.6087 392.801 103.384 376.386 103.384 319.654V251.98C103.384 174.706 113.162 118.061 120.134 77.6721ZM0.575695 400L-0.000305176 398.848C12.6707 390.497 21.5987 375.81 21.5987 247.66V115.767C19.8707 21.3099 11.5187 8.63891 0.287695 1.15191L0.863695 -9.15527e-05C17.8547 6.04791 29.6617 8.35091 44.3487 8.35091H46.6527C61.6267 8.35091 69.4027 9.50291 69.4027 20.1589C69.4027 25.6217 66.3762 36.4648 62.9935 48.584L62.9935 48.584L62.9935 48.5841C58.7084 63.9363 53.8517 81.3362 53.8517 92.4409C53.8517 96.1839 55.0037 97.9119 57.0197 97.9119C58.1717 97.9119 60.1877 97.3359 60.7627 93.8809C69.4027 37.4369 88.6967 1.15191 119.511 1.15191C150.324 1.15191 169.043 9.79091 169.043 37.7249C169.043 49.9519 166.651 68.0819 163.618 91.0698L163.618 91.07V91.0702C158.364 130.887 151.188 185.277 151.188 248.812V284.233C152.916 378.69 161.267 391.361 172.498 398.848L171.923 400C154.932 393.953 143.125 391.649 128.438 391.649C121.346 391.649 114.69 393.467 108.069 395.276L108.069 395.276C101.516 397.067 94.9965 398.848 88.1207 398.848C81.6494 398.848 75.244 397.202 68.5583 395.485L68.558 395.485C61.2603 393.61 53.6285 391.649 45.2127 391.649H44.0607C29.3737 391.649 17.5667 393.953 0.575695 400ZM339.044 320.773C333.684 310.634 328.292 300.433 328.292 288.265C328.292 270.122 334.052 244.204 349.603 211.375L345.571 209.647C337.746 224.714 325.467 233.765 313.635 242.487C296.294 255.269 279.912 267.345 279.912 296.616C279.912 314.573 286.792 330.362 292.68 343.876C297.085 353.985 300.934 362.821 300.934 370.338C300.934 385.601 291.719 390.497 270.409 390.497C249.675 390.497 240.747 385.601 240.747 370.338C240.747 362.662 244.74 353.708 249.292 343.5C255.327 329.964 262.346 314.223 262.346 296.328C262.346 257.533 241.68 242.342 224.452 229.679C212.139 220.628 201.582 212.868 201.582 198.704C201.582 174.514 220.301 160.403 231.82 160.403C239.527 160.403 244.124 167.727 249.853 176.853C259.323 191.939 271.885 211.951 306.694 211.951C332.036 211.951 338.659 200.72 338.659 183.441C338.659 174.018 336.683 165.479 334.41 155.659C331.335 142.369 327.716 126.733 327.716 103.384C327.716 93.0128 331.361 83.0622 335.054 72.9791L335.054 72.9788C338.847 62.6233 342.691 52.1278 342.691 40.8931C342.691 12.6711 315.333 1.15211 270.409 1.15211C224.909 1.15211 198.991 12.6711 198.991 40.8931C198.991 52.0901 202.956 62.6262 206.882 73.0578C210.731 83.2843 214.541 93.4103 214.541 103.96C214.541 132.912 206.478 152.308 199.833 168.293C195.176 179.496 191.215 189.024 191.215 198.992C191.215 209.321 194.872 219.55 199.136 231.476C205.095 248.144 212.238 268.126 212.238 296.328C212.238 306.696 207.343 315.479 202.447 324.262C197.551 333.045 192.655 341.829 192.655 352.196C192.655 387.617 222.893 398.848 270.409 398.848C319.365 398.848 349.603 387.617 349.603 352.484C349.603 340.748 344.34 330.79 339.044 320.773ZM307.558 201.584C272.425 201.584 256.874 177.106 256.874 149.748C256.874 140.901 258.592 132.289 260.239 124.033L260.239 124.033C261.755 116.432 263.21 109.134 263.21 102.232C263.21 85.3902 256.836 70.0054 251.256 56.5387L251.256 56.5386C246.913 46.0574 243.051 36.7382 243.051 28.7981C243.051 14.3991 251.114 9.50311 270.409 9.50311C290.279 9.50311 298.919 14.3991 298.919 28.7981C298.919 36.6539 295.031 45.8058 290.623 56.1835L290.622 56.184C284.85 69.7722 278.184 85.462 278.184 103.096C278.184 126.929 294.415 142.225 308.348 155.356C318.826 165.231 328.004 173.881 328.004 184.017C328.004 195.824 321.957 201.584 307.558 201.584ZM408.925 227.789C408.925 211.951 414.685 208.207 423.324 208.207C446.362 208.207 460.473 220.878 460.473 289.129C460.473 355.651 437.147 386.753 423.036 386.753C417.564 386.753 415.549 384.737 415.549 379.841C415.549 376.773 417.42 369.893 419.876 360.864C424.566 343.625 431.387 318.548 431.387 297.192C431.387 279.045 424.758 267.102 418.702 256.192C413.611 247.019 408.925 238.576 408.925 227.789ZM377.938 326.103C376.58 334.68 375.232 343.195 375.232 353.059C375.232 387.329 391.359 398.848 416.125 398.848C445.21 398.848 461.049 364.291 468.824 310.151C469.4 306.695 471.128 306.119 472.28 306.119C474.584 306.119 475.736 307.847 475.736 311.303C475.736 322.722 470.838 339.593 466.592 354.221C463.341 365.417 460.473 375.299 460.473 380.417C460.473 389.921 468.536 391.648 482.071 391.648H485.239C500.214 391.648 512.021 393.952 529.012 400L529.587 398.848C516.917 390.496 507.989 375.234 507.989 249.388V248.812C507.989 218.942 511.022 184.797 514.12 149.92C517.355 113.513 520.66 76.3075 520.66 42.3323C520.66 12.3833 497.622 1.15231 457.305 1.15231C446.238 1.15231 436.606 3.09259 427.768 4.87277C420.278 6.38154 413.358 7.77531 406.621 7.77531C400.862 7.77531 395.39 5.47131 389.343 0.000308447L387.903 1.15231C395.966 17.8543 404.605 43.4843 404.605 80.9213C404.605 128.437 404.605 157.235 402.59 187.473H406.333C414.109 125.846 424.764 73.7223 436.571 39.4533C444.634 18.1423 450.682 8.92731 459.321 8.92731C466.233 8.92731 469.112 14.3993 469.112 27.0703C469.112 51.7217 467.674 77.5838 466.273 102.795C464.941 126.768 463.641 150.152 463.641 171.346C463.641 198.992 469.976 233.549 476.024 266.09C476.6 269.834 475.448 272.426 472.856 272.426C470.552 272.426 469.4 270.122 469.112 267.242C465.945 232.973 459.321 199.28 423.612 199.28C393.662 199.28 374.08 209.647 374.08 243.34C374.08 249.066 375.216 254.742 376.547 261.392C378.43 270.797 380.703 282.15 380.703 298.344C380.703 308.64 379.315 317.403 377.938 326.103Z" fill="#DC302B"/>
</svg>
