<svg width="96" height="96" viewBox="0 0 96 96" fill="none" xmlns="http://www.w3.org/2000/svg">
<g clip-path="url(#clip0_338_1040)">
<path d="M76.6763 51.9418C74.6102 38.9518 66.996 38.9614 64.0402 38.5501C62.2706 32.8968 55.8139 28.8027 47.157 30.5245C47.0683 24.5725 47.3078 18.6201 47.8744 12.6944C48.831 1.67484 29.7477 -0.812206 30.7234 12.6944C31.345 21.1468 30.7978 29.6445 29.0972 37.9474C26.8685 38.617 18.9003 45.4181 18.3264 56.0168C17.8577 64.5014 24.458 77.061 33.2296 83.0777L32.0626 82.9917C30.1495 86.1196 31.9382 89.6876 35.9749 92.1746C40.3846 94.8434 53.2503 96.1347 58.454 93.4851C62.1271 91.572 64.8533 89.0658 62.4428 85.0961H61.9932L62.2706 84.9239C70.2196 79.0698 74.2371 71.5321 76.0546 62.1962C76.8252 58.8356 77.0353 55.3709 76.6763 51.9418V51.9418Z" fill="white"/>
<path d="M77.9773 51.7409C75.9207 38.837 68.3448 37.737 65.0064 37.3065C63.0072 32.2272 57.2104 27.7984 48.4579 28.9271C48.428 23.5297 48.6706 18.1342 49.1849 12.7613C49.37 10.9976 49.0458 9.21793 48.2507 7.63285C47.4556 6.04776 46.2229 4.72371 44.6987 3.81748C43.0491 2.75815 41.1446 2.16266 39.1853 2.09365C37.2261 2.02464 35.2844 2.48467 33.5643 3.42532C30.5894 5.22365 29.1164 8.51416 29.4225 12.7134C30.0262 20.8226 29.5307 28.9762 27.9494 36.9526C24.7258 38.6648 17.5803 45.6381 17.0255 55.8733C16.5664 64.2049 22.3535 76.0566 30.666 82.7525C29.9837 84.083 29.807 85.6158 30.1686 87.0666C30.7234 89.3719 32.5504 91.5624 35.3053 93.2268C38.261 95.0155 44.3447 96.173 49.9023 96.173C53.499 96.173 56.8852 95.6852 59.0566 94.5756C62.1845 92.9781 63.9063 91.2946 64.4802 89.2763C64.8432 87.8875 64.6725 86.4131 64.002 85.1439C71.1666 79.5481 75.4233 72.2687 77.3938 62.3492C78.1833 58.8711 78.3806 55.2847 77.9773 51.7409ZM61.9167 88.5779C61.5628 89.831 60.2236 91.0267 57.8226 92.2511C53.1164 94.6521 40.8055 93.5234 36.6253 90.998C34.7841 90.0413 33.3753 88.4206 32.6843 86.464C32.511 85.7668 32.551 85.0337 32.7991 84.3595C34.4715 85.4848 36.2898 86.3763 38.2036 87.0092C42.2116 88.1175 46.3565 88.6522 50.5145 88.5971C54.7329 88.5971 58.9322 88.0614 61.7445 86.684C62.0035 87.2805 62.0639 87.9445 61.9167 88.5779V88.5779ZM74.7345 61.8613C72.8214 71.5321 68.6317 78.4959 61.4671 83.7761C57.3443 86.8179 44.7465 86.3874 39.0167 84.5126C28.1215 80.9446 19.0821 65.6206 19.6082 56.0359L18.2977 55.9594L19.6082 56.0359C19.7984 53.0555 20.5857 50.1436 21.9233 47.4734C23.2609 44.8031 25.1215 42.429 27.3946 40.4919C26.1032 48.1443 24.0562 58.0925 24.831 61.737C25.5962 59.1543 30.2355 39.9562 30.7425 36.0247C32.1748 28.281 32.6024 20.3848 32.0147 12.5317C31.7851 9.32723 32.78 6.96457 34.8844 5.69235C36.1891 5.00851 37.6514 4.68194 39.1231 4.74578C40.5947 4.80962 42.0233 5.2616 43.2638 6.05585C44.3721 6.70615 45.2698 7.66158 45.8499 8.80817C46.43 9.95475 46.6679 11.244 46.5353 12.5221C45.9672 18.4893 45.7245 24.4831 45.8083 30.4767V30.4767C45.8561 36.9143 46.6692 41.9554 50.4763 46.9582C49.1084 43.3615 48.4962 36.7613 48.4197 31.5672C55.9956 30.4672 60.941 34.1212 62.548 38.3301C63.7915 41.9267 65.1594 45.9825 67.1299 48.0965C66.6038 46.8242 66.1064 43.0841 65.5612 40.0136C68.8326 40.5397 73.7493 42.1467 75.3372 52.1236C75.6941 55.3787 75.5 58.6707 74.7632 61.8613H74.7345Z" fill="black"/>
<path d="M59.7549 67.572C59.4164 67.4906 59.0595 67.5451 58.7608 67.724C58.4621 67.9028 58.2455 68.1917 58.1574 68.5286C57.9661 69.3129 57.8227 70.0112 57.6792 70.7095C57.0798 73.7755 56.1331 76.7633 54.8573 79.615C54.7242 79.9359 54.724 80.2966 54.8568 80.6177C54.9895 80.9388 55.2443 81.194 55.5652 81.3273C55.7245 81.3987 55.8975 81.4346 56.0722 81.4325C56.3311 81.4325 56.5844 81.3563 56.8004 81.2134C57.0164 81.0706 57.1856 80.8673 57.287 80.629C58.6274 77.62 59.6222 74.4687 60.2523 71.2356C60.3958 70.5755 60.5297 69.906 60.7114 69.1599C60.7543 68.9927 60.7634 68.8188 60.7384 68.6481C60.7133 68.4774 60.6546 68.3134 60.5656 68.1656C60.4766 68.0179 60.3591 67.8893 60.2199 67.7874C60.0807 67.6854 59.9226 67.6123 59.7549 67.572V67.572Z" fill="black"/>
<path d="M51.2702 63.124C50.9229 63.1107 50.5839 63.233 50.3251 63.465C50.0663 63.6971 49.9078 64.0207 49.8832 64.3675C49.8163 65.6971 49.7685 66.931 49.7302 68.1937C49.6394 72.2607 49.2944 76.3181 48.6971 80.342C48.6478 80.6868 48.7367 81.0371 48.9446 81.3166C49.1524 81.5962 49.4623 81.7822 49.8067 81.8342H49.998C50.3141 81.833 50.6192 81.7184 50.8579 81.5112C51.0967 81.3041 51.2531 81.0182 51.2989 80.7055C51.9162 76.5648 52.2676 72.3889 52.3511 68.2033C52.399 66.9885 52.4372 65.7736 52.5138 64.4632C52.5193 64.1226 52.3929 63.7931 52.1612 63.5436C51.9295 63.294 51.6102 63.1437 51.2702 63.124V63.124Z" fill="black"/>
<path d="M43.3595 69.8773C43.3463 69.7045 43.2988 69.5361 43.2196 69.3819C43.1404 69.2277 43.0312 69.0909 42.8984 68.9795C42.7657 68.8681 42.612 68.7844 42.4464 68.7333C42.2808 68.6821 42.1067 68.6645 41.9342 68.6816C41.5863 68.7156 41.2658 68.8852 41.042 69.1537C40.8182 69.4223 40.7092 69.7681 40.7385 70.1164C40.815 70.9008 40.8916 71.6373 40.9681 72.3739C41.3127 75.1948 41.4629 78.0361 41.4177 80.8777C41.4152 81.0506 41.4469 81.2223 41.511 81.3829C41.5751 81.5434 41.6704 81.6897 41.7913 81.8133C41.9122 81.9369 42.0564 82.0354 42.2156 82.103C42.3747 82.1706 42.5457 82.2061 42.7186 82.2073V82.2073C43.0645 82.2099 43.3974 82.0756 43.6447 81.8336C43.892 81.5917 44.0336 81.2618 44.0386 80.9159C44.0809 77.9692 43.9275 75.0229 43.5795 72.0965C43.5125 71.3695 43.4265 70.6521 43.3595 69.8773Z" fill="black"/>
</g>
<defs>
<clipPath id="clip0_338_1040">
<rect width="96" height="96" fill="white"/>
</clipPath>
</defs>
</svg>
