<svg width="96" height="96" viewBox="0 0 96 96" fill="none" xmlns="http://www.w3.org/2000/svg">
<g clip-path="url(#clip0_338_1044)">
<path d="M48.4564 94.9646C71.7224 94.9646 90.5831 76.1038 90.5831 52.8378C90.5831 29.5719 71.7224 10.7111 48.4564 10.7111C25.1904 10.7111 6.32965 29.5719 6.32965 52.8378C6.32965 76.1038 25.1904 94.9646 48.4564 94.9646Z" fill="white"/>
<path d="M48.4564 96.2846C39.863 96.2865 31.4621 93.74 24.316 88.9671C17.17 84.1943 11.5998 77.4095 8.30995 69.4708C5.0201 61.5321 4.15835 52.7961 5.83367 44.3677C7.509 35.9392 11.6461 28.1968 17.7219 22.1197C23.7976 16.0426 31.5392 11.9037 39.9673 10.2265C48.3954 8.54934 57.1315 9.40921 65.0709 12.6973C73.0103 15.9854 79.7964 21.5541 84.5708 28.6991C89.3452 35.8441 91.8936 44.2445 91.8936 52.8378C91.881 64.3551 87.3008 75.3971 79.1577 83.542C71.0147 91.6868 59.9736 96.2694 48.4564 96.2846V96.2846ZM48.4564 12.0311C40.3829 12.0292 32.4901 14.4217 25.7764 18.9059C19.0628 23.3902 13.8298 29.7647 10.7393 37.2233C7.64882 44.6818 6.83974 52.8894 8.41434 60.8079C9.98894 68.7263 13.8765 76 19.5853 81.7088C25.2942 87.4177 32.5678 91.3052 40.4863 92.8798C48.4048 94.4544 56.6123 93.6453 64.0709 90.5548C71.5295 87.4644 77.9041 82.2313 82.3883 75.5177C86.8725 68.804 89.265 60.9113 89.2631 52.8378C89.2454 42.0224 84.9398 31.6553 77.2904 24.0095C69.6409 16.3636 59.2718 12.0629 48.4564 12.0502V12.0311Z" fill="black"/>
<path d="M42.0475 67.9227C42.0475 67.9227 41.1865 69.061 44.3527 73.3273C45.0257 74.2521 45.8833 75.0271 46.8712 75.6034C47.8591 76.1797 48.9558 76.5447 50.0921 76.6752C50.0921 76.6752 49.633 73.069 53.5262 68.1523C56.6446 64.2209 66.0762 59.2755 66.918 56.5493C67.0041 56.2432 62.3648 62.1547 54.8271 61.4468C47.2894 60.739 45.6059 57.4197 45.2615 56.4153C45.9671 59.0772 45.6603 61.906 44.4006 64.3548" fill="#020204"/>
<path d="M51.4026 77.8996L50.0443 77.8422C48.7318 77.7039 47.4629 77.2918 46.3195 76.6328C45.176 75.9738 44.1834 75.0823 43.4058 74.016C40.2109 69.6924 40.5935 67.894 41.11 67.2053L43.0231 68.6114C43.0794 68.5368 43.1216 68.4525 43.1475 68.3627C43.1475 68.3627 42.9945 69.4628 45.3285 72.629C46.2483 73.876 47.5417 74.7974 49.0208 75.2595C49.4922 72.3617 50.7495 69.6487 52.6557 67.4157C54.3294 65.5564 56.2211 63.9056 58.2899 62.499C57.1221 62.6806 55.936 62.7128 54.7601 62.5947C51.9414 62.4623 49.2082 61.5843 46.8398 60.0502C46.7409 61.7457 46.2777 63.3998 45.4816 64.9L43.4154 63.7999C44.5594 61.6127 44.8329 59.0734 44.1807 56.6927L46.4285 56.0327C46.5529 56.3962 47.8251 59.6006 54.9801 60.2702C57.6967 60.5285 61.8004 59.9737 65.9136 55.9083C66.0978 55.6569 66.3662 55.48 66.6699 55.4097C66.9736 55.3395 67.2925 55.3807 67.5684 55.5257L68.3528 56.004L68.0754 56.884C67.5493 58.6058 65.2057 60.4041 61.3125 63.1973C58.6246 65.1104 55.8601 67.1479 54.4922 68.8697C51.0008 73.2699 51.2974 76.5222 51.2974 76.5222L51.4026 77.8996Z" fill="black"/>
<path d="M49.4416 83.792C48.7966 83.7899 48.1542 83.7096 47.5285 83.5529C45.6512 83.139 43.9123 82.2481 42.4797 80.9663C41.0471 79.6845 39.9692 78.055 39.3499 76.2352C39.2861 75.9093 39.3475 75.5714 39.5218 75.2888C39.6961 75.0061 39.9705 74.7996 40.2903 74.7103C40.6102 74.6209 40.9519 74.6554 41.2474 74.8069C41.5429 74.9583 41.7705 75.2156 41.8848 75.5273C42.3827 76.8956 43.2195 78.1152 44.3169 79.0721C45.4144 80.029 46.7365 80.6919 48.1597 80.9989C51.919 81.9554 53.8991 78.5118 53.8991 78.4735C54.0825 78.1937 54.3655 77.994 54.6905 77.9148C55.0156 77.8356 55.3586 77.8828 55.6502 78.0468C55.9419 78.2108 56.1603 78.4795 56.2614 78.7984C56.3625 79.1174 56.3387 79.4628 56.1948 79.7649C55.5016 80.9524 54.5185 81.9448 53.3374 82.6491C52.1564 83.3534 50.816 83.7466 49.4416 83.792V83.792Z" fill="black"/>
<path d="M55.7166 63.1878C55.7709 63.0155 55.7888 62.8338 55.769 62.6543C55.7493 62.4748 55.6923 62.3014 55.6018 62.1451C55.3722 62.1451 54.9226 62.1451 54.6452 62.0877C49.5277 61.6094 47.165 59.9259 46.0362 58.6058C45.6251 59.338 45.3955 60.158 45.3667 60.9972C46.5948 61.9075 47.9479 62.6356 49.3842 63.1591C50.9625 63.6373 55.3053 64.8905 55.7166 63.1878Z" fill="white"/>
<path d="M47.012 69.5776C45.3284 67.894 43.2623 67.4349 41.9805 68.4679C42.4993 69.9413 43.2696 71.3135 44.2571 72.5237C45.1682 73.7616 46.4027 74.7247 47.825 75.3073C47.9582 75.2279 48.0804 75.1315 48.1885 75.0204C49.4703 73.7769 48.8199 71.3568 47.012 69.5776Z" fill="white"/>
<path d="M27.46 56.3197L25.8434 54.6265C26.1495 54.33 33.4384 47.4811 42.8223 50.322L42.1431 52.5604C34.0985 50.1307 27.5174 56.2527 27.46 56.3197Z" fill="#1A1A18"/>
<path d="M28.5314 54.0048C28.5314 54.0048 22.8973 37.9825 29.488 31.2101C29.488 31.2101 33.6299 27.7378 37.3604 31.2866C41.4832 35.2276 41.6076 46.4767 40.8232 51.0395C38.6837 50.5665 36.4645 50.5877 34.3345 51.1015C32.2045 51.6154 30.2199 52.6083 28.5314 54.0048V54.0048Z" fill="white"/>
<path d="M38.2403 30.3396C34.6246 26.8864 30.3679 28.7326 28.6748 30.1961L28.5696 30.2918C21.5198 37.5616 27.0966 53.7561 27.3357 54.4448C27.409 54.6432 27.5275 54.8218 27.6819 54.9663C27.8364 55.1107 28.0224 55.2171 28.2252 55.277C28.3428 55.291 28.4616 55.291 28.5791 55.277C28.8838 55.2756 29.1784 55.1673 29.4113 54.9709C30.9297 53.7026 32.7181 52.7984 34.6397 52.3275C36.5613 51.8567 38.5651 51.8317 40.4978 52.2543C40.6739 52.3056 40.859 52.3185 41.0405 52.2921C41.2221 52.2656 41.3959 52.2006 41.5501 52.1013C41.7059 52.003 41.8392 51.873 41.9414 51.7197C42.0436 51.5664 42.1124 51.3933 42.1432 51.2117C42.7745 47.3089 43.1284 35.0076 38.2403 30.3396ZM39.6848 49.4707C36.0368 49.0134 32.3441 49.8495 29.2488 51.8334C28.0722 47.6724 25.6999 37.0546 30.3583 32.1475C30.8749 31.7457 33.7732 29.6796 36.4324 32.2145C39.6656 35.3328 40.23 44.3914 39.6848 49.4994V49.4707Z" fill="black"/>
<path d="M28.3305 54.0048C28.3305 54.0048 22.9546 38.6999 29.1818 31.2101C30.0427 30.177 35.4282 27.2691 36.0212 39.58C35.0767 39.8603 34.2627 40.4674 33.7248 41.2928C33.1868 42.1182 32.9598 43.108 33.0845 44.0853C33.0845 44.0853 35.0646 41.6748 36.6716 42.3922C37.1477 45.1852 37.0763 48.0442 36.4612 50.8099C36.4612 50.8099 33.7063 49.7194 28.3305 54.0048Z" fill="#020204"/>
<path d="M59.0073 52.8569C59.0073 52.8569 53.3732 36.8251 59.9638 30.0622C59.9638 30.0622 64.1153 26.5899 67.8363 30.1387C71.959 34.0797 72.0834 45.3289 71.299 49.8821C69.1588 49.4117 66.9395 49.4352 64.8097 49.9507C62.6799 50.4661 60.6956 51.46 59.0073 52.8569V52.8569Z" fill="white"/>
<path d="M59.0072 54.1387C58.89 54.1573 58.7706 54.1573 58.6533 54.1387C58.4487 54.0824 58.2609 53.9772 58.1059 53.8323C57.951 53.6873 57.8335 53.5069 57.7637 53.3065C57.5245 52.6274 51.9479 36.4329 59.0072 29.163C59.0341 29.1265 59.0664 29.0942 59.1029 29.0673C60.8534 27.6038 65.11 25.7577 68.7258 29.2109C73.6138 33.8788 73.2599 46.1706 72.552 50.1307C72.5212 50.3124 72.4525 50.4855 72.3503 50.6388C72.2482 50.7921 72.1148 50.9221 71.9589 51.0203C71.8029 51.1153 71.6292 51.1778 71.4484 51.2041C71.2676 51.2304 71.0834 51.22 70.9068 51.1734C68.974 50.7515 66.9703 50.7768 65.0489 51.2477C63.1274 51.7185 61.339 52.6223 59.8203 53.89C59.5865 54.0651 59.299 54.1531 59.0072 54.1387V54.1387ZM60.8438 30.9996C56.1758 35.9067 58.5481 46.5245 59.7247 50.676C62.8237 48.701 66.5131 47.8657 70.1606 48.3133C70.7059 43.2052 70.1607 34.1562 66.9084 31.0952C64.2301 28.5317 61.2646 30.6935 60.8438 31.0283V30.9996Z" fill="black"/>
<path d="M58.6533 52.5413C58.6533 52.5413 53.4975 37.5138 59.6099 30.0622C60.4516 29.0291 65.7127 26.1212 66.3058 38.4321C65.3734 38.7217 64.5737 39.3321 64.0484 40.155C63.5231 40.978 63.3063 41.9603 63.4361 42.9279C63.4361 42.9279 65.3491 40.5269 66.9466 41.2444C67.4174 44.0374 67.3493 46.8947 66.7457 49.6621C66.7457 49.6621 63.9144 48.2559 58.6533 52.5413Z" fill="#020204"/>
<path d="M25.8912 67.0714C27.4674 68.715 29.4969 69.8527 31.7214 70.3397C33.946 70.8266 36.2651 70.6409 38.3838 69.8061C40.5025 68.9714 42.3251 67.5252 43.6197 65.6517C44.9142 63.7782 45.6222 61.562 45.6536 59.285C45.6245 57.1093 44.9775 54.9866 43.7881 53.1645C42.5988 51.3424 40.9159 49.8959 38.9359 48.9936C36.9558 48.0913 34.7601 47.7704 32.6047 48.0682C30.4492 48.3661 28.4227 49.2705 26.7616 50.676C26.3922 50.9419 25.9542 51.0959 25.4996 51.1197C25.0451 51.1434 24.5932 51.0359 24.1981 50.8099" fill="white"/>
<path d="M34.2036 71.9115C32.474 71.9201 30.7609 71.5758 29.1689 70.8999C27.5768 70.2239 26.1393 69.2304 24.9442 67.9801C24.7032 67.7264 24.5728 67.3873 24.5818 67.0375C24.5908 66.6877 24.7383 66.3558 24.992 66.1148C25.2457 65.8738 25.5847 65.7434 25.9345 65.7524C26.2844 65.7613 26.6163 65.9089 26.8574 66.1626C28.2023 67.5885 29.9361 68.5883 31.8439 69.0383C33.7517 69.4882 35.7495 69.3684 37.5899 68.6937C39.4302 68.0191 41.0322 66.8192 42.1972 65.2429C43.3621 63.6665 44.0388 61.7829 44.1436 59.8256C44.2483 57.8683 43.7764 55.9233 42.7863 54.2316C41.7961 52.5399 40.3314 51.176 38.5735 50.3088C36.8157 49.4416 34.8419 49.1094 32.897 49.3532C30.9521 49.597 29.1215 50.4061 27.6321 51.6804C27.0602 52.116 26.3737 52.3752 25.6566 52.4261C24.9396 52.4771 24.2232 52.3176 23.5955 51.9673C23.4435 51.8857 23.309 51.7749 23.1999 51.6413C23.0907 51.5077 23.0088 51.3539 22.9591 51.1887C22.9093 51.0234 22.8927 50.8501 22.9099 50.6784C22.9272 50.5067 22.9781 50.3401 23.0597 50.1881C23.1414 50.0361 23.2523 49.9017 23.3859 49.7925C23.5195 49.6833 23.6732 49.6016 23.8385 49.5518C24.0037 49.5021 24.1771 49.4854 24.3487 49.5027C24.5204 49.5199 24.6869 49.5708 24.8389 49.6525C25.0082 49.7628 25.2061 49.8215 25.4082 49.8215C25.6102 49.8215 25.808 49.7628 25.9773 49.6525C27.5274 48.3066 29.3809 47.3568 31.3787 46.8844C33.3765 46.4121 35.459 46.4314 37.4478 46.9406C39.4365 47.4498 41.272 48.4338 42.797 49.8081C44.322 51.1825 45.4909 52.9062 46.2035 54.8314C46.916 56.7567 47.151 58.826 46.8883 60.862C46.6255 62.8981 45.8729 64.84 44.6949 66.5212C43.5169 68.2025 41.9487 69.573 40.1248 70.5151C38.3009 71.4573 36.2756 71.943 34.2228 71.9306L34.2036 71.9115Z" fill="black"/>
<path d="M50.6278 78.0526H49.9869C48.6664 77.9145 47.3891 77.5029 46.2363 76.8442C45.0835 76.1855 44.0804 75.294 43.291 74.2264C40.3352 70.228 40.3257 68.2958 40.9092 67.3583C41.1017 66.9971 41.3124 66.6459 41.5405 66.3061C41.7532 66.043 42.0588 65.8717 42.3942 65.8274C42.7296 65.7831 43.0691 65.8692 43.3428 66.0681C43.6165 66.2669 43.8035 66.5632 43.865 66.8959C43.9266 67.2285 43.8581 67.5722 43.6736 67.8558C43.5215 68.0811 43.3809 68.3142 43.2527 68.554C43.2527 68.8027 43.4153 69.9697 45.4049 72.6576C45.9644 73.4316 46.6784 74.0811 47.5016 74.5652C48.3248 75.0493 49.2394 75.3573 50.1877 75.4699C54.4157 75.8525 55.3245 70.1036 55.3627 69.8549C55.3879 69.6841 55.4464 69.5199 55.535 69.3717C55.6236 69.2235 55.7405 69.0941 55.8791 68.9911C56.0176 68.888 56.1751 68.8133 56.3425 68.7712C56.51 68.729 56.6842 68.7202 56.855 68.7453C57.0259 68.7705 57.19 68.829 57.3382 68.9176C57.4864 69.0062 57.6158 69.1231 57.7189 69.2616C57.8219 69.4002 57.8966 69.5577 57.9387 69.7251C57.9809 69.8926 57.9897 70.0667 57.9645 70.2376C57.5341 72.9255 55.5063 78.0526 50.6278 78.0526Z" fill="black"/>
<path d="M54.4541 68.8792L52.6175 67.4253C54.2911 65.5659 56.1828 63.9151 58.2516 62.5086C57.0839 62.6902 55.8978 62.7223 54.7219 62.6042C46.4956 61.8294 44.5633 57.965 44.1998 56.7884L46.419 56.0422C46.5433 56.4057 47.8155 59.6102 54.9705 60.2798C57.6872 60.5381 61.7908 59.9833 65.904 55.9179C66.0883 55.6664 66.3567 55.4895 66.6605 55.4192C66.9642 55.349 67.2829 55.3902 67.5589 55.5353C67.7817 55.6738 67.9523 55.8822 68.044 56.128C68.1358 56.3737 68.1435 56.643 68.0659 56.8936C67.5398 58.6154 65.1961 60.4137 61.3029 63.2068C58.5863 65.1487 55.822 67.1574 54.4541 68.8792Z" fill="black"/>
<path d="M61.3603 51.8621C63.3595 50.169 66.4874 47.9689 69.3284 47.9689C71.1951 47.9886 73.0281 48.4699 74.6638 49.3698C76.2995 50.2698 77.687 51.5604 78.7029 53.1267C79.7188 54.6929 80.3314 56.4863 80.486 58.3467C80.6407 60.2072 80.3328 62.077 79.5895 63.7895C78.8463 65.5021 77.6908 67.0042 76.2263 68.1619C74.7617 69.3196 73.0335 70.097 71.1956 70.4247C69.3577 70.7525 67.4673 70.6204 65.6928 70.0403C63.9183 69.4602 62.3149 68.4501 61.0255 67.1001L67.7214 59.3137L63.7325 53.4022L61.3603 51.8621Z" fill="white"/>
<path d="M69.2806 71.9116C67.5525 71.9199 65.8408 71.5756 64.2503 70.8996C62.6598 70.2236 61.224 69.2301 60.0307 67.9801C59.7897 67.7264 59.6594 67.3874 59.6683 67.0375C59.6773 66.6877 59.8249 66.3559 60.0786 66.1149C60.3322 65.8738 60.6713 65.7434 61.0211 65.7524C61.3709 65.7614 61.7028 65.909 61.9438 66.1627C63.3395 67.6138 65.1345 68.6179 67.1015 69.0478C69.0685 69.4777 71.1187 69.3139 72.9925 68.5773C74.8663 67.8407 76.4793 66.5644 77.627 64.9101C78.7747 63.2558 79.4054 61.2981 79.4392 59.285C79.4362 57.8937 79.1506 56.5175 78.5998 55.2399C78.049 53.9623 77.2444 52.8099 76.2348 51.8526C75.329 50.9765 74.2527 50.296 73.0729 49.8533C71.893 49.4107 70.6348 49.2153 69.3762 49.2794C65.7031 49.4803 63.2543 51.403 61.2838 52.9526C59.8203 54.1101 58.548 55.1048 57.1227 54.9518C56.5046 54.8987 55.9174 54.6585 55.4393 54.2631C55.3031 54.1567 55.1893 54.0244 55.1045 53.8738C55.0197 53.7232 54.9656 53.5574 54.9451 53.3858C54.9247 53.2142 54.9384 53.0403 54.9854 52.874C55.0324 52.7077 55.1119 52.5524 55.2192 52.417C55.4387 52.145 55.7566 51.9704 56.1039 51.931C56.4512 51.8916 56.8001 51.9906 57.075 52.2065C57.1444 52.2652 57.2261 52.3077 57.3141 52.3308C57.7637 52.3882 58.9019 51.4795 59.6576 50.8864C61.8003 49.2029 64.7274 46.8976 69.2232 46.6489C70.8401 46.5653 72.457 46.8142 73.974 47.3802C75.4909 47.9462 76.8756 48.8172 78.0426 49.9395C79.3109 51.1439 80.3219 52.5932 81.0141 54.1995C81.7063 55.8059 82.0654 57.5359 82.0698 59.285C82.047 62.655 80.687 65.878 78.2888 68.2457C75.8907 70.6134 72.6506 71.9319 69.2806 71.9116V71.9116Z" fill="black"/>
</g>
<defs>
<clipPath id="clip0_338_1044">
<rect width="96" height="96" fill="white"/>
</clipPath>
</defs>
</svg>
