<svg width="96" height="96" viewBox="0 0 96 96" fill="none" xmlns="http://www.w3.org/2000/svg">
<g clip-path="url(#clip0_338_1039)">
<path d="M79.5752 24.79C78.9259 23.7893 78.0211 22.9803 76.9543 22.4465C75.1464 15.8367 71.4541 12.6609 71.3202 12.5557C70.2537 11.5066 68.9816 10.6896 67.5839 10.1562C66.1862 9.62281 64.6933 9.38459 63.199 9.45647C61.6534 9.5593 60.1622 10.0674 58.8754 10.9295C57.5314 8.50888 55.7127 6.3844 53.5282 4.68327C52.3504 3.86137 50.9992 3.32168 49.5792 3.10603C48.1593 2.89039 46.7088 3.00459 45.3401 3.43975C44.0718 3.84193 42.9192 4.54401 41.98 5.48651C41.0408 6.42901 40.3428 7.58411 39.9451 8.85384C38.1659 14.2297 40.1938 16.9654 44.2496 22.4082C44.7566 23.0778 45.2922 23.8048 45.8566 24.5796C48.1619 27.7171 48.4298 29.6876 48.248 30.7781C48.2016 31.0779 48.108 31.3685 47.9706 31.639L46.8514 30.912C42.8913 28.3293 39.7634 26.3014 30.6761 27.0858C21.1583 27.9467 13.7546 37.8375 12.8363 44.3038C12.2337 48.5031 12.9415 52.0711 14.8355 54.3572C15.4033 55.0486 16.1022 55.6207 16.8921 56.0408C15.1136 56.5991 13.5849 57.7592 12.5685 59.3218C8.06307 66.4864 14.4816 72.4266 16.6147 74.378C21.0323 78.5864 26.125 82.0236 31.6805 84.5462C31.1878 85.9026 31.1878 87.389 31.6805 88.7454C32.4744 90.9838 34.5501 92.983 37.4198 94.3604C39.7251 95.4605 43.7044 96.0344 47.8558 96.0344C52.9543 96.0344 58.311 95.1639 61.1807 93.3082C62.2229 92.7005 63.1281 91.8837 63.8393 90.9091C64.5504 89.9345 65.0522 88.8233 65.313 87.6454C65.6161 85.7096 65.1416 83.7325 63.9929 82.1452C65.2942 81.3093 66.5462 80.3991 67.7426 79.419C89.4182 61.5314 86.1468 35.0061 79.5752 24.79ZM24.095 56.2608C25.4901 55.7456 26.7543 54.9289 27.7976 53.8691C28.8409 52.8092 29.6376 51.5323 30.1308 50.1293C30.1514 50.0473 30.1674 49.9643 30.1787 49.8806C30.7239 45.3082 35.1432 43.8351 35.7458 43.6629C36.6345 43.4875 37.5501 43.5007 38.4334 43.7017C39.3166 43.9027 40.1478 44.2871 40.873 44.8299C43.9626 47.1926 44.5557 52.1285 44.5653 52.2624C44.8746 53.6066 44.885 55.0024 44.5958 56.3512C44.3065 57.6999 43.7247 58.9687 42.8913 60.0678C41.9235 61.2155 40.7269 62.1487 39.3779 62.8075C38.0289 63.4663 36.5573 63.8364 35.0571 63.8941C30.37 64.1523 28.0168 59.7618 27.9212 59.5705C27.8793 59.4853 27.828 59.405 27.7681 59.3313C26.7596 58.0668 25.5031 57.0218 24.0758 56.2608H24.095Z" fill="white"/>
<path d="M79.5752 24.79C78.9259 23.7893 78.0211 22.9803 76.9543 22.4465C75.1464 15.8367 71.4541 12.6609 71.3202 12.5557C70.2537 11.5066 68.9816 10.6896 67.5839 10.1562C66.1862 9.62281 64.6932 9.38459 63.199 9.45647C61.6534 9.5593 60.1622 10.0674 58.8754 10.9295C57.5314 8.50888 55.7127 6.3844 53.5282 4.68327C52.3504 3.86137 50.9992 3.32168 49.5792 3.10603C48.1593 2.89039 46.7088 3.00459 45.3401 3.43975C44.0718 3.84193 42.9192 4.54401 41.98 5.48651C41.0408 6.42901 40.3428 7.58411 39.9451 8.85384C38.1659 14.2297 40.1938 16.9654 44.2496 22.4082C44.7566 23.0778 45.2922 23.8048 45.8566 24.5796C48.1619 27.7171 48.4297 29.6876 48.248 30.7781C48.2016 31.0779 48.108 31.3685 47.9706 31.639L46.8514 30.912C42.8913 28.3293 39.7633 26.3014 30.6761 27.0858C21.1583 27.9467 13.7546 37.8375 12.8363 44.3038C12.2337 48.5031 12.9415 52.0711 14.8355 54.3572C15.4033 55.0486 16.1022 55.6207 16.8921 56.0408C15.1136 56.5991 13.5849 57.7592 12.5685 59.3218C8.06307 66.4864 14.4816 72.4266 16.6147 74.378C21.0323 78.5864 26.125 82.0236 31.6805 84.5462C31.1878 85.9026 31.1878 87.389 31.6805 88.7454C32.4744 90.9838 34.5501 92.983 37.4198 94.3604C39.7251 95.4605 43.7044 96.0344 47.8558 96.0344C52.9543 96.0344 58.311 95.1639 61.1807 93.3082C62.2229 92.7005 63.1281 91.8837 63.8392 90.9091C64.5504 89.9345 65.0522 88.8233 65.313 87.6454C65.6161 85.7096 65.1416 83.7325 63.9929 82.1452C65.2942 81.3093 66.5462 80.3991 67.7426 79.419C89.4182 61.5314 86.1468 35.0061 79.5752 24.79ZM62.7016 87.1767C62.5013 87.997 62.1349 88.7675 61.6248 89.4404C61.1147 90.1134 60.4719 90.6745 59.7363 91.089C55.2978 93.9586 42.9391 94.0735 38.5294 91.9786C36.291 90.9073 34.7032 89.415 34.1484 87.8654C33.8853 87.1031 33.8853 86.2746 34.1484 85.5123C37.8916 86.8791 41.843 87.5878 45.8279 87.6071H45.9045C51.4421 87.5837 56.8841 86.1624 61.7259 83.4748C62.1317 83.9931 62.4275 84.5886 62.5953 85.2252C62.7631 85.8617 62.7992 86.5257 62.7016 87.1767ZM66.0495 77.3816C59.3536 82.92 41.2365 93.5186 18.4035 72.4361C13.6207 67.9977 12.4824 64.3819 14.7972 60.7183C15.7538 59.1782 17.533 58.2791 20.0774 58.0591C22.0575 57.8965 23.9037 58.8148 25.635 60.9288C26.1516 61.8853 29.2125 66.8499 35.2006 66.5438C37.0692 66.4644 38.9011 65.9985 40.5804 65.1752C42.2598 64.352 43.7502 63.1894 44.9574 61.761C46.0109 60.3807 46.7544 58.7895 47.1374 57.0959C47.5204 55.4023 47.5338 53.646 47.1767 51.9467C47.1767 51.7076 46.4688 45.863 42.4895 42.802C41.4702 42.0361 40.3021 41.4916 39.0601 41.2033C37.8181 40.915 36.5296 40.8894 35.2771 41.128H35.1336C34.8562 41.2046 28.4377 42.9742 27.5864 49.4501C27.0268 50.9506 25.9945 52.2285 24.6453 53.0912C23.2961 53.9539 21.703 54.3546 20.1061 54.2329C19.4874 54.2247 18.8781 54.0808 18.3211 53.8114C17.7641 53.542 17.273 53.1536 16.8825 52.6737C15.486 50.9997 14.9694 48.0822 15.4572 44.6769C16.2512 39.1576 23.1097 30.4529 30.9248 29.7451C39.1033 29.0085 41.6191 30.6442 45.4357 33.1217C46.0957 33.5617 46.7845 34.0017 47.5402 34.4704C47.7486 34.5991 47.9887 34.6673 48.2337 34.6673C48.4786 34.6673 48.7187 34.5991 48.9272 34.4704C49.4346 34.1098 49.8652 33.6517 50.1936 33.1228C50.5221 32.594 50.7419 32.005 50.8403 31.3903C51.2899 29.0372 50.3333 26.2344 47.9706 23.0587C47.3967 22.2647 46.861 21.5473 46.354 20.8682C42.413 15.5689 41.0834 13.7897 42.4321 9.70519C42.7005 8.82826 43.1788 8.03006 43.8256 7.37994C44.4723 6.72982 45.2681 6.24741 46.1436 5.97459C47.1186 5.66804 48.1505 5.58711 49.1613 5.73791C50.1722 5.88871 51.1355 6.26733 51.9786 6.84509C54.0024 8.46462 55.667 10.4875 56.8666 12.7853C53.796 16.6115 56.1396 22.4369 58.3779 25.2205C59.2132 26.3283 59.7974 27.6045 60.0902 28.9607C60.9032 33.1504 60.6641 34.7574 59.7554 36.9766C58.9694 39.2884 57.9097 41.4977 56.5987 43.5577C59.0564 42.4042 61.0304 40.4234 62.1755 37.9618V37.9618C63.3807 34.9965 63.4955 32.7773 62.6537 28.4824C62.2866 26.6973 61.5179 25.0191 60.4059 23.5753C58.5788 21.3082 56.8666 16.8028 58.9901 14.3158C59.5313 13.674 60.1968 13.1482 60.9463 12.7701C61.6959 12.3921 62.5142 12.1694 63.352 12.1157C64.501 12.0824 65.6446 12.2832 66.7135 12.7058C67.7824 13.1284 68.7541 13.7641 69.5697 14.574C71.5731 16.5585 73.0693 18.9963 73.9315 21.6812C73.5207 21.6525 73.1084 21.6525 72.6976 21.6812C71.4262 21.7209 70.1879 22.0956 69.1079 22.7675C68.0278 23.4393 67.1444 24.3845 66.5469 25.5075C64.4234 30.3476 66.0591 33.0451 67.5035 35.4365C67.8191 35.9435 68.1348 36.4696 68.4122 37.0053C69.0177 38.1834 69.2161 39.5288 68.9766 40.8315C68.3056 43.5147 67.1692 46.0594 65.6191 48.35C66.795 47.9487 67.8743 47.3068 68.7884 46.4652C69.7024 45.6236 70.4311 44.6009 70.928 43.462V43.462C71.0268 43.2212 71.113 42.9753 71.1862 42.7255V42.6394C71.5632 41.5303 71.7134 40.3567 71.628 39.1884C71.5425 38.02 71.2232 36.8808 70.6888 35.8383C70.3732 35.2166 70.0288 34.6522 69.7323 34.107C68.3548 31.8303 67.36 30.185 68.9383 26.5979C69.3928 25.9196 70.0005 25.3576 70.7124 24.9576C71.4243 24.5576 72.2202 24.3307 73.036 24.2954C73.8518 24.26 74.6645 24.417 75.4083 24.7539C76.1522 25.0908 76.8063 25.598 77.3178 26.2345C83.4971 35.7426 86.472 60.5462 66.0495 77.3816ZM24.0758 56.2608C25.4709 55.7456 26.7352 54.9289 27.7785 53.8691C28.8218 52.8092 29.6185 51.5323 30.1117 50.1293C30.1322 50.0473 30.1482 49.9643 30.1595 49.8806C30.7048 45.3082 35.124 43.8351 35.7267 43.6629C36.6154 43.4875 37.531 43.5007 38.4142 43.7017C39.2975 43.9027 40.1286 44.2871 40.8538 44.8299C43.9435 47.1926 44.5366 52.1285 44.5461 52.2624C44.8555 53.6066 44.8659 55.0024 44.5767 56.3512C44.2874 57.6999 43.7055 58.9687 42.8722 60.0678C41.9044 61.2155 40.7077 62.1487 39.3587 62.8075C38.0097 63.4663 36.5381 63.8364 35.038 63.8941C30.3508 64.1523 27.9977 59.7618 27.9021 59.5705C27.8602 59.4853 27.8088 59.405 27.749 59.3313C26.746 58.0688 25.4962 57.024 24.0758 56.2608V56.2608Z" fill="black"/>
<path d="M54.3891 47.0778C54.0644 46.9509 53.7025 46.9582 53.3832 47.0982C53.0639 47.2381 52.8133 47.4991 52.6864 47.8239C52.5596 48.1486 52.5669 48.5105 52.7068 48.8298C52.8467 49.1491 53.1078 49.3997 53.4325 49.5266C53.5378 49.5266 63.8207 53.6398 64.2129 63.6262C64.2277 63.9663 64.3733 64.2875 64.6193 64.5227C64.8652 64.758 65.1926 64.8892 65.533 64.8889H65.5808C65.9293 64.8739 66.2577 64.7217 66.4943 64.4653C66.7309 64.209 66.8564 63.8696 66.8434 63.521C66.4034 51.8223 54.8865 47.2595 54.3891 47.0778Z" fill="black"/>
<path d="M51.7394 63.1096C51.5849 63.033 51.4168 62.9876 51.2448 62.9759C51.0727 62.9643 50.9 62.9866 50.7366 63.0417C50.5731 63.0968 50.4222 63.1834 50.2922 63.2969C50.1623 63.4103 50.056 63.5482 49.9794 63.7028C49.9027 63.8573 49.8573 64.0253 49.8456 64.1974C49.834 64.3695 49.8563 64.5422 49.9114 64.7056C49.9664 64.869 50.0532 65.02 50.1666 65.1499C50.28 65.2798 50.4179 65.3862 50.5724 65.4628C52.2935 66.2881 53.6541 67.7133 54.3987 69.4708C54.499 69.7098 54.6679 69.9138 54.8842 70.0568C55.1004 70.1998 55.3542 70.2755 55.6135 70.2743C55.787 70.2742 55.9589 70.2417 56.1205 70.1786C56.442 70.0434 56.697 69.7864 56.8296 69.4637C56.9622 69.1411 56.9618 68.7791 56.8283 68.4568C55.8416 66.113 54.0316 64.2111 51.7394 63.1096V63.1096Z" fill="black"/>
</g>
<defs>
<clipPath id="clip0_338_1039">
<rect width="96" height="96" fill="white"/>
</clipPath>
</defs>
</svg>
