<svg width="96" height="96" viewBox="0 0 96 96" fill="none" xmlns="http://www.w3.org/2000/svg">
<path d="M88.1781 16.9203C86.265 9.94702 78.2396 14.0506 76.556 18.5177C75.743 20.6891 67.8897 35.9175 67.8418 33C67.832 24.9957 68.4235 17.0019 69.6114 9.08612C71.3332 -3.05258 54.3831 0.00837143 52.8813 11.3914C52.183 16.7194 50.9681 21.0909 49.6863 33.0287C47.7158 26.6006 44.4157 17.3603 43.3061 11.0279C41.4695 0.505776 26.375 6.80948 28.8812 19.6369C30.5934 28.3703 35.3858 43.7709 34.6205 58.9418C28.7281 54.0251 16.379 44.5935 8.73616 59.7549C6.20129 64.7672 14.8772 67.8856 24.3854 69.6361C27.3603 70.1814 32.6309 78.3217 39.0685 83.0279L37.6241 82.9227C35.7684 85.9454 37.4998 89.4368 41.4503 91.7995C45.707 94.3727 58.1423 95.6258 63.1642 93.0622C66.7131 91.2447 69.3436 88.7864 66.9905 84.9602H66.627L66.8278 84.8358C74.4803 79.1826 78.3831 71.8936 80.1431 62.835C80.7342 59.5961 80.9333 56.2977 80.7362 53.0112C80.1431 43.216 88.8381 19.4265 88.1781 16.9203Z" fill="white"/>
<path d="M89.4504 16.5855C88.3982 12.654 85.7389 11.9462 84.2466 11.8697C80.8222 11.6592 76.5942 14.5863 75.3316 18.0586C73.4917 22.0811 71.4319 25.9993 69.1617 29.7955C69.3298 22.927 69.9145 16.0751 70.9123 9.27744C71.5341 4.87728 69.9557 2.58149 68.4539 1.45276C66.2347 -0.269045 62.925 -0.460333 59.5962 0.878846C57.4705 1.75069 55.6112 3.16568 54.2044 4.9821C52.7976 6.79852 51.8928 8.95264 51.5803 11.2288C51.3412 13.0654 51.035 14.7967 50.6811 16.7864C50.222 19.4169 49.7245 22.5258 49.1028 26.859C47.3427 21.4066 45.3914 15.3133 44.5974 10.7697C44.0713 7.73738 42.4834 5.60422 40.1207 4.75289C37.4997 3.79633 34.257 4.61897 31.6648 6.84775C28.1159 9.8896 26.595 14.7585 27.5898 19.8474C27.9724 21.7605 28.4795 23.9606 29.0725 26.4955C30.9856 34.5592 33.4918 45.3874 33.3962 56.2156C28.6899 52.5711 22.9601 49.2232 17.3068 50.3998C13.3658 51.2129 10.0944 54.1495 7.57867 59.1236C7.21587 59.7851 7.01779 60.5242 7.00114 61.2785C6.98449 62.0327 7.14978 62.7799 7.48304 63.4568C9.05179 66.6325 14.6668 69.1387 24.1654 70.8892C25.2846 71.0997 27.5803 73.5771 29.7995 75.9781C31.8564 78.2801 34.0475 80.4584 36.3615 82.5018C35.6099 83.8425 35.3946 85.4183 35.7588 86.9115C36.3041 89.1594 38.0737 91.283 40.7425 92.89C43.6121 94.6309 49.4854 95.7597 54.8613 95.7597C58.3527 95.7597 61.6241 95.291 63.7285 94.2196C66.7704 92.67 68.4348 91.0343 68.9992 89.0734C69.3437 87.7472 69.187 86.3406 68.5592 85.1228C75.456 79.7087 79.5691 72.6875 81.4344 63.122C82.0503 59.7732 82.2591 56.3622 82.0562 52.9634C81.7023 47.224 84.7919 36.061 87.0494 27.9111C89.0869 20.4883 89.766 17.8003 89.4504 16.5855ZM66.493 88.3272C66.1582 89.5229 64.8669 90.6708 62.5616 91.8473C58.0275 94.1622 46.1566 93.0718 42.1295 90.6326C40.3453 89.728 38.9759 88.1737 38.3033 86.2898C38.131 85.5794 38.1879 84.8327 38.4659 84.1566C40.0174 85.3203 41.7322 86.2485 43.5548 86.9115C47.3475 88.0353 51.2887 88.5772 55.2439 88.5185C59.4336 88.5185 63.5755 87.9446 66.3208 86.6054C66.5521 87.1525 66.6024 87.7591 66.4643 88.3368L66.493 88.3272ZM84.5336 27.1555C82.104 35.9462 79.0812 46.8988 79.4543 53.0781C79.6441 56.2527 79.4515 59.4386 78.8804 62.5672C77.0629 71.9032 72.988 78.6182 66.0721 83.7166C62.0545 86.6724 49.7532 86.2515 44.4443 84.4245C39.7476 82.8079 35.3188 78.0251 31.7604 74.1798C28.7951 70.9753 26.6525 68.6604 24.6724 68.2969C16.3982 66.7664 11.0032 64.5759 9.86486 62.2802C9.71091 61.9693 9.63887 61.6243 9.65561 61.2778C9.67235 60.9312 9.77729 60.5947 9.96049 60.3001V60.3001C12.0936 56.0721 14.7433 53.6042 17.8712 52.9634C18.4693 52.8409 19.0782 52.78 19.6887 52.7816C24.5958 52.7816 29.7517 56.5122 33.8266 59.908C34.0147 60.0631 34.2421 60.163 34.4835 60.1968C34.725 60.2306 34.9711 60.1968 35.1945 60.0993C35.419 60.0024 35.6116 59.8442 35.7503 59.6429C35.8891 59.4416 35.9683 59.2053 35.9788 58.961C36.5815 46.9084 33.7405 34.7601 31.6648 25.8832C31.0717 23.3771 30.5743 21.2152 30.2012 19.3404C29.3881 15.1794 30.5839 11.2575 33.4058 8.81825C35.2615 7.23037 37.5572 6.59905 39.2599 7.21124C40.7138 7.73735 41.6703 9.12434 42.0338 11.2001C42.8756 16.0594 44.9035 22.4588 46.8166 28.1025C47.4288 30.0156 48.0123 31.7852 48.5097 33.4018C48.5097 33.4018 48.5097 33.4496 48.5097 33.4783C49.6185 37.9913 51.4918 42.2813 54.0482 46.1623C52.9117 42.3714 51.9729 38.524 51.2359 34.6357C51.1217 34.0046 51.0705 33.3638 51.0829 32.7226C51.896 25.2806 52.6803 20.8231 53.3116 17.2264C53.6656 15.1985 53.9717 13.4002 54.2682 11.554C54.5177 9.73538 55.2412 8.0143 56.3661 6.56365C57.4911 5.11301 58.9778 3.98381 60.6771 3.28939C63.078 2.33283 65.4599 2.3902 66.9138 3.50938C68.3678 4.62855 68.7313 6.37904 68.3774 8.88522C67.1916 16.8686 66.6001 24.929 66.6078 33C66.609 33.1648 66.6315 33.3288 66.6747 33.4879C66.808 38.1923 67.8575 42.8256 69.7644 47.1283C69.6783 44.5169 69.4965 40.0403 69.2957 36.0801C69.2427 35.1875 69.4451 34.2983 69.8791 33.5165C71.2911 31.5693 72.5512 29.5162 73.648 27.3755C75.4559 24.0754 77.4743 20.1344 77.8665 18.9578C78.7561 16.5855 81.8744 14.3472 84.1989 14.4715C85.5954 14.5481 86.5042 15.4281 86.9729 17.1881C87.0112 18.1351 85.7198 22.937 84.5049 27.165L84.5336 27.1555Z" fill="black"/>
<path d="M64.3981 68.01C64.0608 67.9288 63.7052 67.9836 63.408 68.1626C63.1109 68.3416 62.8962 68.6304 62.8103 68.9665C62.6285 69.7222 62.4851 70.4014 62.3416 71.071C61.7684 74.0351 60.8568 76.9237 59.6249 79.68C59.5199 79.996 59.5383 80.3401 59.6764 80.6432C59.8144 80.9463 60.0619 81.186 60.3693 81.3143C60.6766 81.4426 61.0211 81.4499 61.3337 81.3348C61.6462 81.2198 61.9037 80.9908 62.0546 80.6939C63.3482 77.7851 64.3108 74.74 64.9242 71.6162C65.0582 70.9657 65.192 70.3248 65.3642 69.6074C65.407 69.439 65.4159 69.2639 65.3904 69.092C65.3648 68.9202 65.3054 68.7552 65.2155 68.6065C65.1256 68.4579 65.007 68.3286 64.8667 68.2262C64.7264 68.1237 64.5671 68.0503 64.3981 68.01V68.01Z" fill="black"/>
<path d="M56.2005 63.7246C55.854 63.7088 55.5151 63.8289 55.2559 64.0594C54.9968 64.29 54.838 64.6126 54.8134 64.9585C54.7464 66.2499 54.6987 67.436 54.6604 68.6317C54.5962 72.5765 54.2767 76.513 53.7039 80.4165C53.6545 80.7613 53.7435 81.1117 53.9513 81.3912C54.1591 81.6707 54.469 81.8567 54.8134 81.9087H55.0048C55.3194 81.9078 55.6233 81.7946 55.8618 81.5894C56.1004 81.3842 56.2578 81.1005 56.3057 80.7895C56.9011 76.788 57.2429 72.7529 57.3291 68.7083C57.3291 67.5317 57.4057 66.3551 57.4822 65.0925C57.4886 64.9183 57.4604 64.7446 57.3993 64.5814C57.3382 64.4182 57.2455 64.2687 57.1263 64.1415C57.0072 64.0143 56.8639 63.912 56.705 63.8405C56.5461 63.7689 56.3747 63.7295 56.2005 63.7246Z" fill="black"/>
<path d="M48.6053 70.277C48.5492 69.9507 48.3724 69.6574 48.1101 69.4553C47.8478 69.2531 47.5192 69.157 47.1893 69.1859C46.8594 69.2148 46.5524 69.3666 46.3292 69.6112C46.106 69.8559 45.983 70.1754 45.9844 70.5066C46.0513 71.2718 46.1279 71.9893 46.2044 72.6971C46.5311 75.4202 46.675 78.1621 46.6349 80.9044C46.6324 81.0778 46.664 81.2499 46.728 81.411C46.792 81.5721 46.8872 81.7191 47.008 81.8434C47.1288 81.9678 47.2729 82.0671 47.4321 82.1358C47.5913 82.2044 47.7624 82.2411 47.9358 82.2435V82.2435C48.2826 82.2436 48.6155 82.1071 48.8625 81.8637C49.1095 81.6203 49.2508 81.2894 49.2559 80.9426C49.3004 78.0947 49.1502 75.2471 48.8063 72.4197C48.7393 71.7214 48.6723 71.0231 48.6053 70.277Z" fill="black"/>
</svg>
