<svg width="96" height="96" viewBox="0 0 96 96" fill="none" xmlns="http://www.w3.org/2000/svg">
<path d="M84.6239 49.3282C82.3952 36.4147 74.8096 36.5295 71.8635 36.1086C70.0364 30.5032 63.551 26.5431 54.9515 28.3318C54.7889 22.4063 54.9518 16.4762 55.4394 10.5686C56.2525 -0.412717 37.2648 3.04042 37.8579 20.6411C38.164 29.4796 42.1911 44.2967 37.2744 56.0336C27.0775 47.6542 17.1867 44.2202 10.7682 56.7511C7.24808 63.667 21.7686 66.4219 25.9297 66.9002C29.8994 67.3498 35.4952 76.0161 41.9902 80.7893L40.565 80.7415C38.6518 83.879 40.565 87.4374 44.5825 89.8288C49.0018 92.4306 61.8005 93.5498 66.9755 90.8428C70.6104 88.9296 73.2887 86.3565 70.8017 82.4442H70.4382L70.6295 82.3294C78.4637 76.3987 82.3665 68.8324 84.0213 59.5251C84.7758 56.1816 84.9794 52.7373 84.6239 49.3282V49.3282Z" fill="white"/>
<path d="M85.9153 49.1082C83.7056 36.3095 76.1871 35.2955 72.8487 34.9033C70.773 29.8814 64.9476 25.5673 56.2716 26.8013C56.1663 21.4265 56.3387 16.0499 56.7882 10.6929C57.0082 7.73714 55.9656 5.38402 53.9185 4.06397C51.3932 2.47608 47.7487 2.67695 44.4294 4.59006C39.2927 7.54582 36.3753 13.5721 36.624 20.7176C36.7101 23.0612 37.0449 25.816 37.4084 28.724C38.3649 36.3764 39.5032 45.8559 36.777 53.9005C29.9089 48.5725 24.227 46.4681 19.4251 47.4629C15.4937 48.2856 12.2126 51.2222 9.68731 56.1771C9.25017 56.9444 9.01398 57.8096 9.0006 58.6926C8.98722 59.5755 9.19714 60.4476 9.61083 61.2277C12.5283 66.6514 25.327 68.1628 25.8723 68.2202C27.6706 68.421 30.5689 71.4725 33.3621 74.4187C35.2717 76.5034 37.2896 78.4861 39.4075 80.3589C38.6486 81.7396 38.4467 83.3585 38.8432 84.8834C39.4267 87.1791 41.2728 89.3314 44.0373 90.9575C46.8017 92.5837 52.6941 93.7028 58.0795 93.7028C61.9057 93.7028 65.4546 93.1767 67.712 91.9906C70.8017 90.3549 72.4948 88.6618 73.0401 86.6434C73.3839 85.2767 73.2065 83.8308 72.5426 82.5876C79.4968 76.9153 83.61 69.5881 85.4275 59.6973C86.18 56.2195 86.3449 52.6404 85.9153 49.1082V49.1082ZM70.4191 85.9356C70.0843 87.1791 68.7738 88.3939 66.4016 89.6375C61.7431 92.0958 49.4801 91.1201 45.2904 88.6809C43.1572 87.4278 41.7033 85.8113 41.3015 84.2234C41.1102 83.4945 41.1571 82.7236 41.4354 82.0233C43.0632 83.2429 44.888 84.1746 46.8304 84.7781C50.6906 85.7166 54.6523 86.1729 58.6248 86.1365C62.9771 86.1365 67.3677 85.5913 70.2469 84.099C70.4988 84.6772 70.5591 85.3207 70.4191 85.9356V85.9356ZM82.8543 59.2286C81.1038 68.8802 76.9906 75.8631 69.9217 81.2294C65.8946 84.2712 53.5741 83.9364 47.5574 82.1859C43.1668 80.952 38.9484 76.4466 35.1891 72.5438C31.6403 68.8037 28.8376 65.8479 26.0827 65.5418C21.4721 65.0253 13.5231 63.0356 11.8491 59.9173C11.6371 59.5111 11.5345 59.0568 11.5513 58.5989C11.568 58.141 11.7037 57.6954 11.9448 57.3059V57.3059C14.1258 53.0301 16.7276 50.61 19.8938 49.9691C20.5234 49.8415 21.1646 49.7806 21.8069 49.7874C25.7766 49.7874 30.6072 52.1596 36.4996 56.9998C36.6587 57.1274 36.8448 57.217 37.0437 57.2617C37.2426 57.3065 37.4491 57.3052 37.6475 57.2581C37.8468 57.2097 38.032 57.1153 38.1881 56.9824C38.3443 56.8495 38.4671 56.6818 38.5467 56.4928C42.3251 47.4725 41.0241 36.8642 39.9815 28.3413C39.6276 25.4716 39.3023 22.7838 39.2258 20.5646C39.0058 14.4043 41.4354 9.25805 45.7113 6.7997C48.1505 5.39357 50.8097 5.16401 52.4932 6.21622C53.7463 7.01016 54.3298 8.4641 54.1863 10.4346C53.7012 16.384 53.5384 22.3553 53.6985 28.3222C53.6985 28.3222 53.6985 28.3222 53.6985 28.3796C53.8324 34.7407 54.722 39.7339 58.5578 44.6411C57.1517 41.0922 56.463 34.5686 56.3099 29.4127C64.1632 28.1596 69.233 32.1006 70.6583 36.4816C70.6702 36.5184 70.6862 36.5537 70.7061 36.5869C71.9209 39.9635 73.2792 43.5793 75.1445 45.5593C74.6088 44.3158 74.0731 40.6427 73.4896 37.6008C76.7515 38.0791 81.6586 39.6191 83.3613 49.5195C83.73 52.7621 83.5554 56.0434 82.8448 59.2286H82.8543Z" fill="black"/>
<path d="M71.5669 65.8479C71.2384 65.7386 70.8799 65.7637 70.5699 65.9179C70.2598 66.072 70.0233 66.3426 69.9121 66.6706C69.6538 67.4358 69.453 68.115 69.2521 68.7942C68.4116 71.7889 67.2305 74.6775 65.732 77.4032C65.6521 77.5558 65.603 77.7226 65.5877 77.8942C65.5724 78.0657 65.591 78.2386 65.6425 78.403C65.6941 78.5673 65.7775 78.7199 65.888 78.852C65.9986 78.9841 66.1341 79.0931 66.2868 79.1728C66.4743 79.2654 66.6803 79.3145 66.8894 79.3163C67.1302 79.3169 67.3665 79.2511 67.5723 79.1262C67.7782 79.0014 67.9457 78.8222 68.0564 78.6084C69.6338 75.7364 70.879 72.6941 71.7678 69.5402C71.9591 68.8898 72.1505 68.2393 72.3992 67.5123C72.5084 67.1812 72.4821 66.8204 72.3262 66.5086C72.1703 66.1967 71.8973 65.9592 71.5669 65.8479V65.8479Z" fill="black"/>
<path d="M63.5223 60.7495C63.1776 60.7031 62.8285 60.7946 62.5508 61.0042C62.2732 61.2137 62.0895 61.5244 62.0397 61.8687C61.8579 63.1792 61.7145 64.4036 61.571 65.628C61.1486 69.674 60.4745 73.6897 59.5526 77.6519C59.5112 77.8183 59.5032 77.9913 59.5289 78.1609C59.5546 78.3305 59.6137 78.4933 59.7026 78.64C59.7915 78.7867 59.9085 78.9144 60.0469 79.0157C60.1854 79.117 60.3424 79.1898 60.5091 79.2302C60.6075 79.2436 60.7073 79.2436 60.8057 79.2302C61.1022 79.2297 61.3899 79.1294 61.6224 78.9454C61.8549 78.7615 62.0187 78.5046 62.0875 78.2162C63.0355 74.1571 63.7256 70.0421 64.1536 65.8958C64.2971 64.6905 64.4406 63.4853 64.6224 62.1939C64.6586 61.8581 64.5647 61.5213 64.3601 61.2526C64.1554 60.9839 63.8557 60.8038 63.5223 60.7495V60.7495Z" fill="black"/>
<path d="M55.1237 66.8427C55.1187 66.496 54.9774 66.1651 54.7304 65.9217C54.4833 65.6782 54.1505 65.5418 53.8037 65.5418V65.5418C53.6316 65.5431 53.4614 65.5782 53.3029 65.6452C53.1444 65.7122 53.0006 65.8098 52.8798 65.9324C52.759 66.055 52.6635 66.2002 52.5988 66.3597C52.5341 66.5191 52.5015 66.6898 52.5027 66.8619C52.5027 67.6463 52.5027 68.3924 52.5027 69.1289C52.6121 71.9563 52.529 74.7879 52.254 77.604C52.2382 77.7755 52.2564 77.9484 52.3075 78.1129C52.3586 78.2773 52.4416 78.4301 52.5517 78.5625C52.6619 78.6948 52.797 78.8042 52.9495 78.8843C53.1019 78.9644 53.2687 79.0137 53.4402 79.0293H53.5646C53.8942 79.0434 54.2169 78.9317 54.4673 78.7168C54.7178 78.5019 54.8772 78.1999 54.9133 77.8719C55.2014 74.951 55.2909 72.014 55.1811 69.0811C55.1429 68.3063 55.1237 67.6175 55.1237 66.8427Z" fill="black"/>
</svg>
