<svg width="96" height="96" viewBox="0 0 96 96" fill="none" xmlns="http://www.w3.org/2000/svg">
<path d="M80.0797 16.9155C78.224 9.94221 70.1506 14.0458 68.4767 18.5034C67.654 20.6747 59.8103 35.8936 59.7624 32.9856C59.7532 24.9816 60.3415 16.9881 61.5225 9.07173C63.2443 -3.06697 46.3037 -0.00595317 44.8115 11.3771C44.1036 16.7051 42.8983 21.067 41.6165 33.0048C39.646 26.5767 36.3364 17.346 35.2267 11.004C33.3997 0.481876 18.3148 6.78558 20.821 19.613C22.5237 28.3464 25.2403 34.7744 26.9047 43.0964C25.1542 44.5026 16.8704 46.6453 16.306 56.8805C15.8564 65.0686 22.2271 77.1499 30.6544 82.9944L29.5256 82.9179C27.6699 85.9406 29.4013 89.4321 33.3041 91.7852C37.5607 94.3583 49.9864 95.6114 55.0083 93.0478C58.5572 91.24 61.1877 88.7816 58.8346 84.9554H58.4041L58.672 84.7832C66.3244 79.1299 70.2271 71.8505 71.9872 62.8398C72.5785 59.6041 72.7776 56.3089 72.5803 53.0255C72.0542 43.1921 80.7493 19.4217 80.0797 16.9155Z" fill="white"/>
<path d="M81.3806 16.5712C80.338 12.6493 77.6788 11.9318 76.1865 11.8649C72.7429 11.7023 68.5341 14.5815 67.2714 18.0442C65.4414 22.0698 63.3847 25.9884 61.1112 29.7812C61.2758 22.9161 61.8572 16.0673 62.8521 9.27264C63.4739 4.87248 61.8956 2.57676 60.4033 1.45759C58.1841 -0.273779 54.8744 -0.455569 51.5456 0.874045C49.4211 1.74753 47.5627 3.16299 46.1562 4.97911C44.7496 6.79523 43.844 8.94848 43.5297 11.224C43.2905 13.0606 42.9844 14.792 42.6305 16.7912C42.1714 19.4121 41.6262 22.5305 41.0522 26.8446C39.2922 21.3922 37.3503 15.3085 36.5564 10.7553C36.0303 7.73257 34.4424 5.59948 32.0797 4.74814C29.4588 3.79159 26.2256 4.61417 23.6237 6.84295C20.0845 9.8848 18.5636 14.7441 19.5584 19.8426C20.448 24.3767 21.6054 28.3272 22.7246 32.1439C23.7385 35.5588 24.6951 38.8398 25.4603 42.4364L24.8099 42.7904C21.7967 44.3687 15.5217 47.6592 15.0243 56.7848C14.5843 64.839 20.161 76.2698 28.1865 82.7457C27.5381 84.0356 27.3719 85.5147 27.7178 86.9163C28.2631 89.1546 30.0327 91.2782 32.7015 92.8948C35.5711 94.6261 41.4444 95.7645 46.8202 95.7645C50.3021 95.7645 53.5735 95.2958 55.678 94.2244C58.7102 92.6748 60.3842 91.0391 60.939 89.0781C61.2895 87.7388 61.1292 86.317 60.4894 85.0893C67.3957 79.6752 71.509 72.6541 73.3742 63.0885C73.9866 59.7425 74.1921 56.3347 73.9865 52.9394C73.6421 47.2001 76.7317 36.037 78.9796 27.8872C80.9884 20.4834 81.6771 17.7956 81.3806 16.5712ZM58.4233 88.3129C58.0885 89.499 56.8067 90.6565 54.5014 91.833C49.9673 94.1479 38.106 93.0478 34.0789 90.6182C32.2941 89.7098 30.9249 88.1524 30.2527 86.2659C30.0984 85.6317 30.1349 84.9661 30.3579 84.3527C31.9576 85.4265 33.6952 86.2792 35.5233 86.8876C39.3971 87.9606 43.4035 88.4791 47.4229 88.4277C51.4787 88.4277 55.5249 87.9016 58.2415 86.5146C58.5005 87.0872 58.5644 87.7291 58.4233 88.3416V88.3129ZM76.4639 27.0933C74.0342 35.884 71.0115 46.8174 71.3846 52.9968C71.5747 56.1714 71.382 59.3573 70.8107 62.4859C68.9932 71.8123 64.9279 78.5273 58.012 83.6257C54.0422 86.5432 41.894 86.1319 36.3747 84.324C25.8525 80.89 17.167 66.1495 17.674 56.8709C18.0853 49.2184 23.0594 46.6261 26.0343 45.067C27.3926 53.676 24.5899 57.5022 22.6576 62.3807C25.8429 56.9092 30.1475 55.0438 28.2535 43.1538C28.2773 43.0178 28.2773 42.8786 28.2535 42.7425C27.4309 38.6389 26.3403 34.9275 25.2786 31.3404C24.1785 27.5811 23.0307 23.6879 22.1698 19.2782C21.3567 15.1267 22.5524 11.2048 25.3647 8.75606C26.5932 7.63906 28.1731 6.9861 29.8318 6.90991C30.3038 6.90684 30.7729 6.98453 31.2188 7.13954C32.6728 7.66564 33.6293 9.05263 33.9928 11.1284C34.8346 15.9781 36.8625 22.3774 38.7756 28.0211C39.3783 29.9342 39.9617 31.7039 40.4591 33.3205C41.5694 37.8631 43.4492 42.1821 46.0168 46.0905C44.8871 42.3139 43.9484 38.4829 43.2045 34.6118C43.0904 33.9646 43.0391 33.3079 43.0514 32.6509C43.8645 25.2184 44.6489 20.7609 45.2802 17.1642C45.6437 15.1363 45.9498 13.338 46.2367 11.4823C46.4878 9.66532 47.2121 7.94628 48.3369 6.49743C49.4618 5.04858 50.9477 3.92082 52.6457 3.22719C55.0466 2.27064 57.4284 2.32802 58.8824 3.45676C60.3364 4.5855 60.6999 6.32641 60.346 8.82303C59.1527 16.8025 58.558 24.8601 58.5668 32.9283C58.573 33.0895 58.5953 33.2498 58.6337 33.4065C58.7674 38.1263 59.8167 42.7752 61.7234 47.0949C61.6469 44.4835 61.4651 40.0068 61.2642 36.0562C61.2014 35.0959 61.4387 34.1399 61.9434 33.3205C63.3044 31.4034 64.5286 29.3928 65.607 27.3037C67.4149 24.0036 69.4332 20.0722 69.8254 18.8956C70.715 16.5138 73.8334 14.3041 76.1483 14.4093C77.5449 14.4859 78.4535 15.3659 78.9223 17.1259C78.9127 18.1112 77.5544 22.894 76.4161 27.1507L76.4639 27.0933Z" fill="black"/>
<path d="M56.3188 68.0243C56.1517 67.9815 55.9778 67.9724 55.8071 67.9974C55.6364 68.0225 55.4724 68.0812 55.3247 68.1702C55.1769 68.2592 55.0483 68.3767 54.9464 68.5159C54.8444 68.6551 54.7712 68.8131 54.731 68.9809C54.5397 69.7366 54.4058 70.4062 54.2623 71.0853C53.6907 74.0499 52.7791 76.9386 51.5456 79.6943C51.4406 80.0104 51.459 80.3544 51.5971 80.6575C51.7351 80.9606 51.9827 81.2004 52.29 81.3287C52.5974 81.4569 52.9419 81.4643 53.2544 81.3492C53.5669 81.2342 53.8244 81.0052 53.9753 80.7083C55.27 77.8032 56.2327 74.7612 56.8449 71.6401C56.9788 70.9897 57.1128 70.3488 57.2945 69.6313C57.3386 69.4617 57.3482 69.2849 57.3228 69.1115C57.2973 68.938 57.2373 68.7714 57.1464 68.6216C57.0554 68.4717 56.9353 68.3417 56.7931 68.2391C56.651 68.1365 56.4897 68.0635 56.3188 68.0243V68.0243Z" fill="black"/>
<path d="M48.1211 63.739C47.7747 63.7231 47.4358 63.8433 47.1766 64.0738C46.9175 64.3043 46.7587 64.627 46.7342 64.9729C46.6672 66.2643 46.6289 67.4504 46.5811 68.6461C46.5165 72.5909 46.1969 76.5273 45.6245 80.4309C45.5752 80.7757 45.6641 81.126 45.872 81.4055C46.0798 81.6851 46.3897 81.8711 46.7342 81.9231H46.9446C47.2581 81.9219 47.5608 81.8083 47.7977 81.6029C48.0347 81.3976 48.1901 81.1141 48.2359 80.8039C48.8313 76.8056 49.1731 72.7736 49.2594 68.7322C49.2594 67.5556 49.3455 66.3791 49.4125 65.1164C49.4202 64.9407 49.3927 64.7652 49.3316 64.6002C49.2705 64.4353 49.177 64.2842 49.0567 64.1559C48.9364 64.0276 48.7917 63.9246 48.631 63.853C48.4704 63.7814 48.297 63.7426 48.1211 63.739Z" fill="black"/>
<path d="M40.5261 70.2914C40.5129 70.1186 40.4654 69.9502 40.3862 69.796C40.3071 69.6418 40.1979 69.505 40.0651 69.3936C39.9324 69.2822 39.7786 69.1985 39.6131 69.1474C39.4475 69.0962 39.2733 69.0786 39.1009 69.0957C38.7548 69.1297 38.4358 69.298 38.2123 69.5644C37.9887 69.8308 37.8785 70.1742 37.9052 70.521C37.9721 71.2766 38.0487 71.9941 38.1252 72.7019C38.457 75.4278 38.6008 78.1731 38.5556 80.9187C38.5531 81.2672 38.6884 81.6025 38.9321 81.8516C39.1758 82.1007 39.5081 82.2433 39.8566 82.2483V82.2483C40.2025 82.2484 40.5344 82.1116 40.7799 81.8679C41.0253 81.6242 41.1645 81.2933 41.1671 80.9474C41.209 78.0999 41.062 75.2527 40.727 72.4245C40.6696 71.7263 40.5931 71.0279 40.5261 70.2914Z" fill="black"/>
</svg>
