<?xml version="1.0" encoding="UTF-8"?>
<svg width="105px" height="105px" viewBox="0 0 105 105" version="1.1" xmlns="http://www.w3.org/2000/svg" xmlns:xlink="http://www.w3.org/1999/xlink">
    <title>switch</title>
    <g id="switch" stroke="none" stroke-width="1" fill="none" fill-rule="evenodd">
        <path d="M55.1669309,59.0027505 C56.6173742,58.2884942 57.5323598,58.5291368 58.9762115,60.2091587 L58.9762115,60.2091587 L59.2723487,60.5644983 L59.5844812,60.9590827 L59.914501,61.3937732 L60.2643003,61.869431 L60.9135631,62.7705714 L61.2723186,63.2598374 L61.5974868,63.6911616 L61.9026629,64.0811942 L61.9774264,64.1742017 L61.9774264,64.1742017 L62.0520024,64.2659293 L62.3526815,64.6252438 L63.3050715,65.9328589 L66.8081955,70.6385889 L68.0964017,72.3943502 L68.8281801,73.4126164 L69.3277731,74.121546 L69.9479271,75.0221406 L70.3919864,75.6834543 L70.9756752,76.5747448 L71.0490406,76.6884776 L71.0490406,76.6884776 L71.1226556,76.8029568 C72.3577246,78.6667888 73.7829169,79.2428034 75.8948588,78.7471395 L75.8948588,78.7471395 L76.8320767,78.5068714 L77.496852,78.3454191 L77.6631008,78.3067209 L77.6631008,78.3067209 L77.8308417,78.2683266 L78.5314275,78.1141694 L81.1661287,77.5654469 L82.2296401,77.3240609 L82.6179166,77.2308625 L82.7948924,77.2108178 C85.2244056,77.0216134 88.0821894,80.2781323 89.3535816,83.4627506 C90.1392554,85.4286734 89.9133501,87.425141 88.6434771,89.5959803 C86.9470644,92.4441937 85.4339596,93.976686 82.1515291,96.0978929 L82.1515291,96.0978929 L81.4465191,96.5457882 L80.687174,97.014232 L80.4883975,97.1349929 L80.4883975,97.1349929 L80.2859248,97.2573309 C78.8711096,98.1098064 77.4343635,98.9091238 76.0067095,99.6422851 L76.0067095,99.6422851 L75.1514564,100.074139 L74.5832353,100.352913 C74.2050632,100.536277 73.8282729,100.714627 73.4534529,100.887719 L73.4534529,100.887719 L72.6136808,101.268198 L71.7820472,101.630303 L70.9600413,101.973411 L70.1491522,102.296899 L69.9483414,102.374632 L69.9483414,102.374632 L69.7483417,102.45109 L68.9569199,102.743976 L68.1803375,103.015682 L67.7635344,103.154735 C64.8634797,104.105162 62.3382581,104.571332 60.5608699,104.396967 C58.1885956,104.044381 56.1792301,103.221064 54.6132995,101.900769 C51.8320412,99.153547 50.5853646,95.0394734 52.0592611,92.030159 L52.0592611,92.030159 L52.2629656,91.6886369 L52.2629656,91.6886369 L52.4872841,91.2991107 C52.8005869,90.8452419 53.1876105,90.4256645 53.6533683,90.0508262 C53.8389504,89.9015178 54.0389145,89.7716203 54.3073651,89.6292784 L54.3073651,89.6292784 L54.6006486,89.4816085 L54.951613,89.3185634 L55.3722818,89.1330642 L55.6888759,88.9957062 L55.9176244,88.8938333 L56.1373232,88.7917848 C58.145549,87.8377944 58.9686192,86.8306739 58.5325071,84.9250905 L58.5325071,84.9250905 L58.4954994,84.7757011 L58.3028369,83.5690456 L58.0182548,81.9155373 L56.7343965,74.7645195 C56.6333738,73.5351066 56.4228081,72.3421567 56.0985655,71.1982949 L56.0985655,71.1982949 L55.8438161,69.772487 L55.493115,67.9134268 L55.2609771,66.7387978 L55.1827672,66.3606211 C55.1044714,65.9933724 55.0254131,65.6563489 54.9410449,65.3265225 L54.9410449,65.3265225 L54.7991511,64.7947752 L54.4425236,63.5546109 L54.2304918,62.7961831 L54.1801315,62.6085755 L54.1801315,62.6085755 L54.1296271,62.4171397 C53.8111492,61.1993807 54.3535908,59.402871 55.1669309,59.0027505 Z M35.5273408,67.6735544 C34.735973,62.6239106 42.0908362,60.1842016 47.6170538,63.2538409 L47.6170538,63.2538409 L47.8370553,63.3795434 L48.18768,63.5917797 C51.4168423,65.6049416 53.4339685,68.5175066 54.3511008,71.9338378 L54.3511008,71.9338378 L54.8523647,74.7679391 C55.2612153,79.1884685 54.1064251,84.1908846 51.5858951,89.0763716 L51.5858951,89.0763716 L51.2154412,89.775466 L50.9827184,90.1953275 C50.6805419,90.6189323 50.4293212,91.0635511 50.2269287,91.5248227 C47.4496825,96.614162 44.0115459,99.2333739 36.3240534,100.331811 C30.8168992,100.854818 24.9766226,99.033656 21.1157615,95.1057328 C17.5919478,91.5188652 16.4060085,87.1981891 17.5428979,82.9365557 C18.6407325,78.8207323 22.1512428,76.7555002 25.3482967,77.9696573 L25.3482967,77.9696573 L25.5476798,78.0498233 L25.8432177,78.172706 C26.5287738,78.466356 27.1941489,78.8120973 28.0083229,79.2860452 L28.0083229,79.2860452 L30.1232933,80.5606986 L30.3073732,80.669584 C30.4278039,80.7403704 30.5438143,80.8076266 30.6563541,80.8718191 L30.6563541,80.8718191 L31.1425607,81.1415809 L31.3741025,81.2639045 L31.3741025,81.2639045 L31.6011413,81.3794311 C34.0641444,82.6079575 36.1757388,82.7589384 38.5621209,81.5363584 C42.0629758,79.7434194 42.4394604,73.8716353 38.2064502,71.0596812 L38.2064502,71.0596812 L37.9833831,70.9170007 L37.8095827,70.803278 C36.7634708,70.0790138 35.675945,68.6229698 35.5273408,67.6735544 Z M59.3512337,54.6340096 C60.5009589,53.2232608 62.5507985,52.9799764 65.8888686,53.6301296 L65.8888686,53.6301296 L66.4572223,53.746588 L67.1798703,53.908197 L67.7201529,54.0363252 L69.7044294,54.5253105 L70.2761376,54.6615568 L71.0421211,54.8312474 L81.4911194,56.719342 L82.9911859,57.002301 L84.2410163,57.2453059 L85.4285764,57.4837272 L86.562324,57.719587 L87.6507166,57.9549071 L87.9167192,58.0138898 L87.9167192,58.0138898 L88.1805479,58.0729967 L89.2167662,58.3112986 L90.2287736,58.5541159 L91.2250279,58.8034704 L92.2533242,59.0722035 C94.6413102,59.7103331 96.9566463,60.4285128 99.3453649,61.278205 C101.728386,62.2193456 102.544904,64.3557224 102.345584,68.0543548 L102.345584,68.0543548 L102.304444,68.667885 L102.246017,69.3091509 L102.210485,69.6402935 C102.185414,69.8634052 102.157592,70.0912264 102.127106,70.3238152 C101.882941,72.1880391 101.258585,73.682321 99.8859487,75.9513581 L99.8859487,75.9513581 L99.4730877,76.621725 L99.25079,76.9745739 L99.1134455,77.1892871 C97.5779243,79.5084665 95.2362439,80.4130316 93.0798984,79.2442807 L93.0798984,79.2442807 L92.2321522,78.8607895 L91.3925474,78.470533 L91.183626,78.3717585 L91.183626,78.3717585 L90.9750184,78.2724589 L90.1429481,77.8696006 L89.9353255,77.7673689 L89.9353255,77.7673689 L89.727783,77.6644894 L88.8976339,77.2460848 L88.0656472,76.8156799 L87.2293281,76.3719662 L87.019279,76.2588049 L87.019279,76.2588049 L86.8087642,76.1447095 L85.9612689,75.6785785 L85.1032043,75.1958668 L84.8867443,75.0724448 L84.8867443,75.0724448 L84.6694289,74.9478842 L83.7908327,74.4378476 L82.8954304,73.9079584 L81.9807272,73.3569079 L81.0442283,72.7833874 L80.083439,72.1860882 L79.0958645,71.5637016 L78.0790101,70.9149188 L77.030381,70.238431 L75.9474825,69.5329296 L74.8278198,68.7971059 L72.1465743,67.0237233 L69.0941558,65.0207886 L67.2829066,63.8129736 L66.3793853,63.1948417 L65.9338865,62.8805369 C64.324534,61.7362591 62.9804825,60.6809716 61.8928087,59.6844895 C59.3471415,57.3522535 58.5270794,55.6452956 59.3512337,54.6340096 Z M29.438,57.09 L29.496,57.081 L29.6463285,57.0594234 C30.2373832,56.9644265 30.9182029,56.8050794 31.7071859,56.5807909 L32.0519974,56.4806895 L32.7070614,56.2804349 L32.8779153,56.2263333 L32.8779153,56.2263333 L33.0516631,56.1706145 L33.7761788,55.9315496 L34.5493417,55.6665358 L34.7504536,55.5962208 L34.7504536,55.5962208 L34.9547525,55.5242792 L39.6996264,53.7988849 L39.997067,53.6964091 C43.11966,52.6436691 44.6432246,52.8754132 44.9861611,53.7955826 C45.2657379,54.5469896 45.1129461,55.2887211 44.4964011,55.9949056 C43.6661298,56.9462172 42.525533,57.7647895 40.7513134,58.7330288 L40.7513134,58.7330288 L40.1325397,59.0624536 L37.3672445,60.4632184 L36.4431207,60.9273594 L35.8717758,61.2214301 C34.3789275,61.9965196 33.1222075,62.7050756 31.8669569,63.4972976 C28.2290684,65.7930438 24.624444,68.2221226 20.9251366,70.866442 L20.9251366,70.866442 L17.8533531,73.0902835 L17.2839127,73.4973208 L16.6486255,73.9416754 L16.3448219,74.149584 L16.3448219,74.149584 L16.0477484,74.3495576 L15.6373904,74.6198237 L15.1886826,74.9064857 C14.5962361,75.2783645 14.0269973,75.6087657 13.4795955,75.8961436 L13.4795955,75.8961436 L12.9727622,76.1529086 L12.7059902,76.2801937 C9.172937,77.9282028 6.59268682,77.6072746 4.55167425,74.8509374 C1.07855959,70.1606242 0.711030672,64.5758131 4.10287541,63.0566595 L4.10287541,63.0566595 L7.27605275,61.6284143 L13.040445,58.988902 L13.8000867,58.648715 L14.0961735,58.5141724 C14.860648,58.1578481 15.4267497,57.8195061 15.8508581,57.4592095 C16.7955885,56.6566241 17.0194956,56.0345783 16.9309137,54.6100622 L16.9309137,54.6100622 L16.8974543,54.1803725 L16.849105,53.701916 L16.8232107,53.4872887 C16.5448392,51.3821629 15.6710998,50.497438 13.076495,49.5735526 C11.8142712,49.1240478 10.6077853,48.9450625 9.23369926,48.9544125 L9.23369926,48.9544125 L8.83451061,48.9609148 L8.43787851,48.9767108 L7.98672417,49.0047979 L5.86896979,49.1772194 L5.4174035,49.2088013 L5.0057139,49.2317306 L4.60124013,49.247739 L4.36556699,49.2512444 C3.273003,49.2480137 2.28224748,48.9640054 1.40978613,48.1250313 C-0.248864189,46.530622 -0.333179755,42.9461107 0.582037669,39.3551745 C1.27278453,36.6465291 2.35896471,34.9590365 4.8997934,33.3951454 C5.78657719,32.8493529 6.8247066,32.6839048 8.04044959,32.8532909 C9.15339775,33.008355 10.3331565,33.4207717 11.7499627,34.0957276 L11.7499627,34.0957276 L12.3386054,34.3851622 L14.2899666,35.3864776 L15.9893021,36.2075454 L17.1262406,36.7448929 L17.8665553,37.088788 L18.9782858,37.5959301 L20.9269418,38.4606469 L22.6718707,39.2160478 L26.6240935,40.9020577 L27.5587408,41.3053277 L29.2712177,42.058129 L30.0831992,42.4233157 L31.2938761,42.9790936 L32.121033,43.3663594 L34.1265415,44.1800093 L34.4743548,44.3258527 L34.9099961,44.5167273 L34.9686828,44.5438752 L34.9686828,44.5438752 L35.0225866,44.5693972 C37.0651882,45.5496442 38.0186818,46.6165343 37.8037278,47.9807092 C37.591666,49.3286758 36.8996157,49.9791331 34.46234,50.4086223 L34.46234,50.4086223 L34.2274771,50.4286108 L33.3413198,50.51815 L32.6422446,50.5971138 L31.5171838,50.7337187 L30.766349,50.8306258 L29.7249127,50.9739951 L29.1373368,51.0619778 L29.0087097,51.0824082 L29.0087097,51.0824082 L28.8884645,51.1020781 C27.4285373,51.346398 26.6623682,52.9101502 26.7276106,54.5685822 L26.7276106,54.5685822 L26.7377523,54.7419205 L26.7543595,54.9120881 C26.939237,56.4845331 27.9565258,57.6010942 29.4586157,57.0972736 L29.4586157,57.0972736 L29.495,57.081 L29.438,57.09 Z M65.1085055,7.54206965 C66.8559522,3.9406359 68.5459747,2.84117742 71.294632,3.19162469 C75.3198252,3.70623632 77.9837854,4.9843309 79.4017949,7.87483123 C80.2902908,9.68513273 80.0784075,12.03451 79.2131278,14.1190475 C79.0304997,14.603262 78.8382098,15.0755679 78.6249765,15.5664249 C78.3448794,16.2112002 78.0331391,16.8785859 77.6824245,17.5886596 L77.6824245,17.5886596 L77.2423902,18.4625232 L76.7794084,19.3493858 L74.5612744,23.4859421 L74.3344087,23.9319916 L74.1371188,24.3330718 L73.9696391,24.6931425 L73.8843987,24.8891508 C73.4847584,25.8379202 73.4841613,26.3279663 73.9102358,26.8255251 C74.307634,27.2895963 74.7660257,27.3351877 75.5945002,27.2197631 L75.5945002,27.2197631 L75.7778076,27.1926585 L75.9369905,27.1666986 L75.9369905,27.1666986 L76.1076888,27.1364556 L76.498458,27.0607247 L77.7994017,26.7876222 L78.393807,26.6683264 L78.5320197,26.6419772 L78.5320197,26.6419772 L78.666719,26.616932 L79.1768039,26.5289347 L79.6563592,26.4583724 L79.9501606,26.4222234 C81.5827679,26.2386114 82.6661064,26.4161365 83.1628386,26.9640271 C83.7414536,27.6019563 83.9594442,28.3413294 83.8864299,29.2443306 C83.8273805,29.9746215 83.5924258,30.751453 83.1692845,31.7321984 L83.1692845,31.7321984 L82.4235062,33.3664978 L82.25859,33.7475463 L82.1964081,33.9097291 C81.9228184,34.6500942 81.88692,35.1645687 82.3154075,35.6604922 C82.7767054,36.1951349 83.3960271,36.2611157 84.4982251,36.047654 L84.4982251,36.047654 L84.9078154,35.9610195 L85.0168506,35.9359516 L85.0168506,35.9359516 L85.12864,35.9095777 L85.7136949,35.7626334 L86.3091463,35.6000705 L87.0252418,35.3943446 L89.1252084,34.7740071 L89.9193954,34.5448292 L90.6178009,34.3497535 L90.786115,34.3038764 L90.786115,34.3038764 L90.9525715,34.2589898 L91.5485813,34.1025931 L92.0508971,33.9766911 C93.0407116,33.7344878 93.942975,33.5499317 94.7820222,33.4237939 C99.2570154,32.8600759 102.573873,34.1004808 103.353918,37.1141526 L103.353918,37.1141526 L103.626983,38.1746263 L103.906322,39.2845697 L104.17639,40.4073797 L104.33567,41.1047488 L104.478186,41.7614648 L104.51118,41.9193202 L104.51118,41.9193202 L104.543116,42.0746538 L104.660243,42.6708457 L104.760282,43.226992 L104.782606,43.3597999 L104.782606,43.3597999 L104.803852,43.490124 L104.878015,43.9866577 L104.913244,44.2580741 C105.031522,45.2287234 105.02979,45.9297117 104.902335,46.3717409 C103.940129,49.7064011 100.648209,51.1112516 94.2324166,51.3912619 C93.0307048,51.4435344 91.8703015,51.4698259 90.5274768,51.4732704 L90.5274768,51.4732704 L88.8843783,51.4672841 L87.4019981,51.4486135 L84.8069414,51.3987558 L80.0904109,51.3014207 L77.893164,51.2774772 L76.8054995,51.2775243 L75.5392271,51.2919921 L74.5498874,51.3153327 L72.5762276,51.3776845 L71.4713462,51.4048532 L70.4267727,51.4214099 L69.8234839,51.4259413 C69.0291364,51.4291868 68.2724047,51.4211044 67.5228689,51.3999836 L67.5228689,51.3999836 L66.6902312,51.3707671 L65.9817444,51.3351168 L65.8091259,51.3247585 L65.8091259,51.3247585 L65.6383388,51.3138295 L64.9738056,51.2644803 L64.3397806,51.2062985 L64.1861543,51.1904011 L64.1861543,51.1904011 L64.0345102,51.1739704 L63.4480562,51.1029896 L63.3065487,51.0839487 L63.3065487,51.0839487 L63.1671138,51.064397 L62.6304012,50.9811572 L62.3497964,50.9320043 C60.6058921,50.6132451 59.4971331,50.1536019 59.2069889,49.5987178 L59.2069889,49.5987178 L59.1620123,49.4939327 L59.1211822,49.3608116 C58.8901963,48.4629481 59.480884,47.3591827 60.735718,46.1629301 C60.948493,45.9600884 61.1709947,45.763502 61.4055748,45.5688147 L61.4055748,45.5688147 L61.8262563,45.2314171 L62.4960917,44.7247028 L63.4363996,43.9954568 L64.2869916,43.3237323 L65.0428971,42.7134183 L65.6991454,42.1684041 L66.0788244,41.8432594 L66.2507657,41.6925787 L66.4354551,41.5275532 C66.7891057,41.2078511 67.0486361,40.9497538 67.218537,40.744478 C67.3854941,40.5427589 67.4924113,40.3729902 67.5468578,40.1444183 C67.7055833,39.4780722 67.2054804,38.9313285 66.5824779,38.9249714 C66.2946778,38.9215997 66.0548476,39.0004052 65.6168899,39.2590469 L65.6168899,39.2590469 L65.3568757,39.4185461 L64.8737564,39.7323804 L62.1326925,41.5762994 L61.8158115,41.7839696 L61.2163386,42.1687408 L60.7502512,42.4581123 L60.3070713,42.7233035 L59.8885698,42.9637426 L59.4965179,43.1788581 L59.1326865,43.3680785 L59.0463457,43.4112705 L59.0463457,43.4112705 L58.961907,43.4527993 L58.6437272,43.6021051 L58.3581955,43.7240868 L58.1070831,43.8181727 L57.9772001,43.8599464 C57.771186,43.9214339 57.617948,43.9420869 57.5248101,43.9195418 C56.1299757,43.5825612 55.7864448,41.8173948 56.3652352,38.4798714 L56.3652352,38.4798714 L56.4734673,37.8922949 L56.5033318,37.7405686 L56.5033318,37.7405686 L56.5343145,37.5869042 L56.6693808,36.9528171 L56.70592,36.7894252 L56.70592,36.7894252 L56.7435639,36.6240803 L56.9476256,35.7686042 L57.8241651,32.3364265 L58.6702568,28.8451873 L59.851931,23.9247866 L60.1458572,22.7578985 L60.4619117,21.5525917 L60.8124678,20.2664898 L61.2132812,18.843461 L61.9746812,16.2244354 L62.1588348,15.6439726 L62.4980362,14.6225831 L63.0165623,13.1074459 L63.5583073,11.5634876 L64.0431327,10.2160377 L64.53216,8.90505604 L64.7860641,8.26029308 L64.9314006,7.9169908 L64.9704095,7.83161055 Z M25.5029876,7.32284302 C30.6366769,1.28776493 44.5955801,-0.942627917 52.0629066,2.90895068 L52.0629066,2.90895068 L52.1178187,2.93503013 L52.3691218,3.0481074 C57.274067,5.32770844 59.9568788,10.8685697 57.1424395,14.735513 C56.0978187,16.0450811 55.1357424,16.5891269 53.1855338,16.9835965 L53.1855338,16.9835965 L52.6536646,17.0835136 L52.5131976,17.1077173 L52.5131976,17.1077173 L52.3695987,17.1316867 L50.3889812,17.4377125 L49.8943287,17.5260732 L49.5953988,17.5862644 L49.3006111,17.6514373 L48.9923695,17.7249814 L48.7443144,17.7902562 C44.8399726,18.8880572 44.0310846,22.5193324 45.9631604,24.3771815 L45.9631604,24.3771815 L46.3193677,24.7132752 L46.4041686,24.7910747 L46.4041686,24.7910747 L46.4879563,24.8669714 L46.8198495,25.1573967 L47.1630261,25.4408453 L47.2531606,25.5128176 L47.2531606,25.5128176 L47.3457187,25.5858206 L47.7470593,25.8940077 L48.2146685,26.2421561 L48.6077545,26.530549 L48.8934503,26.7424582 C50.0023266,27.5744194 50.7235795,28.2377671 51.7506289,29.4341967 C57.8590364,36.5517696 52.5406893,47.8051775 43.0084012,46.5344414 C40.9519133,46.2604645 38.8584793,44.7986816 38.2535617,43.3791874 C37.1016423,40.6770353 38.0671575,38.3147242 40.0826487,37.1593472 L40.0826487,37.1593472 L40.7370792,36.7876161 L41.0613827,36.5976803 L41.3265665,36.4313386 L41.4909213,36.319452 C42.5534256,35.5670475 42.9569967,34.6734228 42.9985186,32.9579541 C42.9734803,31.1009723 41.6329256,29.6870542 39.6147997,29.1291324 L39.6147997,29.1291324 L39.3681283,29.0678383 L32.8413664,27.904573 L30.1175767,27.4053928 L29.8677939,27.3364211 C22.5111856,25.1761247 19.9388428,12.9206758 25.5029876,7.32284302 Z M32.8545272,33.6075873 L33.0350555,33.622662 L33.1770613,33.6476096 C33.8729368,33.7991988 34.3609076,34.3574893 34.8386724,35.499282 C35.6474796,37.4299526 34.9672379,39.4451687 32.8147564,40.1245756 C32.1192616,40.3442694 31.2421194,40.1041567 30.4212237,39.4814083 C29.443583,38.7404974 28.7593653,37.8008012 28.4953486,36.7952418 C28.2568295,35.8874452 28.8112988,35.0508895 30.2563686,34.3204512 C31.0265761,33.9320564 32.2421111,33.5939969 32.8545272,33.6075873 L32.8545272,33.6075873 Z M13.8218171,16.8596786 C14.4822245,16.6506967 15.0866757,16.620522 15.3164033,16.6978252 L15.3164033,16.6978252 L15.6827442,16.8245784 L15.8522572,16.8877715 C16.2214983,17.0307467 16.4175128,17.1481643 16.6670679,17.3611811 C17.3177832,17.9166225 17.8895585,18.946462 18.3853675,20.7138267 L18.3853675,20.7138267 L18.4720752,21.0334241 L18.5697852,21.3848149 C19.4548592,24.3966257 21.3337155,26.5420087 24.141414,28.3317242 L24.141414,28.3317242 L24.5730183,28.5935888 L25.1354038,28.9170053 L26.0044947,29.402479 L28.0265324,30.5172127 L28.3784408,30.7167981 L28.5381303,30.8117198 L28.5919768,30.8460035 L28.7330262,30.9412306 C29.4442933,31.430815 29.5059581,31.6384986 29.2220229,32.08221 C29.1096445,32.2576729 28.9953073,32.3582733 28.7205797,32.5167915 L28.7205797,32.5167915 L28.2524698,32.7786067 L28.0945441,32.8716675 C27.8508608,33.0197153 27.6950144,33.1395689 27.4800904,33.3373322 C26.9347134,33.8391636 26.4978501,34.5306099 26.1331098,35.5148179 C25.9419597,36.2180085 25.5276155,36.4360488 24.5885463,36.3525144 C23.5915246,36.2638249 22.2353755,35.8017888 20.5397977,35.0090794 C20.3089842,34.9011704 20.073118,34.7877985 19.829748,34.6679327 L19.829748,34.6679327 L19.0746755,34.2878229 L17.7895544,33.6120879 L16.8833569,33.1235069 L16.5222551,32.9251705 C15.1665419,32.1697277 13.477826,31.1112359 11.9643487,29.9889663 C9.60696004,28.2409218 8.021281,26.5886888 7.57900581,25.2803385 C7.19070045,24.1325644 8.44477323,21.5708914 11.1609837,18.6232833 C11.9846441,17.7293542 12.9020093,17.1507461 13.8218171,16.8596786 Z" id="Combined-Shape" fill="#000000"></path>
    </g>
</svg>