<svg width="105" height="104" viewBox="0 0 105 104" fill="none" xmlns="http://www.w3.org/2000/svg">
<path fill-rule="evenodd" clip-rule="evenodd" d="M56.0962 70.1899C56.4226 71.3393 56.6342 72.5383 56.7352 73.7742L58.0183 80.9155L58.3028 82.569L58.4955 83.7757L58.5325 83.9251C58.9842 85.8987 58.0852 86.9086 55.9176 87.8938L55.6889 87.9957L55.3723 88.1331L54.9516 88.3186L54.6006 88.4816L54.3074 88.6293C54.0389 88.7716 53.8389 88.9015 53.6534 89.0508C53.1902 89.4235 52.805 89.8405 52.4926 90.2914C52.3494 90.5427 52.2028 90.7934 52.0528 91.0433C50.589 94.0515 51.8361 98.1575 54.6133 100.901C56.1792 102.221 58.1886 103.044 60.5609 103.397C62.4229 103.58 65.1057 103.059 68.1803 102.016L68.9569 101.744L69.7483 101.451C69.8814 101.401 70.015 101.349 70.1492 101.297L70.96 100.973L71.782 100.63L72.6137 100.268L73.4535 99.8877C74.0157 99.6281 74.5823 99.3566 75.1515 99.0741L76.0067 98.6423C77.4344 97.9091 78.8711 97.1098 80.2859 96.2573C80.4221 96.1752 80.5559 96.0942 80.6872 96.0142L81.4465 95.5458L82.1515 95.0979C85.434 92.9767 86.9471 91.4442 88.6435 88.596C89.9134 86.4251 90.1393 84.4287 89.3536 82.4628C88.0512 79.2005 85.0841 75.8627 82.6179 76.2309L82.2296 76.3241L81.1661 76.5654L78.5314 77.1142L77.8308 77.2683C77.7184 77.2939 77.6073 77.3195 77.4968 77.3454L76.8321 77.5069L75.8949 77.7471C73.7829 78.2428 72.3577 77.6668 71.1227 75.803C71.0735 75.7264 71.0245 75.6503 70.9757 75.5747L70.392 74.6835L69.9479 74.0221L69.3278 73.1215L68.8282 72.4126L68.0964 71.3943L66.8082 69.6386L63.3051 64.9329L62.3527 63.6252L62.052 63.2659C62.0023 63.2051 61.9526 63.1437 61.9027 63.0812L61.5975 62.6912L61.2723 62.2598L60.9136 61.7706L60.2643 60.8694L59.9145 60.3938L59.5845 59.9591L59.2723 59.5645L58.9762 59.2092C57.5324 57.5291 56.6174 57.2885 55.1669 58.0028C54.3536 58.4029 53.8111 60.1994 54.1296 61.4171C54.1635 61.5466 54.1968 61.6719 54.2305 61.7962L54.4425 62.5546L54.7991 63.7948L54.941 64.3265C55.0535 64.7663 55.1566 65.2189 55.261 65.7388L55.4931 66.9134L55.8438 68.7725L56.0962 70.1899ZM54.8532 73.7771L54.349 70.9259C53.398 67.391 51.2688 64.396 47.8371 62.3795L47.6171 62.2538C42.0908 59.1842 34.736 61.6239 35.5273 66.6736C35.6842 67.6757 36.8872 69.2424 37.9834 69.917L38.2064 70.0597C42.4395 72.8716 42.063 78.7434 38.5621 80.5364C36.1757 81.7589 34.0641 81.608 31.6011 80.3794C31.4507 80.3044 31.299 80.2257 31.1426 80.1416L30.6564 79.8718C30.4875 79.7755 30.3109 79.6723 30.1233 79.5607L28.0083 78.286C27.0778 77.7444 26.3417 77.3702 25.5477 77.0498L25.3483 76.9697C22.1512 75.7555 18.6407 77.8207 17.5429 81.9366C16.406 86.1982 17.5919 90.5189 21.1158 94.1057C24.9766 98.0337 30.8169 99.8548 36.3241 99.3318C44.0076 98.2339 47.4461 95.6169 50.2226 90.5327C50.427 90.0672 50.6807 89.618 50.9863 89.1903C51.0638 89.0522 51.1401 88.9139 51.2154 88.7755L51.5859 88.0764C54.1047 83.1943 55.2596 78.1954 54.8532 73.7771ZM52.1178 1.93503L52.0629 1.90895C44.5956 -1.94263 30.6367 0.287765 25.503 6.32284C19.8763 11.9836 22.57 24.4524 30.1176 26.4054L32.8414 26.9046L39.3681 28.0678L39.6148 28.1291C41.6329 28.6871 42.9735 30.101 42.9985 31.958C42.9549 33.7592 42.5122 34.6544 41.3266 35.4313L41.0614 35.5977L40.7371 35.7876L40.0826 36.1593C38.0672 37.3147 37.1016 39.677 38.2536 42.3792C38.8585 43.7987 40.9519 45.2605 43.0084 45.5344C52.5407 46.8052 57.859 35.5518 51.7506 28.4342C50.638 27.1381 49.8842 26.4676 48.6078 25.5305L48.2147 25.2422L47.7471 24.894L47.3457 24.5858C47.2831 24.5367 47.2224 24.4885 47.163 24.4408L46.8198 24.1574L46.488 23.867C46.4324 23.8169 46.3763 23.7658 46.3194 23.7133L45.9632 23.3772C43.9908 21.4806 44.8749 17.736 48.9924 16.725L49.3006 16.6514L49.5954 16.5863L49.8943 16.5261L50.389 16.4377L52.3696 16.1317C52.4664 16.1158 52.561 16.0997 52.6537 16.0835L53.1855 15.9836C55.1357 15.5891 56.0978 15.0451 57.1424 13.7355C60.0046 9.80303 57.1815 4.1394 52.1178 1.93503ZM11.75 33.0957C10.3332 32.4208 9.1534 32.0084 8.04045 31.8533C6.82471 31.6839 5.78658 31.8494 4.89979 32.3951C2.35896 33.959 1.27278 35.6465 0.582038 38.3552C-0.33318 41.9461 -0.248864 45.5306 1.40979 47.125C2.34457 48.0239 3.41514 48.2858 4.60124 48.2477L5.00571 48.2317L5.4174 48.2088L5.86897 48.1772L7.98672 48.0048L8.43788 47.9767L8.83451 47.9609L9.2337 47.9544C10.6078 47.9451 11.8143 48.124 13.0765 48.5736C15.7576 49.5282 16.6012 50.4411 16.8491 52.7019L16.8975 53.1804L16.9309 53.6101C17.0195 55.0346 16.7956 55.6566 15.8509 56.4592C15.3737 56.8645 14.7169 57.2421 13.8001 57.6487L13.0404 57.9889L7.27605 60.6284L4.10288 62.0567C0.71103 63.5758 1.07856 69.1606 4.55167 73.8509C6.64371 76.6762 9.30229 76.9427 12.9728 75.1529L13.4796 74.8961C14.1638 74.5369 14.8822 74.1105 15.6374 73.6198L16.0477 73.3496C16.244 73.2186 16.4434 73.0832 16.6486 72.9417L17.2839 72.4973L17.8534 72.0903L20.9251 69.8664C24.6244 67.2221 28.2291 64.793 31.867 62.4973C33.2791 61.606 34.6931 60.8207 36.4431 59.9274L37.3672 59.4632L40.1325 58.0625L40.7513 57.733C42.5255 56.7648 43.6661 55.9462 44.4964 54.9949C45.1129 54.2887 45.2657 53.547 44.9862 52.7956C44.6325 51.8467 43.0233 51.6299 39.6996 52.7989L34.9548 54.5243C34.8175 54.5728 34.6824 54.6202 34.5493 54.6665L33.7762 54.9315L33.0517 55.1706C32.9349 55.2083 32.82 55.2449 32.7071 55.2804L32.052 55.4807C31.0442 55.7791 30.2036 55.9793 29.4962 56.0825L29.5026 56.0799L29.3985 56.0962C29.4307 56.0918 29.4633 56.0872 29.4962 56.0825L29.4586 56.0973C27.9029 56.6191 26.8672 55.4027 26.7378 53.7419L26.7276 53.5686C26.6624 51.9101 27.4285 50.3464 28.8885 50.1021C28.9657 50.0892 29.0489 50.0758 29.1373 50.062L29.7249 49.974L30.7664 49.8306L31.5172 49.7337L32.6422 49.5971L33.3413 49.5182L34.2275 49.4286L34.4623 49.4086C36.8996 48.9791 37.5917 48.3287 37.8037 46.9807C38.0187 45.6165 37.0652 44.5496 35.0226 43.5694C35.0054 43.5612 34.9874 43.5526 34.9686 43.5439C34.9499 43.5351 34.9303 43.526 34.91 43.5167L34.4744 43.3259L34.1265 43.18L32.121 42.3664L31.2939 41.9791L30.0832 41.4233L29.2712 41.0581L27.5587 40.3053L26.6241 39.9021L22.6719 38.216L20.9269 37.4606L18.9783 36.5959L17.8666 36.0888L17.1262 35.7449L15.9893 35.2075L14.29 34.3865L12.3386 33.3852L11.75 33.0957ZM72.1466 66.0237L74.8278 67.7971L75.9475 68.5329L77.0304 69.2384L78.079 69.9149L79.0959 70.5637L80.0834 71.1861L81.0442 71.7834L81.9807 72.3569L82.8954 72.908L83.7908 73.4379L84.6694 73.9479C84.8146 74.0313 84.9592 74.114 85.1032 74.1959L85.9613 74.6786L86.8088 75.1447L86.9045 75.1967L87.0314 75.2653L87.2293 75.372L88.0656 75.8157L88.8976 76.2461L89.7278 76.6645L89.9291 76.7643C90.0004 76.7995 90.0717 76.8346 90.1429 76.8696L90.975 77.2725C91.114 77.3388 91.2532 77.4049 91.3925 77.4705L92.2321 77.8608L93.0799 78.2443C95.3016 79.4484 97.72 78.4517 99.2508 75.9746L99.4731 75.6217L99.8859 74.9514C101.259 72.6823 101.883 71.188 102.127 69.3238C102.173 68.9749 102.213 68.6368 102.246 68.3092L102.304 67.6679L102.346 67.0544C102.545 63.3557 101.728 61.2193 99.3454 60.2782C96.6154 59.3071 93.9813 58.5078 91.225 57.8035L90.2288 57.5541L89.2168 57.3113L88.1805 57.073C88.0054 57.0335 87.8288 56.9942 87.6507 56.9549L86.5623 56.7196L85.4286 56.4837L84.241 56.2453L82.9912 56.0023L81.4911 55.7193L71.0421 53.8312L70.2761 53.6616L69.7044 53.5253L67.7201 53.0363L67.1799 52.9082L66.4572 52.7466L65.8889 52.6301C62.5508 51.98 60.501 52.2233 59.3512 53.634C58.5271 54.6453 59.3471 56.3523 61.8928 58.6845C63.0794 59.7716 64.571 60.9286 66.3794 62.1948L67.2829 62.813L69.0942 64.0208L72.1466 66.0237ZM32.8545 32.6076L33.0351 32.6227C33.8078 32.7274 34.3291 33.2814 34.8387 34.4993C35.6475 36.43 34.9672 38.4452 32.8148 39.1246C32.1193 39.3443 31.2421 39.1042 30.4212 38.4814C29.4436 37.7405 28.7594 36.8008 28.4953 35.7952C28.2568 34.8874 28.8113 34.0509 30.2564 33.3204C31.0266 32.9321 32.2421 32.594 32.8545 32.6076ZM71.2946 2.19162C75.3198 2.70624 77.9838 3.98433 79.4018 6.87483C80.2903 8.68513 80.0784 11.0345 79.2131 13.119C79.0305 13.6033 78.8382 14.0756 78.625 14.5664C78.3449 15.2112 78.0331 15.8786 77.6824 16.5887L77.2424 17.4625L76.7794 18.3494L74.5613 22.4859L74.3344 22.932L74.1371 23.3331L73.9696 23.6931C73.4867 24.7726 73.4557 25.2948 73.9102 25.8255C74.3076 26.2896 74.766 26.3352 75.5945 26.2198L75.7778 26.1927C75.8809 26.1766 75.9892 26.1582 76.1077 26.1365L76.4985 26.0607L77.7994 25.7876L78.3938 25.6683C78.4872 25.6503 78.578 25.6332 78.6667 25.6169L79.1768 25.5289L79.6564 25.4584C81.4533 25.219 82.6369 25.3839 83.1628 25.964C83.7414 26.602 83.9594 27.3413 83.8864 28.2443C83.8274 28.9746 83.5924 29.7515 83.1693 30.7322L82.4235 32.3665L82.2586 32.7475C81.9303 33.5765 81.8563 34.1291 82.3154 34.6605C82.7767 35.1951 83.396 35.2611 84.4982 35.0477L84.9078 34.961C84.9796 34.9447 85.0532 34.9276 85.1286 34.9096L85.7137 34.7626L86.3091 34.6001L87.0252 34.3943L89.1252 33.774L89.9194 33.5448L90.6178 33.3498C90.7307 33.3188 90.8421 33.2886 90.9526 33.259L91.5486 33.1026C92.7382 32.7976 93.8031 32.571 94.782 32.4238C99.257 31.8601 102.574 33.1005 103.354 36.1142L103.627 37.1746L103.906 38.2846L104.176 39.4074L104.336 40.1047L104.478 40.7615C104.501 40.8675 104.522 40.9719 104.543 41.0747L104.66 41.6708L104.76 42.227L104.777 42.3268C104.786 42.3819 104.795 42.4363 104.804 42.4901L104.878 42.9867C105.031 44.0991 105.041 44.8895 104.902 45.3717C103.94 48.7064 100.648 50.1113 94.2324 50.3913C93.0307 50.4435 91.8703 50.4698 90.5275 50.4733L88.8844 50.4673L87.402 50.4486L84.8069 50.3988L80.0904 50.3014L77.8932 50.2775L76.8055 50.2775L75.5392 50.292L74.5499 50.3153L72.5762 50.3777L71.4713 50.4049L70.4268 50.4214C69.408 50.4324 68.4598 50.4264 67.5229 50.4L66.6902 50.3708L65.9817 50.3351C65.8661 50.3284 65.7516 50.3213 65.6383 50.3138L64.9738 50.2645L64.3398 50.2063C64.2367 50.1959 64.1349 50.1851 64.0345 50.174L63.4481 50.103C63.353 50.0905 63.2594 50.0776 63.1671 50.0644L62.6304 49.9812C60.7249 49.6614 59.5124 49.1828 59.207 48.5987L59.162 48.4939C58.8328 47.5731 59.4181 46.419 60.7357 45.1629C60.9485 44.9601 61.171 44.7635 61.4056 44.5688L61.8263 44.2314L62.4961 43.7247L63.4364 42.9955L64.287 42.3237L65.0429 41.7134L65.6991 41.1684L66.0788 40.8433L66.2508 40.6926C66.7001 40.2954 67.0203 39.984 67.2185 39.7445C67.3855 39.5428 67.4924 39.373 67.5469 39.1444C67.7056 38.4781 67.2055 37.9313 66.5825 37.925C66.2947 37.9216 66.0548 38.0004 65.6169 38.259L65.3569 38.4185L64.8738 38.7324L62.1327 40.5763L61.8158 40.784L61.2163 41.1687L60.7502 41.4581L60.3071 41.7233L59.8886 41.9637L59.4965 42.1789L59.1327 42.3681C59.1014 42.3839 59.0705 42.3993 59.0399 42.4145C59.0136 42.4275 58.9876 42.4403 58.9619 42.4528L58.6437 42.6021L58.3582 42.7241L58.1071 42.8182C57.8349 42.9114 57.6366 42.9466 57.5248 42.9195C56.13 42.5826 55.7864 40.8174 56.3652 37.4799L56.4735 36.8923C56.493 36.7918 56.5133 36.69 56.5343 36.5869L56.6694 35.9528C56.6934 35.8445 56.7181 35.735 56.7436 35.6241L56.9476 34.7686L57.8242 31.3364L58.6703 27.8452L59.8519 22.9248L60.1459 21.7579L60.4619 20.5526L60.8125 19.2665L61.2133 17.8435L61.9747 15.2244L62.1588 14.644L62.498 13.6226L63.0166 12.1074L63.5583 10.5635L64.0431 9.21604L64.5322 7.90506L64.7861 7.26029L64.9314 6.91699L64.9704 6.83161C66.7677 2.99951 68.4736 1.83196 71.2946 2.19162ZM15.6827 15.8246L15.3164 15.6978C15.0867 15.6205 14.4822 15.6507 13.8218 15.8597C12.902 16.1507 11.9846 16.7294 11.161 17.6233C8.44477 20.5709 7.1907 23.1326 7.57901 24.2803C8.02128 25.5887 9.60696 27.2409 11.9643 28.989C13.6154 30.2133 15.475 31.3617 16.8834 32.1235L17.7896 32.6121L19.0747 33.2878L19.8297 33.6679C20.0731 33.7878 20.309 33.9012 20.5398 34.0091C22.2354 34.8018 23.5915 35.2638 24.5885 35.3525C25.5276 35.436 25.942 35.218 26.1331 34.5148C26.4979 33.5306 26.9347 32.8392 27.4801 32.3373C27.738 32.1 27.9108 31.9749 28.2525 31.7786L28.7206 31.5168C28.9953 31.3583 29.1096 31.2577 29.222 31.0822C29.5237 30.6108 29.4352 30.4058 28.592 29.846L28.5381 29.8117L28.3784 29.7168L28.0265 29.5172L26.0045 28.4025L25.1354 27.917L24.573 27.5936L24.1414 27.3317C21.2257 25.4732 19.3117 23.2311 18.4721 20.0334L18.3854 19.7138C17.8896 17.9465 17.3178 16.9166 16.6671 16.3612C16.3819 16.1177 16.1666 15.9992 15.6827 15.8246Z" fill="white"/>
</svg>
